<?xml version="1.0" standalone="no"?>
<!DOCTYPE svg PUBLIC "-//W3C//DTD SVG 1.1//EN" "http://www.w3.org/Graphics/SVG/1.1/DTD/svg11.dtd" >
<svg xmlns="http://www.w3.org/2000/svg" xmlns:xlink="http://www.w3.org/1999/xlink" version="1.1">
<metadata>
Created by FontForge 20170731 at Sat May  6 03:19:56 2017
 By Aleksey,,,
Copyright (c) 2017 by Youssef Habchi . All rights reserved.
</metadata>
<defs>
<font id="Javacom" horiz-adv-x="1845" >
  <font-face 
    font-family="Javacom"
    font-weight="400"
    font-stretch="normal"
    units-per-em="1300"
    panose-1="0 0 0 0 0 0 0 0 0 0"
    ascent="900"
    descent="-400"
    x-height="317"
    cap-height="1008"
    bbox="-1899.86 -1064.29 3372.76 1277.25"
    underline-thickness="50"
    underline-position="-200"
    unicode-range="U+0020-2122"
  />
<missing-glyph horiz-adv-x="450" 
 />
    <glyph glyph-name="s_s" unicode="ss" horiz-adv-x="1242" 
d="M590 349q5 -23 -11 -51q-11 -18 -41.5 -27t-45.5 3l-10 7q-7 3 -1 16q-14 -7 -22 -4.5t-12 0.5t-7 -16q-5 -22 0 -54q103 2 151.5 -3t125.5 -29q22 -6 48 -19q74 25 100 28q37 6 67 6q-2 27 2 45q4 31 21 59q18 31 49 45t60 -8q16 -19 11 -36q-2 -7 -8.5 -15.5
t-5.5 -13.5q0 -1 -11 -9.5t-24 -26.5t-17 -44q75 -10 77 -10q51 -6 75 -11t70 -10q34 -3 76 -35q15 -10 -6.5 -22.5t-37.5 -4.5q-4 3 -12 9.5t-15 10.5t-15 5q-83 22 -109 25q-43 5 -96 2q9 -59 -10 -110q-16 -40 -63.5 -71t-103 -45t-112 -11t-88.5 26t-39 60t11 66
q13 24 39.5 46.5t55.5 31.5l-16 5q-19 9 -105 22t-116 13h-24q8 -30 22 -61q21 -46 -3 -84q-18 -26 -47 -44q-60 -45 -171 -56q-93 -11 -166 1q-44 8 -83 33q-44 29 -45 63q-2 43 57 89l12 10q20 13 27 16q44 23 64 27q9 5 30 8t26 4q80 20 192 22q2 18 6 28q3 7 5 15
t4.5 14t7.5 13q34 41 83.5 68t90.5 13q18 -6 33 -24zM381 92q-18 47 -21 101q-84 -2 -144 -17q-17 -5 -51 -9q-5 -1 -16 -2t-18 -2t-15.5 -3.5t-15.5 -6.5l-24 -15q-3 -2 -5 -3.5t-4.5 -4t-3.5 -4l-3 -4.5l-3 -4.5t-2.5 -5.5t-2 -5t-2.5 -6.5t-3 -7.5q-9 -22 14 -55
q5 -7 11 -11.5t10 -6.5t11 -4t10 -3q5 -2 16.5 -7.5t20.5 -8t19 -2.5t33 -4t36 -1q17 3 36 7.5t30 6.5q18 1 30 7q2 1 16.5 5t22.5 15q2 2 7 7.5t8 9.5t5.5 10.5t2 15t-4.5 18.5zM938 122q0 20 -1 30q-21 -4 -29 -5q-17 -3 -54 -13t-54 -13q-47 -7 -111 -79q-2 -2 -9.5 -9
t-10 -11.5t-1.5 -8.5q8 -41 55 -47.5t96 11t74 39.5q20 18 32 48t13 58z" />
    <glyph glyph-name="t_t" unicode="tt" horiz-adv-x="967" 
d="M28 596l12 14q2 7 29.5 13t32.5 -2q1 -3 47 -16q13 -5 109 -7h1q1 1 2 1q16 25 46 75l2 6q3 8 10 26.5t11 29.5q2 5 2 14.5t1 14.5q2 5 8.5 13t7.5 12q27 75 29 78q8 8 35.5 24.5t30.5 18.5q17 7 33 2l4 -2q17 -14 14 -38q-3 -20 -48 -94q-3 -4 -7 -14t-6 -14
q-20 -31 -64 -90l-31 -50l52 6q42 4 119 12t109.5 11t87 5.5t109.5 2.5q10 16 16 24q3 17 9 25l19 32q3 14 6.5 34.5t5.5 31.5t7.5 21t14.5 14q9 6 41 13q23 8 43.5 -8t17.5 -41q-22 -58 -89 -148h7q10 0 68 -2t76 -3t66.5 -3.5t75.5 -5t66 -7t73 -10.5l13 -1
q12 -1 21.5 -2.5t25.5 -4t27.5 -6.5t23 -9t17 -12t4.5 -16q-1 -14 -39 -27q-1 0 -5 3.5t-12.5 9t-16.5 9.5q-25 12 -42 19q-111 22 -335 29q-104 2 -143 1q-6 -8 -27.5 -36t-30.5 -40l-54 -72t-70 -95.5t-56 -84.5q-32 -51 -53 -96q-28 -63 -27 -95q1 -26 15.5 -36.5
t45.5 -12.5q40 -3 89 8q50 10 136 37q29 10 156 65q14 11 21 7.5t0 -18.5q-43 -36 -130 -83q-110 -60 -181 -82q-68 -20 -112 -19q-53 2 -78 30q-32 37 -18 111q8 50 53 140q-78 -77 -164.5 -146.5t-135.5 -90.5q-8 -3 -41 -18.5t-51.5 -23t-50.5 -16.5t-53 -8.5t-43.5 10.5
t-35.5 32q-26 46 21 162q71 158 214 391q-86 -13 -180 -2q-21 3 -30 17.5t-3.5 30t24.5 22.5zM763 571l23 32q-55 -4 -109 -10t-141 -17.5t-137 -17.5q-28 -3 -106 -16q-9 -14 -51 -77t-59 -89.5t-45.5 -74.5t-48.5 -87q-48 -93 -33 -154q16 -64 108 -35q46 15 83 34
q53 27 73 39q30 18 138 93q40 28 78.5 68t62 71t61.5 85q51 82 103 156z" />
    <glyph glyph-name="o_o" unicode="oo" horiz-adv-x="1342" 
d="M636 112q37 62 115 115q25 18 54 33q-42 4 -119 -8l-76 -12v-2q-5 -15 -31 -51q-49 -68 -157 -127q-84 -46 -252 -86q-18 -5 -52 -7t-69.5 3.5t-46.5 21.5l-8 6q-7 5 -11 12q-10 15 -10 33q1 43 22.5 72.5t74.5 74.5q47 42 136 92q30 16 42 20q3 1 38 17.5t55 20.5
q0 1 4 3q32 19 57 2q28 -5 30 -37q43 11 93.5 6t68.5 -29q8 0 26 -2t27 0q17 3 100 7q7 0 66.5 18.5t67.5 19.5h2l6 2q6 2 37.5 6t33.5 4q12 2 14 2q3 1 29 5q131 9 381 -19q45 -5 67 -11t61 -24q23 -9 28.5 -28t-21.5 -29q-10 -2 -20.5 0.5t-14.5 2.5q-16 1 -28 15.5
t-11 27.5q-1 1 -3 1q-5 1 -25 7.5t-31 8.5q-6 1 -80 1q-21 -1 -62 1t-59 2q32 -20 34 -52q0 -74 -137 -151q-4 -2 -27.5 -17t-37.5 -21q-11 -5 -56 -22q-41 -17 -124 -40q-92 -25 -139 -27q-44 -2 -65 11q-38 22 -29 64q4 20 32 64zM405 228q-21 -1 -38.5 6.5t-20.5 19.5
q-8 -2 -13 -2l-5 -1q-6 -1 -11 -1t-14 1l-17 2q-12 -5 -38.5 -12.5t-38.5 -15.5q-72 -53 -108 -92q-23 -23 -23 -62q0 -11 18 -21q21 -14 77 -6q147 21 222 56q111 50 152 102q14 19 16 32q-36 2 -57 0l-48 -5q-9 -1 -26.5 -1h-26.5zM1175 254q2 20 -33 26.5t-85 5.5
q-22 -7 -67 -27.5t-58 -22.5q-18 -3 -52 6q-34 -22 -52 -36q-43 -35 -44 -36q-18 -20 -31 -38q-25 -35 -30 -55q-3 -13 1 -20q8 -13 67 -4q69 11 76 13q10 3 81 31q67 23 106 41q20 10 66 42q51 36 55 74z" />
    <glyph glyph-name="o_s" unicode="os" horiz-adv-x="1292" 
d="M1128 352q15 -21 10 -34q-6 -28 -35 -48q-10 -6 -18 -20q-8 -17 -11 -32q19 1 56 -1.5t52 -2.5q67 -1 110 -7q52 -9 82 -24q16 -6 -2 -22q-21 -17 -40 -11q-4 2 -10.5 7t-10.5 7.5t-10.5 4.5t-13.5 2q-14 1 -38 5.5t-38 5.5q-55 4 -131 -5q9 -58 -10 -112
q-16 -38 -65 -68.5t-106.5 -43.5t-116 -10t-92.5 25q-5 3 -17 10.5t-21 14.5t-13 13q-19 21 -23.5 45t7.5 42q23 41 107 65q34 11 217 44l47 9q-3 34 1 48q2 11 6 26q-108 -26 -141 -30q-18 -3 -50 -8.5t-46 -7.5q-27 -4 -58 -8.5t-36 -5.5q-12 -1 -25 -2.5t-31 -3.5
q-4 -9 -27 -41q-56 -77 -175.5 -133.5t-239.5 -81.5q-23 -9 -89.5 -4t-83.5 28q-29 44 -29 55q1 43 29.5 82t83.5 85q53 44 131 81q5 2 38 19t38 19q6 2 25.5 9.5t36.5 13t25 5.5q19 0 37 -5q13 -4 25 -28q1 -3 1 -16q2 0 8 1t16.5 3.5t22.5 3.5h7t5.5 -1t8.5 -1
q53 -6 75 -21q22 -13 26 -22q38 -3 49 -1q6 1 34.5 0.5t61.5 1.5q4 0 123 17q33 5 91 28q13 5 47 23.5t50 23.5q35 7 63 -11zM421 261q0 6 2 10q-12 -7 -40.5 -11.5t-39.5 -0.5t-47 0t-43 -6q-14 -3 -28.5 -10.5t-22.5 -13t-21 -15.5t-17 -13q-31 -21 -57 -64
q-16 -25 -24 -61q-3 -26 14 -38q22 -14 71 -8q112 12 224 55t163 110q8 9 16 23q-50 -4 -70 -2q-49 6 -64 13q-18 8 -16 32zM999 133q0 20 -1 30q-10 -3 -65 -21.5t-74 -20.5q-33 -4 -85 -23t-71 -37l-9 -9t-10 -11t-2 -8q8 -40 66 -47t119.5 9t85.5 37q21 17 33 45.5
t13 55.5z" />
    <glyph glyph-name="o_o_s" unicode="oos" horiz-adv-x="1964" 
d="M-2 112q37 62 115 115q32 22 87 50q-2 12 15.5 29.5t35.5 23.5q6 2 37.5 6t33.5 4q12 2 14 2q3 1 29 5q131 9 381 -19q45 -5 67 -11t61 -24q4 -1 8 -5l4 2q5 2 38 19t38 19q6 2 25.5 9.5t36.5 13t25 5.5q19 0 37 -5q13 -4 25 -28q1 -3 1 -16q2 0 8 1t16.5 3.5t22.5 3.5h7
t5.5 -1t8.5 -1q53 -6 75 -21q22 -13 26 -22q38 -3 49 -1q6 1 34.5 0.5t61.5 1.5q4 0 123 17q33 5 91 28q13 5 47 23.5t50 23.5q35 7 63 -11q15 -21 10 -34q-6 -28 -35 -48q-10 -6 -18 -20q-8 -17 -11 -32q19 1 56 -1.5t52 -2.5q67 -1 110 -7q52 -9 82 -24q16 -6 -2 -22
q-21 -17 -40 -11q-4 2 -10.5 7t-10.5 7.5t-10.5 4.5t-13.5 2q-14 1 -38 5.5t-38 5.5q-55 4 -131 -5q9 -58 -10 -112q-16 -38 -65 -68.5t-106.5 -43.5t-116 -10t-92.5 25q-5 3 -17 10.5t-21 14.5t-13 13q-19 21 -23.5 45t7.5 42q23 41 107 65q34 11 217 44l47 9q-3 34 1 48
q2 11 6 26q-108 -26 -141 -30l-96 -16l-94 -14l-56 -6q-4 -9 -27 -41q-56 -77 -175.5 -133.5t-239.5 -81.5q-23 -9 -89.5 -4t-83.5 28q-29 44 -29 55q1 43 29.5 82t83.5 85q26 21 64 45q-14 14 -12 28q-1 1 -3 1q-5 1 -25 7.5t-31 8.5q-6 1 -80 1q-21 -1 -62 1t-59 2
q32 -20 34 -52q0 -74 -137 -151q-4 -2 -27.5 -17t-37.5 -21q-11 -5 -56 -22q-41 -17 -124 -40q-92 -25 -139 -27q-44 -2 -65 11q-38 22 -29 64q4 20 32 64zM1093 261q0 6 2 10q-12 -7 -40.5 -11.5t-39.5 -0.5t-47 0t-43 -6q-14 -3 -28.5 -10.5t-22.5 -13t-21 -15.5t-17 -13
q-31 -21 -57 -64q-16 -25 -24 -61q-3 -26 14 -38q22 -14 71 -8q112 12 224 55t163 110q8 9 16 23q-50 -4 -70 -2q-49 6 -64 13q-18 8 -16 32zM537 254q2 20 -33 26.5t-85 5.5q-22 -7 -67 -27.5t-58 -22.5q-18 -3 -52 6q-34 -22 -52 -36q-43 -35 -44 -36q-18 -20 -31 -38
q-25 -35 -30 -55q-3 -13 1 -20q8 -13 67 -4q69 11 76 13q10 3 81 31q67 23 106 41q20 10 66 42q51 36 55 74zM1671 133q0 20 -1 30q-10 -3 -65 -21.5t-74 -20.5q-33 -4 -85 -23t-71 -37l-9 -9t-10 -11t-2 -8q8 -40 66 -47t119.5 9t85.5 37q21 17 33 45.5t13 55.5z" />
    <glyph glyph-name=".notdef" horiz-adv-x="450" 
 />
    <glyph glyph-name=".null" horiz-adv-x="0" 
 />
    <glyph glyph-name="nonmarkingreturn" horiz-adv-x="433" 
 />
    <glyph glyph-name="space" unicode=" " horiz-adv-x="450" 
 />
    <glyph glyph-name="exclam" unicode="!" horiz-adv-x="743" 
d="M546 708v3v1q1 2 1 3q9 13 30 73.5t35 67.5q9 5 20 3q24 4 47 -19t15 -44q-14 -32 -57 -84l-2 -5q-6 -11 -15 -18l-10 -16q-15 -22 -43 -61.5t-41 -58.5q-52 -81 -69 -116q-10 -20 -26 -65.5t-29 -71.5q1 0 1 -1.5v-5t-0.5 -7t-1.5 -9.5t-1 -10q-4 -38 -1 -44
q-7 -17 -36 -13q-28 -4 -39 13q-1 3 -2.5 8.5t-2.5 8.5q-3 11 7 19q18 85 91 201q26 39 54 92q63 134 75 156zM252 -77q-24 -15 -48 6q-21 1 -35.5 18t-4.5 37q1 1 6 5.5t6 6t6.5 5.5t8.5 6t9.5 5.5t12 5.5t13.5 4.5t17 4.5t20 3q13 2 34 -0.5t28 -2.5q12 0 16.5 -6.5
t-1 -14t-17.5 -9.5q-9 -1 -32.5 -34.5t-38.5 -39.5z" />
    <glyph glyph-name="quotedbl" unicode="&#x22;" horiz-adv-x="564" 
d="M355 525q-3 55 39 128q68 155 93 180q8 6 17.5 18t19.5 18q23 13 41 5t18 -31q-2 -10 -7 -20.5t-9 -17t-13.5 -19.5t-12.5 -18q-11 -21 -39.5 -50t-37.5 -40q-7 -10 -20 -33.5t-23 -35.5q-4 -6 -9.5 -21.5t-7.5 -19.5q2 -7 -6.5 -26t-16.5 -24l-2 -2q-20 -6 -24 9z
M230 599q8 17 31 68t38 77q6 39 22 62q26 24 40 29q22 3 35 -6t12 -29q0 -6 -16 -28.5t-36.5 -50t-26.5 -36.5q-3 -3 -11.5 -14t-18.5 -24t-17 -24q-12 -32 -17 -44l-4 -4q-11 -12 -22.5 -14t-15.5 6t2 23z" />
    <glyph glyph-name="numbersign" unicode="#" horiz-adv-x="1799" 
d="M1063 881q-1 -4 -3.5 -15.5t-4.5 -19t-6 -15t-9 -9.5q-5 -9 -19 -17t-20 -17l-57 -89q-57 -87 -69 -107q-16 -26 -46 -63.5t-40 -51.5q89 5 267 21l234 236q24 26 51 55t32 35t22.5 19.5t28.5 19.5l44 24q19 8 35 -1.5t11 -27.5q-5 -10 -6.5 -21t-4.5 -18
q-10 -27 -53 -96q-51 -88 -124 -198l37 4q118 12 164 10q46 -1 127 -11.5t111 -12.5q10 -3 12 -10.5t-4.5 -15t-18.5 -9.5q-25 1 -97 4t-111.5 4t-98.5 0q-29 -2 -80.5 -3t-68.5 -2l-31 -44q-27 -37 -76.5 -106t-63.5 -88l98 8q9 1 85.5 7t116.5 8q30 2 85.5 3t73.5 2
q22 1 66.5 5t67.5 5q10 0 30 0.5t31 0.5q7 0 17 -3t15 -3q20 0 9 -21q-15 -27 -37 -31q-16 -1 -34 9t-33 10q-30 -1 -103.5 -3t-127.5 -4.5t-104 -6.5q-73 -6 -289 -33q-36 -52 -73 -116q-134 -219 -189 -363q10 -8 16.5 -29.5t0.5 -31.5q-6 -7 -16.5 -21l-16.5 -22t-16 -19
t-20 -19q-26 -12 -31 8q-2 8 1 22t6.5 23.5t11.5 27t9 20.5q47 116 57 137.5t67 135.5q51 107 130 239q-63 -8 -122 -12q-39 -4 -115 -8l-9 -11q-16 -18 -65.5 -82t-77.5 -91q-8 -10 -25 -37t-30 -39q-27 -21 -57.5 -14.5t-38.5 30.5q-14 48 54 201l11 25q-14 -2 -42 -4
q-46 -11 -94 -16q-23 -1 -103.5 -26.5t-111.5 -29.5q-19 -1 -28.5 -2t-25.5 2.5t-23 5t-20.5 6t-18.5 5.5q-6 1 -7 2q-23 11 -16.5 33.5t34.5 33.5q197 30 482 50q53 115 95 196q-22 -2 -61 -4q-26 -8 -98 -25q-14 -9 -41 -4t-45.5 22.5t-9.5 36.5q14 18 35.5 27t37.5 10
t45 -0.5t38 -1.5l97 2l37 2q58 108 139 238q92 161 119 194q20 22 42 23q20 0 36.5 -8.5t16.5 -23.5zM915 229l147 11q50 81 154 239q-36 -1 -72 -6q-34 -5 -88 -14q-79 -79 -114 -121l-100 -114q22 1 73 5zM662 217q41 3 127 5l72 74q52 57 147 154q-149 -27 -225 -33
l-35 -4q-66 -105 -113 -198zM1163 569l-64 -67q94 10 141 14q91 139 139 235q-19 -3 -88 -60.5t-128 -121.5zM691 164l-85 -8q-7 -14 -8 -17q-3 -7 -8.5 -24t-10 -39t0 -38.5t19.5 -16.5q15 19 136 146z" />
    <glyph glyph-name="dollar" unicode="$" horiz-adv-x="1423" 
d="M1116 1028q4 23 30 34.5t50.5 5t26.5 -28.5q-3 -39 -20 -71q13 1 40.5 2t42.5 2q13 1 26.5 -3t30 -11.5t25.5 -10.5q16 -12 16 -35q-5 -10 -4.5 -25.5t-5.5 -24.5q-6 -16 -14.5 -24t-26.5 -8q-28 -2 -43.5 11t-8.5 33q3 5 -0.5 9.5t-9.5 9t-8 7.5q-8 17 -105 2l-8 -13
l-107 -164q-29 -44 -83.5 -115t-69.5 -92l-48 -66q75 -62 112 -87q48 -35 69.5 -54.5t47.5 -50t56 -60.5q28 -28 36 -54.5t3.5 -49t-19.5 -62.5l-6 -15q-1 -5 -16 -25q-70 -50 -125 -76q-217 -99 -529 -154q-1 -4 -2.5 -12t-1.5 -9q-14 -18 -23.5 -54.5t-1.5 -60.5
q8 -21 -0.5 -40t-18.5 -26q-10 -5 -27 -6t-25 5q-6 5 -8.5 11.5t-3.5 12t0.5 15t3 14t4.5 14t3 11.5q18 55 42 115q-97 -15 -207 -25q-199 -21 -248 13q-19 14 -27 26t-4.5 29.5t25.5 36.5q1 0 11.5 4.5t20.5 2t15 -18.5q-1 -6 5.5 -8.5t13 -3t9.5 -5t-3 -14.5
q-6 -12 0.5 -16t24.5 -7q6 0 9 -1q16 -2 48 -2t42 -1q47 -6 144 7q55 8 138 23q42 102 99 213q95 184 241 419q-62 39 -66 42q-60 42 -85.5 79t-15.5 100q4 28 19.5 54t44 50t49.5 39.5t58 38.5t48 30q45 28 178 68q70 21 97 27q23 50 20 74zM819 390l-13 11
q-78 -115 -150 -240q-36 -62 -111 -218q-17 -35 -57 -136q126 27 208 58q247 93 348 199q25 29 31.5 58t-4.5 54t-25.5 43t-33.5 34q-6 5 -32.5 31t-42.5 35q-19 13 -58 35t-60 36zM756 520l48 -37q58 93 176 279q2 2 17.5 23.5t33.5 48.5t31 52q-121 -17 -175 -42
q-111 -48 -147 -73q-58 -41 -68 -92q-5 -26 -0.5 -49t20.5 -44t29 -34t35 -32z" />
    <glyph glyph-name="percent" unicode="%" horiz-adv-x="1460" 
d="M489 758q-2 -2 -8 -6q24 -37 26 -85.5t-14.5 -92t-54.5 -77t-88 -40.5q-7 -1 -27.5 -5.5t-28 -5t-27.5 1.5q-142 37 -144 100q0 17 23 65q12 30 63 75.5t115 85.5q-15 13 -5 28.5t40 17.5h1q36 0 54 1q22 10 40 14q30 2 46 -7q215 19 536 91q23 5 60.5 15t60.5 16
t60.5 13.5t61.5 7t63 -2.5q33 -6 33 -30q-9 -36 -36.5 -76t-50 -63t-73.5 -68.5t-65 -59.5q-29 -28 -146.5 -112.5t-177.5 -135.5q-16 -14 -367 -302q-102 -84 -249 -274q-34 -76 -35 -92q-4 -31 -13 -46q-10 -17 -32.5 -24.5t-43.5 -6.5q-17 5 -20 17q1 17 7 36t18.5 41
t23 38t31 41t29.5 36t32 37t27 30q159 173 486 458q51 44 170 141t161 137q7 7 42.5 37t62.5 54t50 53.5t21 45.5q-2 14 -11 16.5t-31 -2.5q-25 -6 -68 -7t-67 -7q-177 -39 -521 -88l-16 -3q0 -1 -1 -3q-12 -19 -23 -28zM856 -26q-35 77 66 205q-26 -5 -65 -14q-4 -2 -16 -7
t-21 -10l-10 -4q-16 -25 -50 -13q-25 9 -26 26q-1 13 16 21q31 16 117 30q61 13 125 10.5t116 -14.5t80 -48t17 -92q-5 -28 -40 -60.5t-82 -54t-97 -27.5t-85 19q-3 2 -13.5 8.5t-19 13t-12.5 11.5zM397 731l-6 6q-82 -36 -139 -80q-50 -41 -70 -69q-23 -32 25 -55
q51 -23 107 -11l11 3q54 18 86.5 65.5t24.5 92.5q-1 7 -6 14t-9 11.5t-12.5 12t-11.5 10.5zM1020 157q-8 -20 -32 -27q-60 -47 -74 -73q-6 -11 -9.5 -20.5t-2.5 -19t2 -13.5t5.5 -15t4.5 -12q7 -12 27 -11.5t48 14t54.5 30.5t47 37.5t23.5 35.5q12 48 -16 73.5t-82 28.5
q5 -8 5 -20q1 -1 -1 -8z" />
    <glyph glyph-name="ampersand" unicode="&#x26;" horiz-adv-x="1811" 
d="M1094 742q-78 -75 -185 -151q-2 -82 25 -180q21 -87 89 -207q43 -75 121 -153q126 33 167 46q10 4 38.5 13.5t45.5 15.5t47 15.5t51.5 15.5t50.5 13.5t52.5 11.5t49 7t48 2.5t42.5 -3.5q13 -5 13 -21q-1 -10 -29 -32q-7 -7 -21.5 -11t-29 -6t-16.5 -3q-3 -1 -5.5 3
t-6 9.5t-18 9.5t-38.5 3q-158 -31 -290 -77l-25 -12q-35 -14 -90 -34q77 -67 158 -111q17 -9 42 -2.5t43 0.5q21 -11 24.5 -39.5t-12.5 -52t-45 -21.5q-19 6 -36.5 15t-37 21t-32.5 19q-91 49 -174 148q-66 -21 -140 -43t-168 -48.5t-138 -39.5q-159 -51 -239 -65
q-37 -6 -102 -29t-104 -26q-148 -12 -226 73q-12 13 -13 31.5t8 39.5t22.5 43t33 45t37 42t36.5 37t30 28.5t20 17.5q122 109 385 301.5t293 215.5l3 2q-1 16 0 31q4 94 30 167t88 129q23 21 64 39t86.5 23.5t77.5 -17.5q21 -15 23 -48t-28.5 -87.5t-94.5 -113.5zM419 -152
q40 4 83 13t66 15t80.5 23t73.5 22q102 49 355 113q-85 114 -145 256t-78 263q-39 -26 -150 -98t-171 -114q-49 -36 -100 -80.5t-115.5 -104t-92.5 -84.5q-26 -24 -68 -87.5t-42 -107.5q0 -24 21.5 -36t68.5 -19q41 -6 116.5 9t97.5 17zM971 800q-31 -51 -50 -124
q81 65 117 96q35 30 54 47t39.5 40t30.5 42q8 12 -6.5 27.5t-26.5 16.5q-35 0 -80 -45t-78 -100z" />
    <glyph glyph-name="quotesingle" unicode="'" horiz-adv-x="406" 
d="M353 619q8 13 16 27.5t17.5 32t14.5 27.5q6 52 32 83q11 9 17 10q28 7 47 -11q3 -5 4.5 -10t0.5 -10.5t-1.5 -9.5t-4 -11.5t-5 -10t-7 -11t-6.5 -10.5q-19 -29 -44 -57l-31 -34q-8 -12 -20 -32q-6 -13 -12 -17q5 -9 -2 -20q-2 -4 -11 -11l-6 -1.5t-3 0t-1.5 1.5t-2 3.5
t-3.5 4.5q0 2 -3 9.5t-3 8.5q0 25 17 49zM342 552v1v-1z" />
    <glyph glyph-name="parenleft" unicode="(" horiz-adv-x="833" 
d="M864 930q-2 -1 -12.5 -3.5t-19.5 -5.5t-23 -9.5t-25 -15.5q-24 -29 -79.5 -76.5t-94.5 -102.5q-11 -15 -39 -47.5t-40 -49.5q-14 -20 -26 -42t-27.5 -51.5t-22.5 -42.5q-46 -86 -83 -184q-43 -119 -71 -237q-18 -76 -14 -170q1 -20 9 -51t8 -48q15 -17 28 -43.5t13 -34.5
q-7 -52 -26.5 -79.5t-42 -13.5t-36.5 75q-33 140 6 330q20 96 87 269q69 175 113 252q12 22 23.5 41.5t20 33.5t20.5 33t18 28t21.5 30.5t20.5 29t25 35.5t27 38q54 80 149 168q47 41 88 59q20 6 40.5 -1.5t31.5 -19.5q9 -13 -8 -38q-6 -8 -26.5 -27.5t-32.5 -28.5z" />
    <glyph glyph-name="parenright" unicode=")" horiz-adv-x="833" 
d="M547 876l-3 4q-23 6 -48 26.5t-26 39.5l5 19q8 28 36 42q39 9 72 -27t51 -90.5t27.5 -99.5t9.5 -63q0 -12 2 -49.5t1.5 -61.5t-5.5 -46q-28 -137 -31 -148q-60 -218 -116 -293q-18 -24 -46.5 -72.5t-43.5 -69.5q-127 -173 -200 -252q-44 -45 -128.5 -112.5t-123.5 -79.5
q-15 -3 -28 6q-3 15 0.5 28t11.5 29t11 25q6 24 53 10q11 10 60 47t74 67q15 17 67 73.5t78 87t64 81t63 95.5q10 18 54 92.5t64 114.5q39 80 64 200q23 113 9 207q-3 28 -12 54t-17 40t-25.5 40t-23.5 36z" />
    <glyph glyph-name="asterisk" unicode="*" horiz-adv-x="774" 
d="M167 540l30 36q5 3 25.5 -0.5t39.5 1.5l6 3h3q18 5 39 16t47.5 28t35.5 22q13 8 37.5 25.5t27.5 19.5l21 14q-63 0 -93 -1q-10 -2 -24.5 -4t-23.5 -3t-11 -2q-17 -1 -36.5 -3.5t-33 -5.5t-25.5 -6t-13 -3q-14 0 -21 1.5t-14 5.5t-13 6q-2 1 -2 2l-6 2q-25 6 -25 26
q-1 11 23 34t43 26h5q4 0 5 -1q18 -2 42 -7t55 -5q35 0 99.5 -10.5t93.5 -12.5l4 8q16 32 36 67q48 78 81 95q18 11 20 11q3 0 20 -1q39 -4 37 -24q-4 -26 -19.5 -50.5t-28.5 -35.5q-45 -52 -50 -56l-22 -18q28 -1 59.5 -5t70.5 -9.5t56 -7.5q67 -8 116 -21q11 -2 53 -13
q19 -5 8 -22q-13 -20 -34 -16q-8 1 -17.5 11.5t-16.5 11.5q-162 31 -206 35q-12 1 -128 1q-24 -20 -38 -30q-12 -94 12 -161q4 -12 42 -99h8t7 -0.5t5.5 -2.5t4.5 -7q7 -16 10 -20q9 -15 2 -29t-22.5 -15.5t-33.5 13.5q-30 23 -54 123q-5 20 -12 63.5t-7 44.5q-7 30 3 69
q-14 -9 -42.5 -32.5t-33.5 -27.5q-104 -81 -163 -109q-27 -11 -45 4q-14 11 -20 15l-1 2q-5 15 2 34z" />
    <glyph glyph-name="plus" unicode="+" horiz-adv-x="884" 
d="M291 257q8 -5 80 -13q12 1 35 1l22 44q15 29 32 83.5t29 79.5q7 10 13 15q25 15 59 4q22 -7 21 -23q-1 -12 1 -23.5t2 -12.5q-5 -14 -22 -46q-11 -20 -28.5 -45t-18.5 -26l-2 -2l-27 -44q31 1 76.5 3t73.5 3t43 1q11 0 46 1t54 1t43.5 -5.5t37.5 -16.5q13 -9 3 -24
l-7 -10q-15 -12 -31 -10t-21 15q-16 6 -32 6q-11 0 -35 4t-37 3q-37 -2 -78 -7t-94 -12t-78 -10q-118 -187 -189 -237q-21 -9 -35 3q-4 6 -6 8q-9 18 5 33t40 17q27 26 71 94q19 31 40 74q-2 0 -18.5 -1.5t-24.5 -1.5q-9 0 -54 -2.5t-71.5 -3t-61.5 2t-53 10.5q-42 34 9 62
q28 16 64.5 19.5t58 0t65.5 -11.5z" />
    <glyph glyph-name="comma" unicode="," horiz-adv-x="447" 
d="M-54 -293q3 15 11.5 32.5t16.5 29.5t26.5 32.5t26.5 28.5t32.5 32t29.5 29q3 7 26.5 35t27.5 39l6 18l6 18t6 13.5t8 11.5q29 17 41 16q45 -11 45 -40q-9 -27 -30 -51.5t-56 -53.5t-46 -40q-9 -9 -24 -21.5t-25 -24.5q-12 -13 -41.5 -42.5t-36.5 -38.5l-28 -44
q-12 -19 -20 -3q-5 11 -2 24z" />
    <glyph glyph-name="hyphen" unicode="-" horiz-adv-x="849" 
d="M529 177q-36 -2 -104 -12.5t-94 -12.5q-10 -3 -35 -8t-43.5 -9t-21.5 -6q-112 -52 -145 14q-3 25 19 43q19 13 50 19t53 7t61.5 0.5t48.5 -0.5q167 10 257 6q21 -1 72 -0.5t73 -1.5q8 0 9 -3q2 0 4.5 -1.5t3.5 -1.5q20 -11 21 -30q1 -12 -12 -14h-2l-22 -2l-4 2
q-3 1 -6 1q-7 0 -26.5 2t-36 4t-17.5 2q-16 2 -103 2z" />
    <glyph glyph-name="period" unicode="." horiz-adv-x="593" 
d="M218 73h1q1 1 3 1h3q27 8 70 -1t48 -31q5 -12 -5 -13q-1 -1 -5 -1l-5 -1q-6 -1 -48 -10q-36 -45 -79 -45q-33 4 -45 25q-10 24 10.5 44.5t51.5 31.5z" />
    <glyph glyph-name="slash" unicode="/" horiz-adv-x="983" 
d="M1243 817q-55 -30 -90 -46q-17 -15 -46.5 -41t-41.5 -36q-24 -20 -148.5 -114.5t-173.5 -136.5q-100 -86 -172 -158q-20 -21 -64.5 -69t-66.5 -69q-132 -132 -188 -205l-15 -37q-13 -17 -26.5 -34t-26.5 -33q-22 -16 -44 -6q-3 2 -7 8t-5 8q-15 20 27 76q105 141 598 592
q185 173 350 308q6 5 35.5 29.5t42 34t36.5 26t45 27.5q33 10 54.5 -1t21.5 -35q-13 -25 -95 -88z" />
    <glyph glyph-name="zero" unicode="0" horiz-adv-x="1366" 
d="M168 111q5 59 24 120q-24 11 -63 44q-47 38 -76 90t-29 107q0 86 75 153q18 15 49 46t57 53.5t54 38.5q21 11 65 36.5t78.5 44t66.5 31.5q265 117 523 126q114 4 157 -8q18 -5 52 -13t44 -10q80 -21 152 -86q18 -17 31.5 -40.5t26 -53.5t21.5 -45q2 -3 0 -18
q-1 -11 -3.5 -37t-4.5 -39.5t-6.5 -34.5t-11.5 -39q-18 -48 -41 -89.5t-63.5 -90.5t-61 -71.5t-78.5 -84.5q-27 -29 -89 -77t-87 -72q-29 -27 -62.5 -49.5t-88.5 -53t-68 -38.5q-122 -72 -224 -90l-177 -31q-68 -9 -124 19q-52 29 -73 63q-57 79 -45 199zM484 546
q-3 -14 -32 -45.5t-58 -51.5q-82 -102 -106 -140q-2 -5 -11.5 -22t-14.5 -28q6 -8 -1 -21l-6 -9q-5 -5 -10 -7q-35 -80 -33 -135v-20.5t0.5 -24t2.5 -21t5 -19.5q36 -86 194 -77q236 16 534 195q238 142 360 305q59 75 68 115q1 5 9.5 29.5t12.5 48.5q9 50 -7 101
q-19 58 -70 102q-77 70 -200 97q-14 3 -80 13q-85 12 -134 3q-33 -6 -93 -14.5t-109.5 -17.5t-91.5 -22q-152 -47 -321 -157q-70 -47 -126.5 -118t-62.5 -138q-5 -67 7 -103.5t52 -70.5q8 -6 24.5 -11t20.5 -7q10 25 12 29q1 2 12.5 27.5t25 51.5t29.5 51q109 174 162 181
q45 0 54 -33l-13 -26l-2 -2q-3 -6 -3 -8z" />
    <glyph glyph-name="one" unicode="1" horiz-adv-x="1038" 
d="M237 673q49 14 50 14q23 11 51 16.5t51 17.5q256 134 324 166q7 3 31.5 14.5t33.5 15.5l31.5 14t34.5 14.5t32.5 11.5t35.5 10.5t34 7t37 4.5q47 0 52 -27q7 -47 2 -60q-19 -51 -72 -153q-31 -57 -127.5 -196t-115.5 -168q-22 -35 -67 -96.5t-66 -93.5q-57 -85 -125 -218
l-47 -94q-6 -14 7 -49t-3 -57q-4 -8 -19.5 -13.5t-29.5 -3.5q-15 2 -26.5 12t-13.5 18q1 16 8 33q4 5 9 8q1 5 5.5 25t8.5 30q5 16 47 103q21 41 44 83.5t51.5 90t48 79t55.5 88t51 80.5q7 10 65 100t85.5 135t63 115.5t45.5 115.5l1 13q-12 9 -62.5 1.5t-87.5 -25.5
q-16 -8 -47 -20t-46 -19q-14 -7 -41 -25t-41 -25q-8 -5 -27 -13t-28 -14q-31 -19 -90 -58.5t-106.5 -68t-93.5 -47.5q-40 -8 -52 34t20 63v1q1 0 3 1z" />
    <glyph glyph-name="two" unicode="2" horiz-adv-x="1334" 
d="M293 600q0 -2 1 -3q9 -20 -4 -51.5t-38 -42.5q-58 -11 -78.5 23t5.5 96q17 47 85 100.5t124 78.5q18 9 54.5 32t69.5 36q317 123 577 134q159 9 230 -14q92 -28 98 -104q2 -8 0 -17.5t-7 -22.5t-6 -18q-6 -23 -16.5 -45.5t-28 -46t-32 -42t-40.5 -43t-40 -38t-45 -38.5
t-41.5 -33t-42.5 -32.5t-36 -27.5q-280 -215 -519 -360q-116 -70 -268 -145h83q19 0 126 1t179.5 0t124.5 -4q154 -5 262 -32q67 -18 83 -28q41 -25 -6 -69q-16 -13 -36 9.5t-8 37.5q-9 -2 -14 0q-18 6 -34 8q-7 2 -27 11t-33 11q-10 2 -82 8q-103 10 -342 -7
q-177 -14 -335 -39q-55 -11 -126.5 -28t-115.5 -26q-4 -1 -22.5 -5.5t-29 -4t-20.5 6.5q-22 22 1 47q-1 3 -1 7q9 24 36 44.5t47 26.5q23 5 62 6t51 2q14 3 37 7q78 30 115 50q293 141 503 295q42 30 90 69t107.5 88.5t89.5 73.5q15 12 56 43.5t62 50t52 49t51 62t33 67.5
q-1 6 4 18t3 17q-6 30 -40 53t-78.5 34.5t-82 16.5t-61.5 5q-114 -6 -176.5 -17t-137.5 -41q-17 -7 -56 -23.5t-63 -26.5q-113 -45 -164 -76q-17 -10 -36 -25t-31 -25.5t-39.5 -35.5t-39.5 -36q-8 -7 -15 -23t-8 -29z" />
    <glyph glyph-name="three" unicode="3" horiz-adv-x="1240" 
d="M834 939q-106 -19 -113 -21q-16 -4 -66.5 -22t-78.5 -24q-4 -3 -32 -9.5t-39 -11.5q-18 -9 -38.5 -22t-32.5 -21t-17 -8q-41 0 -64 35q-10 15 4 38.5t39 35.5q16 8 46 13.5t65 8.5t36 3q214 36 246 40q22 3 217 19q4 0 24 2t29 2h25t28 -2t22 -7q6 -2 12 -6t9.5 -7t9 -9
t8.5 -8q21 -21 -5 -45q-67 -48 -202 -117.5t-185 -99.5q-42 -25 -86.5 -64t-69.5 -79q-10 -13 -1 -30.5t30 -24.5q41 -12 118 -27t90 -18q68 -15 123 -36t98.5 -52.5t62.5 -68.5t8 -86.5t-57 -105.5q-23 -27 -53.5 -51.5t-74 -48.5t-71.5 -37.5t-82.5 -38t-68.5 -31.5
q-151 -71 -317 -101t-378 -41q-89 -5 -169 36q-26 14 -50 32t-47 42.5t-35 48.5t-7.5 51.5t30.5 51.5q8 6 49 28q15 5 15 -12q0 -9 -6 -19q-1 -3 -42 -65q5 -36 45.5 -75.5t77.5 -48.5q97 -25 143 -27q138 -5 331 46t369.5 138.5t264.5 179.5q161 169 -143 243
q-54 13 -147.5 26.5t-115.5 18.5q-52 12 -81.5 35t-24.5 62q2 15 19 34.5t39 37t52 37.5t51.5 33t45.5 27t27 16q49 31 153.5 89.5t154.5 89.5q-12 3 -33.5 20t-35.5 16q-18 -1 -48.5 -1t-54.5 -1.5t-45 -5.5z" />
    <glyph glyph-name="four" unicode="4" horiz-adv-x="1396" 
d="M1313 240q13 -18 3.5 -38.5t-36 -34t-48.5 -4.5q-6 0 -17.5 5t-13.5 5q-27 3 -53 3q-25 0 -81.5 7t-95.5 4q-28 -3 -68 -1q-106 -204 -138 -330q-2 -4 -4 -14l1 -10q1 -11 1.5 -24t0.5 -29t-1 -29.5t-4.5 -23t-8.5 -10.5q-17 -3 -32.5 6t-19.5 22l-1 1q0 2 -0.5 5.5
t-0.5 5.5q-1 5 6 21q4 38 9 55q9 32 27 77t44.5 108t32.5 77q4 10 35 93q-64 0 -113 -5q-74 -8 -161.5 -23.5t-183 -35.5t-132.5 -27q-50 -10 -80.5 -14.5t-82 -9t-84 4t-44.5 29.5q-3 14 -4 25t10.5 27.5t20.5 29t27.5 29t32 28t33 25.5t31 22t25.5 17t16 11
q120 79 249 156t305 176t256 146q140 87 262 155q8 5 21 18t24.5 24t25 20t29 8t31.5 -13q37 -31 -33 -133q-4 -5 -5 -7q-25 -45 -81.5 -123.5t-71.5 -102.5l-75 -117q-15 -27 -48 -81.5t-35 -58.5q-1 -2 -30 -52.5t-53 -93.5l131 7q16 1 79.5 9.5t105 5.5t65.5 -23z
M346 176q181 34 526 61q24 54 53.5 109t49.5 88.5t68.5 110.5t74.5 120l93 154q11 17 16 38t-6 30q-9 -5 -97 -49.5t-130 -70.5q-373 -222 -496 -303q-36 -23 -108 -75t-109 -77q-22 -15 -69.5 -55t-64.5 -53q-5 -6 -12.5 -16.5t-10.5 -13.5q92 -26 222 2z" />
    <glyph glyph-name="five" unicode="5" horiz-adv-x="1344" 
d="M443 863q79 31 163 40q414 87 670 64q28 -2 48 -5t35.5 -4.5t31.5 -6.5t23.5 -6.5t25.5 -11t23.5 -12.5t30.5 -17.5t35 -20.5q9 -6 10 -9q3 -7 17.5 -22t17.5 -25q3 -8 2 -23.5t1 -22.5q5 -14 -15 -16q-29 -1 -45 17l-2 3q-5 15 -3 24t0.5 20t-11.5 21q-56 56 -158 70
q-30 4 -66 4.5t-62 -1t-61 -4.5t-48 -4q-71 -4 -290 -41l-71 -10l-49 -14q-111 -37 -142 -54q-9 -5 -21.5 -11t-17.5 -9t-10.5 -8.5t-9.5 -14.5q-1 -1 -7 -13t-8 -16.5t-5.5 -15.5t-3 -18t3.5 -17t10 -18q13 -17 39.5 -34.5t66.5 -41t55 -32.5q16 -11 52.5 -33.5t48.5 -31.5
q35 -23 54.5 -36l34.5 -23t30 -22t23.5 -19t34.5 -28.5t45 -37.5q26 -22 47 -52.5t16 -56.5q-1 -7 -4 -30t-7 -38t-13 -27q-6 -9 -12.5 -17t-15.5 -16t-15.5 -14t-19 -14.5t-18 -12.5t-20.5 -13t-19 -11.5t-21 -12t-19 -10.5q-171 -93 -344 -140q-15 -4 -77 -21t-104 -25
q-138 -24 -249 -34q-185 -17 -276 3q-12 3 -47 27q-14 9 -12 25q7 10 19 26t16 21q8 11 22 11.5t20 -6.5q2 -2 1 -9.5t2 -11.5q5 -5 18 -11t19.5 -11t2.5 -10l17 -3q17 -2 40 -7q13 -3 27.5 -3.5t42.5 1t40 1.5q54 0 77 2q201 20 227 25q155 27 357 137q141 80 217 179
q31 36 31 79t-30 72q-29 31 -44 46t-40 36.5t-49 36.5q-133 81 -157 94q-7 4 -49.5 23t-61.5 31q-9 6 -37.5 23t-43 28t-21.5 21q-16 22 -23 46q-7 31 -0.5 54t27.5 57q1 38 26 47q3 5 11 12z" />
    <glyph glyph-name="six" unicode="6" horiz-adv-x="1449" 
d="M1430 953q1 -21 -4.5 -32t-25.5 -18q-15 -7 -40 -7t-32 11q-3 4 -17.5 5t-19.5 3q-4 2 -13.5 7t-19.5 6.5t-30 1.5l-14 -2q-24 -1 -53 -9.5t-59.5 -20t-38.5 -13.5q-143 -44 -255 -101t-234 -145q-23 -14 -124.5 -101t-132.5 -120q-108 -124 -150 -191q-85 -137 -65 -249
q14 -78 86 -119.5t154 -44.5q213 -10 436 57q187 57 321 151q31 19 62.5 71.5t18.5 97.5q-9 35 -16 44q-21 29 -96 57q-19 7 -39 11.5t-44.5 7t-36 3t-41.5 1.5t-34 1q-57 2 -209 -24q-22 -4 -58 -8.5t-60.5 -9.5t-45.5 -13q-34 -13 -91 -30.5t-85 -30.5l-12 -12l-27 -21
q-19 -6 -28.5 -22.5t-11 -32t-11 -26t-29.5 -7.5q-2 0 -4 1h-2q4 3 -2 11q-15 17 -14 22q1 10 5.5 19t7 13t16.5 17.5t19 18.5q23 23 59 38q3 2 10 5.5t10 5.5q122 75 301 121q18 5 36.5 8.5t40 5.5t35.5 3.5t40 2.5t36.5 1.5t41.5 1t39 0.5q53 2 101.5 -1t105 -15t98 -33
t70 -60t31.5 -92q1 -24 -22 -56t-48 -54t-54 -45l-30 -23q-63 -61 -242.5 -126.5t-287.5 -84.5q-7 -1 -39 -7t-42.5 -7.5t-37.5 -6t-41.5 -5.5t-37 -2t-41.5 0.5t-38 4.5q-130 25 -189 46.5t-82 45.5t-43 78q-9 23 2.5 109t23.5 111q38 85 115 177t174 175t191.5 151.5
t192.5 128.5q122 80 188.5 113t195.5 77q17 6 49 17t42.5 14t32 8.5t40 6.5t43.5 0q19 0 33 -2t33 -7t26 -7q11 -1 23.5 -15.5t14.5 -28.5z" />
    <glyph glyph-name="seven" unicode="7" horiz-adv-x="1314" 
d="M169 360q17 1 88 -1.5t82 -2.5h4q36 2 127 -1t136 1l120 7q70 62 224 187q26 21 49 42.5t49.5 48.5t44.5 44q21 18 37.5 38t34.5 45t30 40q29 47 14.5 76t-60.5 40q-36 8 -113.5 10t-146.5 -5q-155 -17 -284 -54q-93 -28 -201 -53q-18 -8 -51 -25t-53 -26.5t-28 -9.5
q-4 1 -22.5 2t-29 3.5t-19.5 7.5q-8 2 -13 8q-11 2 -7 17q0 14 12 26q2 4 12 20q30 38 134 36q16 -1 37 4q25 8 30 7q41 11 93 21q14 2 71 12t67.5 12t56 9.5t59 9t51 6.5t58 6.5t55.5 4t67 4t69 2.5q22 5 125 1.5t122 -22.5q6 -6 20.5 -14t20.5 -14q8 -5 9 -26t-5 -31
q-5 -8 -21.5 -32.5t-25.5 -41.5q-23 -44 -132.5 -138t-178.5 -144q-108 -85 -185 -151q143 6 300 11q125 6 171 -3q58 -13 70 -44q0 -2 -5.5 -3.5t-14.5 -2t-20 1.5q-32 13 -177 11q-13 0 -33.5 4.5t-29.5 4.5q-10 1 -20.5 1t-18.5 -0.5t-14 -0.5h-10l-4 -1
q-17 -2 -86 -11.5t-113 -12.5l-53 -5q-112 -97 -268 -257q-96 -104 -139 -155l-2 -4q-4 -6 -31.5 -63.5t-40.5 -79.5q-17 -26 -36.5 -37.5t-20.5 -12.5q-11 -11 -24 -6.5t-12 18.5q11 27 25 54t36 58t36 51t45 56.5t41 49t47 53.5t42 47q118 125 223 220q-38 -4 -139.5 -16
t-136.5 -15q-43 -8 -93 -11q-35 -11 -85.5 -12.5t-76.5 6.5q-32 4 -37 29v3q2 16 27.5 41.5t44.5 26.5z" />
    <glyph glyph-name="eight" unicode="8" horiz-adv-x="1412" 
d="M465 634q-2 17 5 26q23 22 47 22.5t48 -26.5q4 -16 5.5 -27.5t2 -25t1.5 -23.5q0 -7 16 -36t18 -38q6 -34 28 -62q62 -75 127 -143q0 -1 0.5 -1t0.5 -1q11 6 80 47q188 115 267 178q36 29 131 108q69 53 112 118t30 124q-5 32 -36.5 56.5t-83.5 34.5q-86 18 -221 19.5
t-164 -5.5q-203 -19 -352 -72q-27 -9 -46.5 -17t-41 -20t-30.5 -18t-37 -25.5t-40 -27.5q-18 -13 -38 -44.5t-25 -56.5q-3 -10 -8.5 -19.5t-5.5 -14.5q-18 -15 -49 2.5t-26 36.5q4 5 3 24.5t14 30.5q12 12 27.5 24.5t33 26t23.5 18.5q50 40 94 61t133 49q171 56 342 74
q67 7 117 11t121.5 7t127.5 -3t113.5 -18t102 -38t72.5 -63q12 -15 13 -35t-9 -42.5t-25 -45t-38 -47t-44 -45.5t-47 -43t-43.5 -36t-36.5 -29q-25 -19 -82.5 -59.5t-84.5 -62.5q-4 -3 -51.5 -28.5t-52.5 -28.5q-78 -61 -214 -135q41 -52 67.5 -105.5t26.5 -114.5t-43 -101
q-8 -7 -24.5 -25t-32 -31t-34.5 -22q-109 -53 -209 -84t-201 -23q-116 13 -154 86q-14 30 6 63.5t73 80.5q28 24 62 48t72.5 47.5t44.5 27.5q33 21 72.5 44t66 38t72 39.5t65.5 35.5q-14 21 -31 43t-39.5 49t-32.5 40q-9 13 -26.5 31.5t-25.5 27.5q-100 126 -99 169z
M789 107q-3 59 -49 135q-71 -41 -137 -91l-177 -135q-53 -40 -88 -82t-34 -66q6 -49 42 -60q33 -9 71.5 -7t69.5 9q83 15 161 64.5t115 105.5q14 21 20.5 44t6.5 42t-1 41z" />
    <glyph glyph-name="nine" unicode="9" horiz-adv-x="1366" 
d="M1345 722q14 -8 20 -27q81 -89 -186 -439q-108 -142 -288 -278t-354 -185q-63 -18 -125.5 -28.5t-103 -14t-108.5 -7.5q-93 -5 -175 36q-20 11 -34.5 19.5t-32.5 21t-30 24.5t-23 28t-15.5 33t-4.5 38.5t7 44.5q2 7 25 45q10 8 13 3.5t5 -20.5l2 -9q2 -9 4 -22t2 -23
q-4 -54 -5 -61q3 -21 14 -36q26 -34 101 -52q98 -25 147 -27q143 -6 321 66q157 63 324.5 190.5t261.5 233.5q68 77 127 187q3 10 12 29q21 44 32 88q10 45 -6 72.5t-48 34.5t-65.5 4.5t-65.5 -12.5q-38 -11 -74.5 -24t-79.5 -32t-65.5 -29t-77.5 -37t-71 -34
q-21 -10 -85 -41.5t-109 -51.5t-90 -37q-34 -12 -75 -23t-95.5 -20.5t-93.5 0t-45 41.5q-3 19 0 38.5t15 41t22.5 38t31.5 39.5t32 34t35 34.5t30 28.5q143 140 347 247q49 26 140 59t140 42q123 26 214 10q36 -7 61.5 -24t26.5 -42q1 -6 5 -11.5t5 -8t-3 -12.5q-4 -9 1 -21
t-2 -21q-11 -17 -36.5 -28t-49.5 -11q-18 0 -27.5 18t-3.5 34q11 18 -6 48q-11 20 -57.5 24.5t-93 -1t-77.5 -14.5q-12 -4 -48 -14.5t-55.5 -17t-54 -20t-70 -31.5t-76.5 -42q-15 -9 -29 -18t-29.5 -20.5t-26 -19t-27 -22t-23.5 -20t-25.5 -23t-22 -21t-24 -23t-21.5 -20.5
q-24 -25 -56.5 -86t-23.5 -94q5 -13 57 -13q64 7 96 16.5t97 37.5q38 16 139.5 56.5t158.5 65.5q52 23 95 45t77.5 37t96.5 37l36 13.5t31 11.5t14 4q79 10 100.5 5.5t76.5 -35.5z" />
    <glyph glyph-name="colon" unicode=":" horiz-adv-x="593" 
d="M308 334q20 27 53 20q18 5 33.5 -7t14.5 -32q-2 -6 -2 -9l-6 -10v2v-2v-2v1q-4 -13 -19 -15q-5 -3 -23 -17t-32 -21t-29 -7q-32 3 -33 28q1 31 40 64q0 4 3 7zM161 55q3 2 10 8t13 9.5t10 3.5q8 3 23.5 4t23.5 3q30 0 35.5 -18.5t-20.5 -32.5h-1l-1 -1l-5 -3
q-15 -15 -26 -21l-3 -2l-5 -3q-1 0 -1 1l-11 -6q-34 -7 -49 12t2 42z" />
    <glyph glyph-name="semicolon" unicode=";" horiz-adv-x="625" 
d="M188 43q3 20 25 31t46.5 7t33.5 -21q0 -1 5 -13t1 -19q-5 -10 -29 -34.5t-32 -34.5q-21 -27 -79 -92q-10 -12 -34 -30.5t-29 -23.5q-7 -10 -14 -10.5t-9 7t3 18.5q4 8 43.5 61.5t58.5 85.5q7 11 10 23.5t2.5 20t-1.5 15.5t-1 9zM358 312q3 0 10.5 1t11.5 0q47 27 91 -2
q13 -12 8 -25t-25 -20l-75 -41l-5 -4l-5 -5l-12 -9q-23 -8 -34 12.5t-7 45.5q1 14 14 28t28 19z" />
    <glyph glyph-name="less" unicode="&#x3c;" horiz-adv-x="1034" 
d="M786 400q8 3 38.5 14.5t52.5 18t43 6.5q11 5 26 0q7 -1 11 -5q26 -22 -4 -59t-65 -32v1h-1q-36 -9 -103.5 -18t-110.5 -22q-30 -9 -121 -32t-133 -39q-22 -8 -47 -21t-36 -18q-21 -9 -47.5 -27t-31.5 -27q-8 -14 -10 -21t3 -13.5t20 -12.5q53 -24 72 -29l76 -20l126 -35
q4 -1 34.5 -8.5t44 -12.5t30 -19.5t18.5 -34.5q0 -19 -13.5 -22t-21.5 14q-1 8 -34.5 23t-58.5 21q-16 4 -128 20.5t-194 43t-105 68.5q-10 25 10 45q48 48 142.5 88t241 82.5t160.5 47.5z" />
    <glyph glyph-name="equal" unicode="=" horiz-adv-x="1062" 
d="M678 84q-159 0 -366 -30q-4 -1 -15 -4t-22.5 -6.5t-21.5 -7.5q-73 -29 -74 -29l-31 4l-11 9q-36 4 -44.5 27t18.5 43q30 12 128 22q187 22 305 19q203 -6 290 -19h1q21 -6 17.5 -26t-27.5 -23q-4 0 -16 5t-21 3q-11 0 -17 6q-51 7 -93 7zM775 270q-187 2 -292 -8
q-1 -4 -8 -7q-3 -2 -59.5 -9t-59.5 -8h-9.5h-12.5h-11q-36 4 -44.5 26t18.5 42q22 10 62.5 15t78.5 6t97.5 -1.5t91 -5t88.5 -7.5t62 -5q3 0 27 -0.5t42 -2t36.5 -8.5t21.5 -19q7 -17 -9.5 -24.5t-29.5 4.5l-2 1q-9 1 -24 1q-10 0 -31.5 5t-32.5 5z" />
    <glyph glyph-name="greater" unicode="&#x3e;" horiz-adv-x="952" 
d="M301 365q14 0 23 -6q25 -2 183 -31q101 -18 131 -29q9 -3 32.5 -10.5t40 -13.5t29.5 -14q8 -4 17.5 -11t14 -11t16.5 -15.5t13 -12.5l9 -5q10 -6 14.5 -11t3.5 -9q0 -8 4 -22.5t4.5 -21.5t-5.5 -23q-8 -15 -30 -32t-45.5 -29.5t-59.5 -28t-58 -23.5t-56 -20t-40 -14
q-22 -8 -64 -20t-60 -18q-14 -5 -57 -22.5t-66 -24.5q-20 -6 -59.5 -15t-59.5 -16q-35 -12 -102 -39t-92 -36v1q-12 -11 -22.5 -5t-3.5 21q4 4 16 11t27.5 14t29.5 12.5t26 10.5t13 5q19 8 54 20.5t45 16.5q55 21 139.5 50t153.5 54.5t138 57.5q42 20 74.5 41t54 45t15 47.5
t-44.5 42.5q-19 11 -90 26q-22 6 -70 9t-64 6q-55 10 -129 -3q-11 -2 -35 -8t-42 -9t-34 -2q-14 3 -16.5 27t5.5 44q8 28 39 43q5 5 19 5q4 0 11 0.5t10 0.5z" />
    <glyph glyph-name="question" unicode="?" horiz-adv-x="1078" 
d="M153 -81q16 22 71 34l18 5q19 3 38 -1q34 -7 34 -13q1 -12 -29 -22l-13 -11q-14 -11 -32.5 -26.5t-24.5 -20.5q-1 -1 -7.5 -8.5t-13.5 -14t-17 -12.5t-22 -6t-23 8q-10 10 -11 19q-1 1 -2.5 9t-0.5 11v1l1 1q0 2 2 6q4 13 32 41zM532 745l-49 -36q-3 -3 -22 -23.5
t-25 -29.5q-32 -45 -48 -46l-51 2q-27 7 -23 60q6 20 21 38.5t27.5 27.5t41 26.5t37.5 23.5q70 46 166 82q81 29 97 32q118 23 266 33q51 3 101 -6t93 -38t51 -75q5 -29 -5.5 -55.5t-33.5 -48.5t-43.5 -36.5t-49.5 -30.5q-23 -14 -53 -28.5t-74.5 -33.5t-56.5 -25
q-137 -63 -165 -75q-60 -26 -130 -64q-57 -31 -160 -106q-16 -11 -32.5 -23t-23 -16.5t-14 -12t-15.5 -17.5q-3 -5 -7.5 -19.5t-11.5 -24.5q-6 -32 2 -44q5 -9 17 -14t21.5 -8t9.5 -6q1 -14 -13 -35t-25 -23q-31 -5 -50.5 6t-24.5 32t-3.5 43t8.5 42q18 50 76 112.5
t111 98.5q32 22 222 136q47 28 130 71t138 75q1 5 24.5 18.5t55 32t45.5 32.5q1 1 10.5 8t16 13t14 18t10.5 25q4 12 2 19.5t-16 19.5q-32 25 -82 24q-159 -2 -224 -18q-99 -23 -186 -70q-40 -22 -97 -63z" />
    <glyph glyph-name="at" unicode="@" horiz-adv-x="1887" 
d="M1081 282q-5 -27 -44.5 -37.5t-49.5 13.5q-10 1 -21.5 11.5t-21 14t-38.5 -6.5q-66 -32 -110 -60q-7 -5 -37 -23.5t-50.5 -32t-44 -33.5t-33.5 -36q-1 -2 -4 -6.5l-4 -6t-2 -5t0 -6t3 -6.5q3 -7 11 -10.5t16.5 -3.5t20.5 3t19.5 5.5t16.5 6t10 3.5q14 4 53.5 20.5
t60.5 23.5q20 7 58 23.5t47 19.5l114 38q20 8 37 12.5t30.5 5t21 -5.5t7.5 -18q-1 -17 -26 -62.5t-26 -49.5q1 -3 -0.5 -11t0.5 -12q2 -10 21 -14q35 -6 98 16q84 30 224 158q133 122 175 253q26 85 15 136q-8 38 -24.5 64.5t-52.5 67.5q-35 42 -73 60q-92 47 -259 31
q-149 -14 -307 -70q-17 -6 -35.5 -15.5t-38 -21t-26.5 -14.5q-14 -7 -46 -22t-49.5 -24t-43.5 -23t-48.5 -28.5t-43.5 -30.5q-44 -35 -55 -39t-21.5 -12t-22.5 -19.5t-19 -16.5q-179 -143 -236 -201q-17 -18 -35.5 -40.5t-29 -37.5t-31 -44.5t-27.5 -39.5q-10 -14 -30 -40
t-35 -47t-25 -42q-48 -93 -64 -214q-1 -5 -2 -18.5t-3 -21.5q-7 -31 5 -79l4 -16t4 -15.5t4 -11.5t7 -13t9 -10q32 -32 54 -51t60 -40.5t78 -29.5q53 -11 108 -14t129.5 4.5t106 11.5t124.5 19q18 3 27 4q255 40 452 117q124 49 516 253l59 46q18 14 60 54t49 45
q20 18 44 25t27 0q10 -38 -51 -86q-124 -90 -181 -121q-13 -7 -71 -34t-92 -46q-290 -166 -412 -211q-203 -76 -310 -98q-144 -30 -413 -38q-32 1 -86.5 14.5t-78.5 15.5q-135 12 -233.5 95.5t-94.5 187.5q6 163 83 301q10 18 38.5 53.5t41.5 57.5q28 47 123 146
q162 169 405 323q35 22 74 42t90 44t73 35q57 28 99.5 47.5t73.5 34.5t71 26t56 17.5t66 13t64 9t87.5 10t101.5 10.5q12 2 18 -2q17 -7 53.5 -13t53.5 -13q14 -6 48 -25t53 -27q9 -3 14 -11q128 -222 -36 -465q-28 -41 -85 -99t-98 -87q-25 -17 -53.5 -42t-47.5 -42.5
t-50 -36t-67 -30.5q-2 -1 -20 -7.5t-34.5 -12.5t-38 -11.5t-36.5 -5.5q-13 0 -23.5 3t-15 6t-12 10t-8.5 8q-28 24 3 101q11 30 11 31q-7 12 -48 -1q-18 -5 -60 -24t-63 -26q-26 -10 -56.5 -22.5t-46.5 -19t-42.5 -15.5t-59.5 -17q-56 -11 -81.5 -6.5t-65.5 27.5
q-10 8 -9 15q-4 31 -4 37q-1 4 15 36q27 47 109 97t177 89q28 12 76 26t56 17q21 8 52.5 12t63 -2.5t40.5 -26.5q4 -5 3 -15t0 -16z" />
    <glyph glyph-name="A" unicode="A" 
d="M300 237q41 5 67 3.5t95 -3.5t130 0q47 1 113 8q38 35 116.5 100t119.5 103q112 102 340 296q144 120 339 227q21 11 31.5 16t32.5 13t34 6.5t38 -3.5q21 -5 28 -22q10 -78 4.5 -124t-31.5 -122q-18 -51 -41 -112t-39 -99.5t-47 -113.5t-42 -103l149 -16q34 -3 175 -32
q22 -4 11 -27t-35 -26h-7q-10 2 -31.5 20t-34.5 20q-14 2 -44 10t-52 10q-83 8 -144 10q-42 -102 -71 -183q-60 -167 -59 -306q1 -6 22.5 -36.5t22.5 -55.5q-20 -33 -28 -35q-28 -7 -43 2q2 -1 -3 5l-3 4q-7 15 -11 46q-11 44 -6 92q11 93 33.5 211.5t47.5 185.5
q4 10 12.5 33.5t13.5 35.5q-39 -2 -123.5 -10.5t-135.5 -12.5q-221 -18 -437 -48q-18 -3 -56 -7l-17 -17q-44 -44 -168 -167.5t-203 -206.5q-2 -2 -22 -23t-30.5 -32.5t-33 -34t-39 -38t-37.5 -34t-39 -31.5q-113 -94 -230 -94q-26 4 -38 22q-5 9 -8 16t-4.5 12t0 12.5
t2 10.5t4.5 14.5t6 17.5q25 33 102 5q11 6 30 14t30 14q14 9 49 27t53 31q58 42 122 109q57 58 212 198q25 22 80 84t71 79q-111 -13 -157 -19q-19 -4 -55 -10.5t-53 -9.5l-61 -17l-13 2q-20 -6 -31 -8q-12 -2 -18 -4t-6.5 -3t-0.5 -2.5t-0.5 -2t-7 -2t-19.5 -2.5l-15 7
q-14 4 -26 16q-46 32 -8 63l6 9q41 33 85 27zM912 353q-58 -54 -100 -96q140 17 182 21q52 8 127 11t111 6q220 17 284 15q72 188 101 279q9 30 24 87t26 91q19 63 19 110q-1 10 -0.5 19t-1 15.5t-5.5 6.5q-28 3 -121 -48q-151 -84 -229 -148q-28 -24 -97 -76.5t-106 -86.5
q-39 -35 -108.5 -104t-105.5 -102zM1418 -337l1 -1z" />
    <glyph glyph-name="B" unicode="B" horiz-adv-x="2105" 
d="M975 891q-51 -6 -126 -22q-4 -2 -30.5 -11t-35.5 -14q-19 -12 -37 -27.5t-29 -25.5t-14 -11q-8 -4 -39.5 -6.5t-40.5 3.5l-23 21q-39 18 -7 50q4 3 25 23.5t37 28.5q15 7 34.5 11.5t48.5 8.5t41 6q142 27 202 34q107 12 213 18q49 42 71 36q14 -2 20 -5q11 -8 14 -27
q199 4 396 -15q74 -5 129 -19q5 -1 23 -4.5t29 -5.5t31 -7t33 -9t30.5 -10.5t28.5 -13.5t21 -15.5t14.5 -19t3.5 -22.5q-1 -22 -20.5 -40t-41.5 -27.5t-59 -22.5t-51 -19q-132 -48 -216 -90q-90 -47 -119 -108q-2 -10 -3.5 -17t4 -17t9.5 -17t13.5 -16t16.5 -15.5t18 -14.5
t18 -12.5t16.5 -11t13.5 -9.5q16 -8 34 -19t40 -25.5t33 -21.5q85 -51 115.5 -74.5t62.5 -59.5q6 -7 11 -17t7.5 -17.5t7 -26.5t8.5 -31q2 -6 -11 -36.5t-20 -35.5q-20 -23 -19 -25t-21 -25q-10 -10 -52 -41.5t-59 -42.5q-54 -34 -139.5 -72.5t-144.5 -54.5
q-276 -72 -368 -91q-197 -43 -357 -64l-90 -13q-280 -40 -363 -39q-58 -2 -152 7t-136 18q-10 2 -19 7.5t-13 8.5t-15 14.5t-14 13.5q-24 30 -28.5 54t2.5 37.5t24 33.5q6 8 21 -4.5t29 -33.5t18 -36q5 -18 59 -44q78 -38 118 -38q109 0 180 6q48 4 112.5 14t65.5 10
q362 55 539 104q66 18 203.5 68t183.5 65q108 37 256 126q149 97 128 164q-4 11 -13 20.5t-26.5 25t-30.5 29.5q-19 21 -72 49t-109.5 55t-110 58t-82 68t-16.5 75q3 8 8 16.5t15 17t18 15t23.5 15.5t24 14t28.5 15t27.5 13.5l30 14t28.5 13.5q66 34 228 99q21 8 36 20
t14.5 30.5t-28.5 35.5q-18 5 -66.5 20t-71.5 21.5t-60 14.5t-69 10q-136 11 -316 -6l-73 -92q-11 -23 -116 -133q-49 -67 -63 -89q-24 -41 -96.5 -155t-98.5 -159q-35 -60 -84 -178.5t-63 -148.5l-14 -27q-13 -30 -15 -38q-3 -8 -8.5 -29t-10.5 -30q-5 -8 -15 -13.5
t-15 -11.5q-17 -17 -40 -6q-25 13 -18 40t12 46.5t6.5 26t3.5 10.5q0 1 3.5 5.5t8.5 16.5t11 34q0 2 39 51l34 42l22 41q35 65 103 177.5t98 164.5q124 223 155 276q29 51 71 117l28 48z" />
    <glyph glyph-name="C" unicode="C" horiz-adv-x="1780" 
d="M1776 863q0 -10 1.5 -14t-4.5 -12t-9 -11l-11 -11l-12 -12q-14 -17 -38 -11t-36 27q-1 3 -6 16.5t-7 18t-7.5 12t-12.5 11.5q-20 10 -61 22t-70 12q-41 0 -126 -18q-79 -17 -118 -35q-45 -20 -158.5 -63.5t-175.5 -78.5q-62 -34 -119.5 -74t-140.5 -104t-105 -80
q-43 -33 -134.5 -128.5t-149.5 -185.5q-65 -92 -86 -145q-33 -79 -21 -158q3 -31 36 -63t68 -47q75 -29 204 -36q113 -7 158 -2q185 29 312 71q88 34 244 92q71 23 162 62q162 66 318 147q44 24 55 31t40 30q14 11 53 32q9 5 21 -2t18 -15q10 -18 -6 -32q-10 -8 -33.5 -16
t-33.5 -13q-19 -9 -53 -24t-78 -37q-137 -77 -241 -128q-65 -33 -170 -74q-145 -56 -356 -116q-17 -4 -81 -21.5t-103 -27t-100.5 -18.5t-111.5 -9q-189 1 -286 33q-69 23 -107 69.5t-43.5 103t9.5 114.5t48 110q93 160 204 266q72 70 241 208q54 42 121.5 85.5t100.5 62
t120 66.5q14 7 39 23.5t31 20.5q55 28 144.5 63.5t120.5 51.5q88 44 244 76q49 9 98 3q20 -3 41.5 -4.5t36 -3t31.5 -7.5q25 -10 54 -31q26 -19 31 -26q6 -8 7.5 -15.5t0 -17.5t-1.5 -13z" />
    <glyph glyph-name="D" unicode="D" horiz-adv-x="2022" 
d="M619 -43q3 -31 -30.5 -39t-51.5 15q-14 38 -9 50q3 10 20 35t23 38t16 28.5t24 35.5t20 30q30 59 76.5 140.5t111.5 192.5t81 138l91 128q2 15 39 102q17 43 32 72q-208 26 -363 -7q-41 -7 -112 -53.5t-94 -56.5q-27 -8 -49 17t-22 55t24 47q40 18 87 24.5t85 21.5
q102 42 470 -4q45 67 93 63q19 -16 24 -33q3 -16 1 -47q131 -22 185 -37q192 -54 264.5 -82.5t174.5 -88.5q57 -34 95 -62.5t71.5 -67t49 -85.5t14.5 -106q0 -59 -16 -78q-22 -51 -105.5 -124.5t-155.5 -101.5q-28 -12 -254 -118t-350 -143q-37 -8 -77 -19t-78 -23.5
t-50 -15.5q-76 -19 -249 -67.5t-260 -68.5q-103 -24 -372 -62q-32 -7 -37 -6l-19 -2q-31 -5 -42 -4q-87 -8 -126 12q-45 0 -53 3q-5 2 -8 7t-5 12t-4 10q-8 29 20 55.5t50 7.5l5 -9q4 -9 8.5 -16t14 -15t20.5 -11q36 -12 100 -18q56 0 73 4q161 28 359 80q125 31 353.5 103
t296.5 92q48 14 131 47q214 80 490 237q199 112 232 211q41 108 -22 196q-24 34 -61.5 66t-60.5 46.5t-29 17.5q-39 18 -83.5 34.5t-106.5 35t-94.5 28t-113 31t-96.5 25.5q-40 11 -88 21l-3 -7q-15 -29 -55.5 -66t-56.5 -66q-28 -48 -133.5 -188t-135.5 -184
q-81 -123 -113 -206l-20 -53q-5 -14 -23.5 -49t-22.5 -44q-23 -50 -15 -81z" />
    <glyph glyph-name="E" unicode="E" horiz-adv-x="1776" 
d="M1699 856q5 -17 -15.5 -42.5t-48.5 -34.5q-28 -8 -53 -0.5t-35 25.5q-3 10 16.5 46.5t11.5 45.5q-34 42 -120 38q-38 -2 -142 -17t-158 -27q-81 -17 -146 -44q-25 -11 -38.5 -21.5t-17.5 -17t-11 -21.5t-15 -27q-14 -26 1 -67.5t34 -59.5q9 -9 29 -30.5t40 -39.5t44 -34
q3 -2 10.5 -7.5t10 -7t9 -6t9 -7t7.5 -6.5t7.5 -7.5t6.5 -7.5t6.5 -8.5t5.5 -9.5q4 -8 6.5 -16.5t3.5 -21t2 -16.5q0 -9 -13 -31t-21 -31q-27 -17 -68 -22t-63 -13q-108 -39 -216 -81q-39 -16 -105.5 -42t-118.5 -47.5t-106 -48.5q-51 -24 -121 -73t-95 -64
q-67 -44 -106 -124q-11 -24 -8.5 -40.5t18.5 -46.5q4 -6 9 -11t12 -9t12 -6.5t15.5 -5t14.5 -3t16 -3t14 -2.5q83 -11 112 -14t83.5 -2.5t111.5 9.5q51 9 146 19.5t166 24.5t145 41q28 10 174.5 67t223.5 82q20 6 39 13.5t33 13t35 15t30 14t34 17.5t32 17t38.5 21t39.5 21
q14 9 33.5 21.5t29.5 19.5t14 12q11 15 44 29t42 7q5 -5 5.5 -7t-1 -3.5t-3 -6t-1.5 -12.5q1 -13 -18 -26.5t-48.5 -27t-33.5 -15.5q-19 -9 -185 -97t-259 -119q-34 -10 -145 -49.5t-151 -51.5q-225 -69 -379.5 -98.5t-351.5 -29.5q-46 -1 -92 3.5t-98 25.5t-65 56
q-28 82 25 160q31 44 69 75t95 66q170 107 245 147q133 68 271 124q2 1 33 13.5t78.5 32t82.5 34.5q48 24 101 59.5t60 45.5q17 22 -41 58q-11 7 -29 21.5t-42 28.5q-17 10 -28 17.5t-28.5 19.5t-29.5 21.5t-26 22.5t-21.5 24.5t-13.5 24.5t-5.5 26t6.5 26q32 69 157 132
q61 32 153 61.5t195.5 49.5t200 11t147.5 -53q11 -8 16.5 -21t10.5 -34t8 -30z" />
    <glyph glyph-name="F" unicode="F" horiz-adv-x="1477" 
d="M641 406q2 -1 13.5 -3t16.5 -5q26 5 50 0q16 1 50 3t50 4l42 5l17 27q28 39 78.5 129.5t52.5 94.5q11 15 28.5 55t25.5 66q3 15 8.5 24t14.5 19.5t15 21.5l5 12q19 20 62 23q11 1 18 -3t9.5 -8.5t7.5 -18.5q4 -15 -12 -50q-3 -6 -4 -6q-5 -17 -11.5 -29.5t-12.5 -21.5
t-26.5 -37t-40.5 -56q-23 -35 -163 -234q189 18 341 6q109 -12 126 -17q69 -18 82 -29q8 -8 8 -18q-1 -14 -31 -41q-39 -18 -47 31q-2 1 -27.5 13.5t-42.5 13.5q-84 7 -111 5q-34 -2 -74 -4q-35 -1 -72 -5t-62 -8t-68.5 -12t-68.5 -12q-3 -1 -9 -1l-65 -85
q-31 -41 -76 -109.5t-98 -153t-74 -117.5q-19 -31 -31.5 -81t-32.5 -81q-5 -9 -12.5 -54.5t-17.5 -55.5q-4 -6 -18 -18t-23 -13q-16 -2 -23 0q-28 -7 -43 15q-3 11 -3 31q23 75 27 80q15 49 62.5 116.5t67.5 121.5l61 71q89 134 174 248l55 73q-19 -4 -25 -5
q-51 -16 -59 -16l-74 -21l-34 -5l-16 2q-34 -1 -42 29t8 55q7 17 29.5 28t44.5 11zM174 923q100 -20 189 -3q5 2 28 15t40 17q53 11 160 21t145 16q554 79 1054 41q386 -28 490 -106q15 -9 9 -27l-17 -26q-12 -14 -45 -9.5t-31 21.5q1 2 -4 6t-12.5 8.5t-15.5 9.5t-14 9
t-6 5q-1 6 -8 10.5t-16.5 7.5t-18 4.5t-18 3t-10.5 1.5q-41 6 -125.5 22t-147 24.5t-128.5 10.5q-260 13 -658 -35q-192 -23 -398 -66l-133 -40q-50 -12 -124 -34.5t-132 -34.5q-19 -4 -36 -4t-27.5 1.5t-30 5.5t-35.5 6q-29 5 -36.5 27.5t15.5 42.5q19 17 50 35t47 14z" />
    <glyph glyph-name="G" unicode="G" horiz-adv-x="2032" 
d="M1663 847q-17 -30 -55 -51t-72 -22.5t-56 13.5q-8 17 17.5 58.5t22.5 56.5q-20 80 -315 0q-112 -29 -237 -89.5t-234 -133.5t-198.5 -145t-155.5 -138q-26 -27 -51.5 -58.5t-55 -75.5t-46.5 -85t-26 -86.5t7 -79.5q4 -12 11.5 -20t21 -13.5t20.5 -7.5t28.5 -5.5
t26.5 -4.5q109 -13 274 26q138 32 378 111t348 108q144 39 226.5 54t121.5 13t79 -17q32 -32 28 -67q-6 -47 -26 -97q-5 -11 -30 -51t-28 -46q125 76 307 150q37 14 50 19q5 1 17.5 6t21.5 6.5t18 1.5q15 0 20.5 -4t5.5 -16v-8q0 -1 2 -1l-2 -1q-2 -12 -2 -17
q-3 -8 -11 -17.5t-20 -10.5q-4 0 -23 3.5t-31 3.5q-8 -1 -38.5 -8t-35.5 -8q-5 0 -18 -7.5t-20 -7.5q-21 -11 -89 -48q-25 -14 -72 -39.5t-61 -33.5q-21 -11 -67 -39q-33 -46 -68.5 -90.5t-82.5 -95.5t-76.5 -83.5t-90 -91t-81.5 -78.5t-92 -86.5t-82 -77.5
q-84 -78 -121 -112t-105 -90.5t-127 -98.5q-37 -25 -90 -53t-78 -25q-6 0 -30 14q-9 8 -13 25q0 14 5 26.5t13.5 27t11.5 22.5q27 64 113 155q23 23 69 73t91 88q93 80 198 161.5t160 121.5t195 139q38 27 168 108q40 24 46 27q4 5 32 44.5t33 48.5q23 46 31.5 90t-5.5 65
q-20 21 -36 30.5t-40 7.5q-158 -11 -278 -48q-22 -6 -77.5 -25.5t-95.5 -31.5q-43 -13 -274.5 -92.5t-310.5 -98.5q-169 -43 -270 -36q-114 10 -167 69q-11 6 -27 46t-16 56q0 38 8.5 63.5t32 64.5t32.5 58q38 79 153 189.5t261 208.5q287 186 422 232q17 6 91 36.5
t130.5 52t125.5 37t109 8.5q12 -2 45 -6t55 -8.5t42 -13.5q21 -9 24 -13q24 -22 43 -55.5t18 -55.5zM1448 -227l47 56q-16 -11 -86.5 -60t-119 -85t-91.5 -73q-40 -35 -93 -76.5t-73 -58.5q-52 -44 -92 -83t-92 -94.5t-85 -88.5q-58 -64 -65 -81q-2 -6 -9 -14.5t-11 -14
t-1 -8.5q6 -7 26 0t38 23q60 41 79.5 56t71.5 62q20 18 93 83.5t102 91.5t90.5 83.5t98.5 95t85 88.5t87 98z" />
    <glyph glyph-name="H" unicode="H" horiz-adv-x="1934" 
d="M242 238q-15 15 12.5 46t43.5 28l89 -14l91 2q162 12 413 54q43 66 59 92q33 51 65 114.5t90 207.5q0 1 1.5 6t1.5 6q37 105 -13 132q-66 30 -133 23q-28 -4 -63.5 -2t-46.5 0q-33 -5 -95.5 -26.5t-129.5 -37.5l-141 -56l-205 -108q-53 -49 -60 -58t-17 -23t-15 -20
t-15.5 -13t-25.5 -11q-36 -7 -45 -5q-7 2 -13 5t-10.5 8.5t-6.5 8t-5.5 10t-4.5 8.5q-11 18 -3.5 36.5t24.5 33.5q50 42 83 58q82 34 144 64t108.5 47.5t161.5 51.5q134 37 191 49t185 31q8 1 12.5 2t12 2t14.5 2q22 2 59.5 3.5t78.5 -9t51 -30.5q41 -62 43 -99
q4 -42 -46.5 -147t-67.5 -123q-44 -79 -101 -168q-14 -22 -34 -50q248 41 405 52q204 14 303 11q2 0 4.5 -0.5t3.5 -0.5q77 118 127 185l105 137l36 58q19 30 32.5 60.5t21.5 47t20 25.5q17 15 54 21q29 5 55 -10q12 -7 10 -33q-12 -26 -53 -77q-91 -129 -157 -207
l-172 -208q87 0 141 -8q18 -3 47.5 0t63.5 0.5t63.5 -8.5t48.5 -26.5t18 -53.5q-2 -23 -26.5 -24.5t-26.5 22.5q0 6 -1.5 10t-5 6.5t-7.5 3.5t-11 2.5t-12 3.5q-48 19 -158 28q-80 9 -159 12q-81 -103 -145 -205q-71 -115 -149 -274l-8 -16q-1 -5 -22.5 -52.5t-22.5 -52.5
q-11 -52 -26 -104q1 -3 1.5 -15t0.5 -15q1 -3 5.5 -13.5t5.5 -13.5q1 -4 8.5 -10.5t9.5 -12.5q2 -9 -17.5 -25t-33.5 -19q-12 -3 -24.5 -6.5t-17.5 -5t-7 -0.5q-10 2 -18.5 11.5t-8.5 22.5q-3 20 -2.5 32t3.5 33t3 28q22 101 46 122q17 46 37 81.5t38.5 61.5t24.5 37
q20 51 38 84t53 85t52 80l102 164q-22 0 -190 -9q-48 -2 -97 -8t-81 -11t-87.5 -14.5t-88.5 -14.5q-36 -6 -108.5 -21t-90.5 -19q-87 -116 -162 -221q-146 -200 -240 -390q-2 -3 -21 -44q2 -4 1 -18t3 -21q4 -8 12.5 -20t13 -20t2.5 -12q-84 -112 -129 -95q-21 8 -21 26
q-1 65 66 196q19 37 53.5 97t40.5 70q45 79 91 148.5t113.5 162t91.5 127.5q-10 -2 -30 -4q-59 -17 -219 -49q-30 -6 -80.5 -21t-55.5 -16q-12 -3 -24 -4.5t-19.5 -1.5h-8.5l-79 -1q-25 -3 -69 22q-20 17 -20 24zM1322 -439v1l-1 -1h1z" />
    <glyph glyph-name="I" unicode="I" horiz-adv-x="1341" 
d="M190 568l-16 -22q-7 -12 -12.5 -35.5t-11.5 -32.5q-13 -19 -44 -23t-45 5q-42 23 -42 56q0 20 30 66q4 6 19 21t28 27l12 11q18 17 53 38.5t71 40t87.5 42t83 37t77.5 33t53 22.5q374 150 722 154q55 2 100 -23q11 -6 19.5 -13.5t20.5 -22t16 -19.5q10 -11 15.5 -35
t6 -45t-0.5 -40v-19q1 -20 -5 -45t-11.5 -38.5t-21 -45.5t-18.5 -39q-35 -76 -122.5 -187.5t-105.5 -138.5q-20 -30 -46 -66t-58.5 -79.5t-48.5 -66.5q-1 -1 -77.5 -103t-98.5 -146l-25 -45q-15 -27 -41.5 -92t-25.5 -76q2 -11 -2 -34t-11 -29q-71 -94 -74 -114
q-2 -4 -6.5 -9.5t-16 -12.5t-20.5 -1q-10 7 -14 17q-10 10 -2 41l2 9q1 34 22.5 90t46.5 94l3 3q46 88 155.5 249.5t204.5 291.5q176 240 260 432q13 28 21 46.5t19 51t14 55.5t2 51t-12 47t-34.5 35.5t-59.5 23.5q-99 19 -300 -36q-43 -11 -107 -31q-87 -28 -257 -98
q-71 -30 -130 -58q-100 -47 -170 -100q-8 -6 -21 -25t-17 -23q-6 -5 -17 -10t-16 -11z" />
    <glyph glyph-name="J" unicode="J" horiz-adv-x="1652" 
d="M1280 87l-76 -82q46 19 117 46q46 17 121.5 43.5t91.5 32.5q77 28 220 56q19 -4 19 -24q-3 -14 -25.5 -31t-41.5 -25q-10 0 -32 3q-7 1 -21.5 -2t-17.5 -2h-1l-2 1q-12 -4 -17 -4q-14 -3 -45 -7.5t-54.5 -10t-49.5 -15.5q-10 -4 -134.5 -48.5t-186.5 -75.5
q-148 -160 -170 -184q-149 -161 -336 -332t-353 -293q-66 -45 -85 -53q-4 -2 -21.5 -4.5t-27.5 -8.5q-25 -4 -58 9q-18 8 -27 28q-3 10 4 33.5t13 30.5q74 105 158 188q57 56 200 172q105 85 230 169q94 64 219 140q91 54 184 107l5 4q44 46 88 94q100 115 105 121
q56 69 138 178q36 44 97 149t93 180q24 57 26 111q5 89 -29 123q-11 11 -29 18.5t-30 9.5t-33 3.5t-23 1.5q-90 9 -269 -32q-108 -25 -246 -66t-211 -75q-162 -72 -358 -207q-46 -31 -108.5 -92.5t-91.5 -103.5q-16 -19 -8.5 -45.5t24.5 -37.5q24 -6 26 -16q2 -7 5 -16
t4.5 -15t0.5 -13q-1 -9 -6 -16q-24 -32 -49 -28q-9 1 -33.5 2t-40.5 4t-30 11q-39 26 -36 85q2 39 17 74q19 43 52 71q42 39 116.5 99t111.5 81q142 83 260 141q184 94 576 205q181 54 293 50q86 -3 141.5 -22t108.5 -78q68 -75 -110 -367q-83 -136 -162 -235
q-51 -63 -180 -208zM949 -190l38 39q-146 -90 -242 -160q-80 -57 -174 -133q-154 -126 -201 -173q-27 -28 -44 -43t-44 -45q-12 -14 -28 -45.5t0 -32.5l88 55q74 53 113.5 81.5t93 73t97.5 88.5q37 38 144 139.5t159 155.5z" />
    <glyph glyph-name="K" unicode="K" horiz-adv-x="1766" 
d="M665 -119q-23 -36 -50 -94l-44 -114q-4 -12 -6.5 -30t-2.5 -29l-1 -12q-1 -6 -0.5 -27t-1.5 -30q-4 -20 -39.5 -23t-53.5 21q-9 13 -14.5 37.5t-7.5 27.5q-5 7 0.5 27.5t11.5 29.5q21 31 59 102t64 108q22 33 75 102.5t74 100.5q18 27 58 79q-2 6 -2 11q0 30 4 35
q10 30 30 61q20 29 55 58t55.5 42t64.5 39l25 36q72 102 112.5 190.5t53.5 196.5q4 35 -18 58t-62.5 32t-79.5 11.5t-83 0.5q-81 -6 -107 -12q-7 -2 -34 -11.5t-41 -13.5q-108 -32 -179 -66q-16 -8 -64 -30.5t-86 -42t-58 -31.5q-80 -51 -134 -105q-19 -19 -32 -45t-10 -41
q2 -4 0.5 -9.5t-2.5 -8.5t-4 -8.5t-5 -9.5q-21 -53 -60 -59q-75 13 -90 57q-18 53 54 122q27 26 59 50.5t76 49.5t72.5 40.5t86.5 41t77 33.5t85 34t72 29q51 22 107.5 38t96 23t107 18t107.5 19q40 6 91.5 0.5t78.5 -15.5q10 -4 25.5 -16t19.5 -20q4 -7 11.5 -18
t10.5 -16.5t7 -14t6 -17.5t3 -21q13 -105 -155 -350q320 226 572 349q17 8 86 42t105.5 50t94.5 35.5t103 24.5q29 1 43 -20q3 -1 6 -4q8 -27 -7 -50l-17 -14q-44 -31 -68 -27q-12 -3 -43.5 -5t-47.5 -6q-248 -90 -295 -110q-123 -57 -237 -126t-188.5 -122.5t-215.5 -161.5
q-10 -13 -48 -59t-57 -72l63 -16q58 -15 162 -55q133 -52 242 -106q205 -104 360 -210q12 -8 51.5 -34.5t74 -50t50.5 -36.5q52 -41 92 -118q22 -53 -21 -54q-11 3 -28.5 32.5t-26.5 56.5q-21 25 -39 41q-63 58 -127 100q-67 44 -202 117q-216 113 -386 167q-46 15 -217 52
l-121 19l-8 -2q-62 -64 -78 -90q-18 -29 -49.5 -82t-45.5 -76z" />
    <glyph glyph-name="L" unicode="L" horiz-adv-x="1429" 
d="M809 530l125 172q76 132 79 151q9 17 18.5 60t29.5 65q5 6 55 35q51 15 60 -45q3 -49 -46 -124q-83 -135 -257 -356q-107 -144 -204 -261q-130 -156 -266 -294q-87 -87 -167 -156q45 5 126 14.5t101 11.5l70 7q70 8 144 15.5t83 7.5q319 42 539 31q12 0 77.5 -1
t108.5 -2.5t103 -10.5t99 -24q7 -3 23 -9.5t22.5 -9t16 -8t14.5 -10t7 -10.5q6 -16 -11 -40q-3 -5 -13 -5.5t-18 -8.5q-11 -6 -24.5 3t-23.5 34q-3 8 -21 20.5t-36 19.5q-16 7 -69 13q-42 4 -65 6q-104 9 -214 7q-199 -3 -402 -26q-210 -23 -478 -73l-206 -53
q-27 -6 -74 -33t-78 -40l-31 -25l-30 -7q-41 -3 -46 4q-4 0 -6.5 7t-5.5 7q-8 4 -7 20t12.5 39.5t26.5 39.5q55 59 180 83q129 91 183 145q172 172 322 368q35 46 94 131.5t80 114.5z" />
    <glyph glyph-name="M" unicode="M" horiz-adv-x="2732" 
d="M887 205l-22 -31q-42 -61 -125 -176.5t-103 -144.5q-7 -10 -39.5 -68.5t-58.5 -95.5q-15 -20 -51 -58q-52 -55 -98 -88q-27 -9 -36 16q-10 35 47 128q34 55 75 105q196 246 355 430q63 101 143 278q51 113 65 274q2 40 -24 81.5t-65 50.5q-97 22 -155 8
q-176 -41 -270 -91q-24 -14 -66 -44.5t-53 -37.5q-19 -12 -58 -42t-62 -44q-37 -33 -57 -63q-12 -17 -20.5 -36t-11.5 -30l-3 -10q-16 -25 -40.5 -33t-102.5 -11q-26 7 -32 24t5.5 37.5t27.5 38.5t32 30q20 15 84.5 58t100.5 73q37 30 153 90q103 54 246 100q55 18 118 34
q107 24 183 15q121 -14 155 -81q8 -21 10 -84q1 -16 -1 -33.5t-8 -41.5t-9 -35.5t-12 -43t-11 -36.5q-6 -17 -20.5 -51.5t-19.5 -46.5q-7 -14 -26.5 -61t-33.5 -73q8 8 34.5 35t38.5 39.5t34 33t41 36.5t39 30q12 8 31 26t27 24q113 95 250 190q112 78 185 118
q122 65 180 65q71 0 77 -60q-5 -49 -8 -56q-1 -3 -29 -56q-22 -44 -76 -130l-110 -163l-96 -163q-13 -20 -40.5 -62t-44 -69.5t-28.5 -52.5q-48 -100 -67 -128q-4 -8 -10 -34.5t-7 -46.5q0 -6 0.5 -9.5t1.5 -4.5t3 -1t3.5 0.5t4 1t4.5 0.5q2 2 51 51.5t107.5 108t84.5 81.5
q65 59 147.5 139.5t168.5 159.5q38 34 92 78.5t84 71.5q116 102 173 126q4 2 23 12.5t30 14.5q29 10 53 7q32 -4 45.5 -23t12.5 -56q-1 -22 -9 -40t-43 -82q-12 -24 -29.5 -53t-40.5 -67t-35 -58q-64 -109 -131 -287q-17 -42 -29.5 -105t-11.5 -87q7 -55 38 -66q4 -1 29 -6
q88 -18 254 63q38 18 93.5 55t79.5 58q7 6 16.5 14t12.5 11t7.5 8.5t9.5 13.5q25 31 50 21q6 -2 9.5 -5t3.5 -7.5t-0.5 -7t-3.5 -9t-3 -7.5q-33 -40 -98 -77q-132 -87 -197 -120q-197 -102 -255 -97q-57 5 -86 29.5t-34 79.5q-8 69 50 229t136 297q27 48 79 201
q11 23 9.5 42.5t-11.5 21.5q-32 7 -156 -89q-38 -29 -83.5 -60.5t-78 -57t-73.5 -64.5q-115 -109 -163 -157q-141 -145 -300 -344q-45 -59 -57.5 -72.5t-39.5 -28.5q-47 -28 -72 -7q-25 19 -22.5 62t19.5 90t45 95q6 11 27.5 53t38.5 71q14 22 29.5 55t21.5 44
q21 37 72.5 122t72.5 123q58 104 91 174q5 10 41 105q1 2 12 27t17 41q2 7 -2 13.5t-4 10.5q-20 6 -46 2.5t-46 -13.5q-17 -9 -53.5 -25.5t-65.5 -31.5t-54 -32q-32 -22 -63 -46t-73.5 -59t-56.5 -47q-112 -92 -137 -119q-15 -16 -46.5 -43.5t-35.5 -31.5
q-106 -99 -235 -237z" />
    <glyph glyph-name="N" unicode="N" horiz-adv-x="2235" 
d="M104 662q-5 47 40 58q14 3 65.5 3.5t83.5 4.5q14 2 48 15t42 13q13 5 37 15q29 12 102.5 43t108.5 45.5t100 41t109.5 42.5t102.5 35t111 33q2 1 28.5 8t43 11.5t45.5 8.5t48 2.5t38 -9.5t27 -24q5 -15 4 -31t-12 -40t-22 -44t-27 -43.5t-27 -38t-22 -28.5t-11 -15
q-51 -69 -96 -121q-32 -40 -83 -97t-93.5 -103t-114.5 -124t-110 -119q62 49 146.5 113t162.5 122t90 67q36 28 74 55.5t63.5 45.5t71 48t63 41t75.5 47.5t74 46.5q51 33 189.5 88.5t199.5 47.5q64 -10 83 -54q4 -10 5 -24t0.5 -24t-2 -19.5t-1.5 -10.5q-3 -9 -8 -26t-7 -23
l-6 -18t-7 -18.5t-8 -17.5t-10 -21.5t-13 -24.5q-23 -41 -74 -138.5t-78 -142.5q-71 -123 -111 -219q-11 -27 -25 -54.5t-19.5 -40t-11 -38t-6.5 -63.5q-2 -67 25 -97q25 -26 72 -29t74 9q3 1 30 9.5t34.5 11.5t31 11t35.5 13t31.5 13.5t34.5 16.5t30 17q44 26 178 120
q18 12 29 26.5t29 26.5l26 27l2 3q1 3 14 8t16 4l15 -4q10 -7 10 -19q-2 -11 -11.5 -19.5t-25 -18.5t-23.5 -18q-26 -22 -59 -47q-12 -9 -63 -46.5t-83.5 -61t-88 -59.5t-97 -58t-88.5 -39t-82 -18q-17 0 -35 4t-41.5 12.5t-34.5 11.5q-9 5 -22 18t-18 29q-18 61 -12 97
q18 101 37 156q51 139 80.5 204t106.5 212q37 69 57 111.5t39.5 106.5t22.5 123q1 27 -23 35q-54 16 -108 -9q-24 -11 -75 -31t-88.5 -38t-70.5 -40q-59 -38 -142.5 -87.5t-148 -91.5t-135.5 -98q-25 -19 -95 -80t-171.5 -150.5t-148.5 -130.5q-45 -39 -125 -130.5
t-87 -97.5q-8 -7 -15.5 -17.5t-16.5 -26t-14.5 -26t-15.5 -30.5l-13 -26l-24 -64q-17 -43 -23 -49q-39 -34 -68 -36q-8 2 -20 10.5t-15 15.5q-9 21 -5 59t16 60q19 37 66 96q54 68 73 88q13 17 39 48t36 43q68 91 298.5 344.5t284.5 319.5q49 62 84 124q44 80 48 122
q0 2 1 10t1 12.5t-0.5 10.5t-3 9t-6.5 3q-31 0 -61 -3q-91 -9 -166 -36q-90 -33 -268 -129q-117 -66 -170 -89l-125 -55q-3 -1 -30.5 -12t-54 -20.5t-43.5 -14.5q-41 -15 -79 -1.5t-44 55.5z" />
    <glyph glyph-name="O" unicode="O" horiz-adv-x="1906" 
d="M1030 660q6 -23 -12 -42.5t-46 -26.5q-5 -3 -14.5 -1t-12.5 3t-13.5 5.5t-15.5 6.5q-31 10 -55 -7q-10 -6 -39.5 -25.5t-48.5 -29.5q-87 -44 -154 -99q-119 -107 -170 -184q-6 -10 -19.5 -33t-24 -39.5t-22.5 -29.5q-28 -36 -55 -133q-34 -124 -17 -197q14 -72 83 -117
q73 -46 129 -46q4 0 28.5 -2t59 -4t61.5 -2q17 0 35 1t37.5 5t33.5 6.5t36 8.5t31 8.5t31.5 9.5t26.5 8q83 25 122.5 37t105.5 38.5t117 54.5q33 16 148 94q133 91 248 219q156 168 213 376q22 97 7 174q-31 142 -169 208q-26 12 -61.5 19t-77.5 11t-54 6q-84 14 -149 8
q-190 -14 -319 -46q-293 -82 -389 -123q-16 -7 -54.5 -23t-63 -26.5t-55.5 -26t-52 -28.5q-49 -33 -152 -129q-103 -108 -111 -133q-2 -5 -7 -16t-7 -20q0 -2 -1 -13.5t1 -20.5q4 -23 -6 -46.5t-23 -28.5q-51 -10 -51 46q1 20 9.5 42.5t20.5 45t13 26.5q20 34 132 146
q6 5 31 24.5t46 36t30 22.5q72 63 260 155q185 95 391 134q302 73 470 56q138 -11 148 -12q12 -2 42 -8t48 -8q82 -12 167.5 -99t93.5 -160q0 -2 2.5 -21t3 -23t1.5 -21t1 -23.5t-0.5 -21.5t-2.5 -25t-5 -23.5t-8 -26.5q-57 -145 -92 -208q-68 -120 -164 -198
q-48 -39 -123 -104.5t-108 -92.5q-112 -92 -257 -166q-284 -118 -437 -157q-159 -38 -287 -22q-95 11 -135 37q-5 3 -25.5 15t-29.5 20q-92 78 -78 219q2 17 12 51.5t13 53.5q2 13 7 29t10.5 28.5t15.5 32.5t15.5 30.5t18.5 33.5t17 31q48 80 100 144q33 43 65 75
q85 98 142 146q6 5 31.5 24.5t35.5 27t33 24t38 26t36.5 21.5t40.5 21q50 26 115 34q5 -1 13.5 -2t11 -1.5t8 -2t9 -5l8.5 -8.5q9 -7 13 -28z" />
    <glyph glyph-name="P" unicode="P" horiz-adv-x="1801" 
d="M562 96l40 4q18 34 175 304q36 63 112 184t78 125q17 27 41.5 82.5t30.5 63.5q6 19 12 35.5t10 24t9.5 17.5t7.5 14l2 2q-148 -11 -294 -32q-14 -2 -123 -33q-112 -31 -162 -71q-63 -51 -108 -24q-34 32 -19.5 65.5t64.5 57.5q48 23 162 43q122 26 191 26q36 0 88.5 2.5
t127.5 7t116 6.5q17 18 34 29q18 12 40 12q19 9 28 0.5t7 -31.5l-2 -6q30 0 78 -2q294 -19 470 -106q28 -14 65 -41t76.5 -63t63.5 -79t19 -80q-11 -83 -46 -138t-108 -95q-131 -75 -176 -94q-38 -16 -125 -48q-217 -78 -345 -112t-313 -52l-135 -18q-28 -4 -108 -6l-4 -7
q-21 -38 -58.5 -118t-49.5 -104l-31 -115q-2 -2 -2 -3v-4q-13 -20 -18.5 -87.5t-24.5 -80.5q-25 -16 -58 -13q-20 2 -31 25.5t-5 42.5q19 66 42 101l2 6q5 12 20 22l11 22l97 212q3 9 18 38q13 28 30 58q-82 -8 -186.5 -7t-180.5 12q-13 2 -18.5 3t-24.5 5t-29.5 8.5t-28 11
t-25.5 15t-15 18.5t-4.5 23.5t12.5 28.5q4 5 7.5 11.5t11.5 11.5q6 3 10 6q13 8 30 8.5t28.5 -3.5t11.5 -8q0 -5 -1.5 -11.5t-1.5 -9t1.5 -7t7 -9t14.5 -10.5q11 -3 17 -13t20 -11q17 -2 47.5 -12.5t47.5 -12.5q165 -24 227 -17zM1021 671l-1 -1l-26 -41q-24 -37 -111 -162
t-125 -188q-32 -53 -92 -170q68 9 125 22q110 15 242 43l16 4q21 5 36 4.5t38 6.5l61 20q33 8 94 28.5t73 24.5q97 28 257 102q100 47 203 129q98 79 97 170q-1 50 -40.5 93.5t-93.5 69.5q-122 59 -257.5 96.5t-252.5 38.5q-33 0 -52 -1q-4 -7 -16 -30t-18 -36
q-2 -3 -14 -20.5t-23 -33t-15 -16.5q-23 -33 -48.5 -68.5t-39.5 -56.5l-11 -18l-4 -7q0 -1 -2 -2v-1z" />
    <glyph glyph-name="Q" unicode="Q" horiz-adv-x="1811" 
d="M1144 -157l6 -3q100 50 193 112q100 67 173 134q139 127 208 283q57 127 38 242q-20 115 -85 164q-3 2 -19 14t-20.5 15.5t-19 14t-22 15t-20.5 13t-23 13.5t-23 10.5t-25 10.5q-137 51 -336 51q-12 0 -35 -2.5t-32 -2.5h-37t-37 -1q-186 -17 -217 -22q-84 -13 -131 -26
q-181 -53 -327 -123q-106 -51 -163 -106q-29 -34 -32 -60q-4 -39 34 -56l16 -8q25 -14 26 -14q8 -4 10 -14.5t6 -14.5q3 -17 -33 -36q-12 -7 -29.5 -0.5t-25.5 14.5q-3 1 -7.5 3t-7.5 3t-7.5 4.5t-8.5 8.5q-5 7 -8.5 15t-6.5 18.5t-5 16.5q-12 27 14 76l7.5 15t9 17.5t12 18
t20.5 22.5q77 72 178 125q165 87 324 127q46 10 67.5 15.5t39 9.5t65.5 14q124 20 237 27q10 1 40 1.5t47 2.5q37 5 143 -2q144 -10 248 -44q54 -17 106 -47q14 -8 38 -28.5t37 -28.5q18 -11 47 -48q47 -62 64 -141q28 -129 -64 -302q-12 -23 -39 -64.5t-36 -57.5
q-45 -77 -154 -166q-10 -8 -82 -66t-112 -86q-60 -41 -169 -104q8 -3 25 -13t31 -14l98 -26q157 -42 288 -105q52 -25 148 -79.5t159 -99.5q58 -43 70 -65q0 -1 3 -28q0 -11 -7 -17q-3 -2 -28.5 -9t-30.5 -12q-19 -9 -29.5 5.5t5.5 26.5q-1 5 -3 18t-4 21t-9.5 19.5
t-20.5 20.5q-172 123 -221 145q-119 55 -329 117q-59 17 -211 42q-8 2 -22 4q-85 -45 -172 -77q-4 -1 -55 -27q-23 -11 -50 -21q-24 -8 -51.5 -14.5t-62.5 -13t-52 -10.5q-250 -56 -416 2q-40 16 -76.5 49.5t-38.5 51.5q-1 13 -11.5 37.5t-10.5 30.5l-1 96q-2 60 52 168
t111 194q90 122 126 160q7 7 19.5 20t22.5 24t24 25.5t27 25.5t27.5 22.5t28.5 19t28.5 12.5t29.5 4.5t28 -5.5q18 -14 17 -34q0 -28 -26 -43q-5 -3 -21.5 -14.5t-26.5 -15.5q-11 -5 -25 -21.5t-17 -18.5q-16 -9 -31 -7q-41 -20 -96 -68t-100 -109q-46 -63 -78 -140.5
t-41.5 -160t27.5 -139.5q31 -50 97 -75q182 -66 473 7q113 29 236 81q-1 0 -12 4t-20 6q-17 4 -30.5 1.5t-30.5 4.5q-24 14 -5.5 47.5t48.5 45.5q67 10 112 -16q12 -7 31.5 -18t24.5 -14z" />
    <glyph glyph-name="R" unicode="R" horiz-adv-x="1711" 
d="M146 -250q0 6 14.5 26.5t33.5 53.5t28 65q3 10 26.5 40t36.5 53q45 80 119 187.5t173 243t118 163.5q24 34 51.5 73.5t50 70t64.5 84.5l12 26q7 8 10.5 14.5t5.5 11t6 17t9 24.5l14 37q-3 5 13 21q-104 -7 -269 -29q-55 -8 -111 -18q-54 -10 -102 -20q-33 -15 -65 -40
q-14 -10 -34 -26t-32 -24.5t-22 -9.5q-6 -1 -34 -6.5t-35 -5.5t-35 2q-65 15 -9 66q36 32 69 43q126 39 195.5 55.5t195.5 32.5q126 17 256 25l61 3q39 40 83 44q31 2 41 -5.5t5 -36.5q538 0 665 -190q79 -115 -240 -300q-98 -57 -291 -141t-244 -113q-35 -20 -50.5 -35.5
t-10.5 -26t13 -16t28 -13.5t26 -12q48 -25 210.5 -99.5t238.5 -119.5q267 -156 304 -213l29 -40l3 -40q1 -15 -17 -19t-40 3.5t-30 20.5q-3 8 -5.5 19.5t-6 19t-12.5 17.5q-6 7 -22.5 33t-31.5 38q-19 15 -43 32.5t-39 27.5t-47 30.5t-40 25.5q-46 29 -137.5 67t-112.5 48
q-170 76 -333 110q-19 4 -37 12.5t-34 22t-15.5 33.5t22.5 42q7 7 16 14.5t22.5 15t24 14t29.5 15.5t30.5 14t35 15.5t34.5 15t39 16.5t39 16q187 70 242 98q10 5 74.5 34.5t92.5 44t73.5 44.5t74.5 61q35 36 38.5 79t-29.5 87.5t-102 76.5q-162 75 -452 71
q-1 -1 -5.5 -10.5t-14.5 -22.5q-14 -26 -37.5 -60t-25.5 -37q-10 -11 -18 -14q-39 -50 -105.5 -125t-88.5 -101q-16 -20 -56.5 -69.5t-68 -85t-58.5 -77.5q-84 -122 -156 -245q-84 -136 -121 -230q-48 -114 -52 -155q-9 -45 -18 -52q-4 -3 -12.5 -21.5t-20 -33t-26.5 -15.5
q-53 -1 -63 54q-7 21 6.5 43t15.5 40z" />
    <glyph glyph-name="S" unicode="S" horiz-adv-x="1790" 
d="M1799 933q6 -12 1 -30t-17 -28q-3 -3 -8 -9.5t-10.5 -11.5t-13.5 -8q-21 -7 -46.5 -3.5t-31.5 14.5q-2 4 -7.5 29t-16.5 32q-49 30 -102 25q-82 -6 -160 -39q-17 -4 -49.5 -21t-48.5 -29q-79 -63 -94 -99q-22 -54 -16 -128q7 -60 34 -141q29 -70 62 -131
q9 -18 24.5 -47.5t27.5 -52t20 -41.5q1 -2 2.5 -5.5t1.5 -4.5q100 16 212 17q36 1 75.5 -1.5t62.5 2.5q5 1 25.5 3.5t27.5 3t25.5 2t28.5 1.5h26.5t28.5 -1.5t26.5 -4.5t27.5 -8q11 -7 7 -19q-17 -16 -27.5 -14.5t-46.5 -8.5q-4 0 -11.5 2t-20.5 6.5t-24 7.5l-69 4
q-171 -16 -195 -16q-8 0 -161 -17q12 -28 35 -85q30 -90 -17 -196.5t-159 -170.5q-132 -80 -305 -140q-87 -30 -305.5 -59t-307.5 -22q-10 1 -44 2.5t-58 3t-52.5 7t-43.5 14.5q-103 56 -110 100q-12 77 47 141q80 77 239 154q48 24 93.5 40.5t92 30t69.5 21.5
q69 27 143.5 46.5t168.5 39t154 35.5q21 5 107 26t121 30q8 1 19 5l-3 8q-31 66 -73.5 190.5t-49.5 182.5q-11 97 27.5 189t117.5 159q38 32 84 47q123 42 237 49q119 5 162 -35q6 -6 14 -11.5t11.5 -8.5t7.5 -8.5t8 -14.5zM1306 18q-9 68 -34 132q-162 -24 -299 -66
q-30 -10 -175 -52.5t-229 -74.5q-27 -11 -119.5 -41.5t-148.5 -61.5q-95 -44 -136 -83q-48 -45 -50 -92q-1 -30 23.5 -54t64.5 -38.5t81.5 -22.5t79.5 -10q208 -5 328 26q29 7 100.5 15t102.5 14q64 15 125 40t85.5 38t82.5 46q76 46 101.5 125.5t16.5 159.5z" />
    <glyph glyph-name="T" unicode="T" horiz-adv-x="1172" 
d="M1600 1003q-20 0 -105 3.5t-127 2.5q-106 -1 -263 -17q-247 -25 -333 -38q-315 -47 -362 -52l-91 -10q-21 -5 -55.5 -18.5t-60.5 -21.5t-40 -4q-33 -6 -46.5 -11t-25.5 -7q-42 -13 -112 -11h-2h-1q-29 0 -58 10q-25 7 -39 34.5t17 44.5q9 3 39.5 12.5t46.5 13.5t41 8.5
t46 4t40 -6.5q35 -6 59 -4t65.5 8.5t57.5 7.5q24 4 86 13q69 6 288.5 33.5t289.5 32.5q360 26 642 8q15 -1 52 -4t46.5 -3.5t37.5 -3t37.5 -4.5t32.5 -5.5t36.5 -7.5t36 -10t44 -13t48.5 -17q12 -4 21 -19t0 -31q-8 -10 -35.5 -19t-40.5 -10q-26 6 -39.5 30t-23.5 28
q-45 18 -69 26.5t-73 17t-108 9.5zM597 61l4 4q32 49 96.5 148.5t103.5 160.5t91.5 147t93.5 159l18 33q-3 33 13 89.5t39 87.5q13 14 58 41q22 9 39 1.5t21 -30.5q2 -16 -14.5 -54t-36 -72t-45.5 -77t-30 -50q-41 -71 -139 -208t-135 -196q-27 -40 -66.5 -102.5
t-66.5 -102.5q-7 -10 -25.5 -49t-43 -93t-42.5 -87q-4 -15 -5 -27q0 -2 -7.5 -21.5t-7.5 -37.5q0 -9 2.5 -37.5t-3.5 -37.5q-10 -36 -47.5 -52t-53.5 16q-6 20 -1 49q-6 5 -11 14q-5 17 34 109q10 24 36 71q5 7 40.5 58.5t45.5 69.5q8 13 19.5 32t19.5 32l4 6z" />
    <glyph glyph-name="U" unicode="U" horiz-adv-x="1866" 
d="M2159 1004q21 -1 32.5 -13t12.5 -28q3 -11 -1 -23q-33 -61 -64.5 -107.5t-82.5 -111.5t-78 -102q-46 -65 -106 -144t-103 -140t-95 -150q-6 -10 -74.5 -120t-99.5 -175q-22 -47 -30 -68t-17 -63q-13 -46 -13 -64q-1 -16 13 -34l13.5 -18t10.5 -13.5t5 -9t1 -11.5
q0 -2 -9.5 -13.5t-11.5 -11.5q-23 -6 -46 0.5t-24 23.5q-1 9 -4 30.5t-3.5 31t3.5 30.5q9 29 20.5 65.5t16 50.5t13 36.5t17.5 42t23 47.5t36 70q50 96 102 183.5t84.5 136t106.5 155t113 164.5l-89 -78q-62 -47 -231 -180q-71 -56 -210 -151t-153 -105q-13 -9 -129 -93
t-169 -114q-9 -5 -76 -44.5t-127.5 -74.5t-125.5 -69.5t-90 -41.5q-16 -5 -32.5 -7t-40 -3t-32.5 -2q-44 -4 -68 28t-22 75.5t16 83.5q12 32 51 108q14 32 52.5 89.5t48.5 74.5q67 116 226 320q80 106 184 260q9 12 21.5 40.5t20 60.5t-8.5 42q-30 18 -103 23t-97 -4
q-30 -10 -90.5 -24.5t-97.5 -28.5q-36 -14 -56 -27t-55 -28q-39 -16 -119 -64q-91 -54 -121 -96q-12 -17 -22.5 -28.5t-16.5 -17t-22.5 -19l-27.5 -22.5q-18 -10 -47.5 -1.5t-40.5 28.5q-16 28 15 77q52 41 108 65q14 7 49 22t55 25q32 15 84.5 36.5t72.5 30.5
q49 22 92.5 39t73 27t76 22t69 17t86 18.5t95.5 20.5q33 6 67 2.5t52 -10.5q13 -6 26 -19.5t15 -26.5q4 -29 -6 -67q-17 -76 -178 -268q-14 -16 -46.5 -53.5t-55.5 -65.5t-43 -55q-20 -28 -61.5 -84t-73 -101t-56.5 -87q-13 -22 -38 -61.5t-39 -68t-26 -68.5
q-10 -27 -5.5 -81.5t28.5 -58.5q57 -9 184 45q168 71 283 142q185 121 372 260q162 121 292 230l114 90q34 27 79 70.5t69 61.5q8 6 16 13t20 19l21.5 21.5t29.5 30t34 34.5q59 62 80 109q6 13 19 31.5t18 26.5q8 15 32 24t40 8z" />
    <glyph glyph-name="V" unicode="V" horiz-adv-x="1507" 
d="M70 769l39 -4l96 14l93 27q85 25 268 107t292 107q21 0 29 -11q18 -8 28 -26q36 -62 11 -210q-12 -72 -24 -125t-21.5 -83t-29.5 -93t-37 -122q-82 -274 -123 -421q-41 -163 -22 -217q4 -14 30 -29q3 1 13 3.5t16 6t24.5 20t44.5 45.5q82 87 238 269q19 23 108 130
t148 175.5t113 124.5q153 160 356 319q55 43 80.5 61.5t85 60t107.5 64t87 28.5q45 4 64 1q11 -1 22 -17q13 -18 -23 -50q-33 -28 -93 -10q-4 1 -22 -2t-20 -1l-23 -7l-23 -7q-46 -25 -89 -55q-29 -20 -60 -45t-68.5 -58t-57.5 -49q-86 -73 -212 -207q-73 -75 -209 -231
q-53 -61 -167 -199.5t-162 -193.5q-9 -9 -33 -36.5t-48.5 -54.5t-43.5 -45l-16 -21q-17 -21 -37.5 -44.5t-46.5 -47.5t-53.5 -37t-48.5 -7q-7 2 -19 14q-32 31 -41.5 40.5t-18.5 32t-7.5 43.5t7.5 67q2 17 35 162q23 106 109.5 335t109.5 335q25 115 30 193q2 32 -20 108
q-4 14 -23.5 24.5t-36.5 15t-20 3.5q-5 -1 -20 -2.5t-29 -4.5t-26 -9q-51 -24 -177.5 -92t-194.5 -95q-18 -7 -71.5 -31t-80.5 -34q-78 -28 -97 -32q-9 -2 -23.5 -3t-23.5 -3q-10 -2 -26 6t-20 17q-18 39 10 83q6 8 24.5 18t30.5 10z" />
    <glyph glyph-name="W" unicode="W" horiz-adv-x="2439" 
d="M53 588q3 2 12 9.5t16 12.5t21.5 10.5t31.5 7.5q4 1 15 -5t31 -11.5t46 -3.5q29 9 124.5 28t139.5 39q116 50 371 187q53 28 115.5 68t93.5 55t55 12q39 -5 54 -14q20 -11 18 -48q-1 -6 -3 -35t-7 -42q-20 -56 -79.5 -143t-76.5 -120q-55 -96 -97 -190q-7 -15 -22 -50.5
t-25 -54.5q-11 -11 -73.5 -211.5t-25.5 -200.5q48 23 100.5 71t79.5 80t75 93q3 4 4.5 5.5t3.5 4.5t4 5q45 55 150.5 190.5t165.5 205.5q18 22 54 61q79 85 136 111q24 10 38.5 1.5t29.5 -32.5q5 -8 5 -50q0 -25 -25 -116q-4 -21 -15.5 -60.5t-15.5 -54.5
q-7 -30 -20.5 -78.5t-21.5 -86.5q-17 -78 -29 -233q-1 -12 -1.5 -34.5t-2.5 -33.5q-5 -40 8 -132q7 -55 26 -95.5t47 -40.5q91 0 241 179q47 49 236 275q209 256 268 323q18 20 59.5 66.5t55.5 61t45 46.5t60.5 57t68.5 57q20 17 56.5 46.5t48 38.5t36 28.5t36.5 27t34 21.5
t42.5 24.5t48.5 24.5q49 23 87 10t37 -47q0 -12 -10 -15t-28 -2t-24 0q-9 -1 -28 -2.5t-33 -3.5q-24 -4 -51 -15q-47 -19 -95 -57q-127 -95 -226 -205q-48 -50 -104.5 -116t-96 -116t-101.5 -129t-93 -118q-103 -127 -165 -192q-15 -16 -65 -73.5t-90 -99.5t-80 -75
q-59 -51 -119 -77q-80 -30 -144 -2q-54 25 -73 86q-12 38 -12 101q0 9 8 121q12 125 73 341q10 35 25 107.5t23 100.5q6 20 7.5 27.5t3 16.5t5.5 26q15 64 -16 64l-7 1q-7 0 -10.5 -0.5t-11.5 -4t-17 -9.5q-57 -42 -77 -67q-59 -76 -155 -194q-31 -40 -137.5 -191.5
t-155.5 -209.5q-5 -5 -18 -20t-19 -21.5t-17.5 -19t-19.5 -20.5t-18.5 -19t-21.5 -20.5t-22 -18.5q-5 -4 -16 -12t-17.5 -12.5t-15.5 -10t-16.5 -8t-13.5 -2.5q-41 -2 -68 26.5t-17 85.5q16 86 96 305q50 128 181 366q60 111 107 203q23 50 29 75.5t2.5 44t-3.5 22.5
q1 14 -13 14q-11 0 -43 -13q-29 -14 -143 -67t-144 -68q-286 -140 -450 -205q-36 -15 -51.5 -21t-50 -17t-56.5 -14t-52 -2.5t-55 8.5q-27 15 -12.5 48t47.5 55z" />
    <glyph glyph-name="X" unicode="X" horiz-adv-x="1992" 
d="M1539 -242q-11 0 -15 1q-41 8 -70 38.5t-43 61.5q-6 12 -21.5 42t-25 51t-22 63.5t-21.5 94.5q-3 17 -12 75t-15 91q-4 21 -20.5 87.5t-23.5 96.5q-4 15 -8 37t-7.5 38.5t-9.5 31.5q-201 -122 -272 -172q-94 -65 -244 -185q-37 -29 -105 -79.5t-99 -75.5q-30 -24 -83 -74
t-94 -80q-30 -22 -73 -87.5t-65 -106.5q-6 -14 -5.5 -29t4 -27t-7 -26t-38.5 -26q-2 0 -10.5 -1.5t-19.5 0.5q-23 4 -40.5 13.5t-19.5 20.5q-17 60 2 84q7 11 17.5 33t17.5 32t25.5 32t50.5 51.5t82 72.5q22 21 48.5 42.5t46.5 38t53 41t50 36.5t55.5 40t52.5 38
q107 82 345 239q177 116 311 191q-5 16 -13 61t-20 72q-10 25 -32.5 55t-30.5 48q-4 5 -11 15.5t-12.5 16t-14.5 11.5q-31 31 -94 40q-54 8 -98 -5q-22 -6 -45.5 -5t-50.5 -9q-67 -26 -152 -71t-108 -55q-27 -14 -72.5 -47.5t-61.5 -43.5q-9 -10 -24.5 -27.5t-24 -26.5
t-20.5 -19.5t-21.5 -15t-19.5 -4.5q-27 5 -34 2.5t-14 -1t-28 15.5q-5 4 -7 7.5t-3.5 9.5t-2.5 9q5 10 13 20.5t16 19.5t21 19.5t22 17.5t25.5 17.5t24.5 15.5t26.5 16t23.5 14t24 13t21 11q172 87 380 145q124 32 195.5 34.5t125.5 -11.5q21 -4 46.5 -29.5t37.5 -53.5
q41 -95 45 -127l16 -130q214 121 433 224q219 107 321 131q87 22 131 0q35 -8 45 -21.5t-2 -28t-20.5 -22t-17.5 -12.5q-19 4 -31.5 1.5t-22.5 0.5t-15 18l-49 2q-4 -1 -105 -25q-103 -35 -259.5 -103t-267.5 -126q-94 -54 -130 -76q4 -9 23 -94q6 -26 14.5 -66.5
t11.5 -53.5q8 -26 21.5 -96t26.5 -116q16 -56 26.5 -76.5t15.5 -43.5q21 -101 98 -163q32 -26 66 -32q2 0 77 14q88 31 126 57q28 18 118 86q4 8 60 42l55 34q7 7 14 9t11.5 0t3.5 -5q-1 -7 -11 -18t-23 -22.5t-16 -15.5q-26 -24 -94.5 -69t-91.5 -63l-88 -64
q-5 -4 -21.5 -15t-23 -15.5t-21 -13.5t-23 -13t-20.5 -9t-22.5 -7.5t-20.5 -2.5z" />
    <glyph glyph-name="Y" unicode="Y" horiz-adv-x="2109" 
d="M124 452q-31 -22 -76 -14.5t-50 40.5q-3 32 30.5 80t75.5 77q146 100 280.5 167t299.5 122q28 9 79.5 27t93.5 30.5t79 19.5q45 9 104.5 10.5t86.5 -3.5q38 -4 78 -32q32 -24 41 -54q14 -42 -19 -116q-39 -87 -90 -153q-25 -32 -65 -88.5t-53 -73.5q-15 -20 -64 -78
t-71 -88q-20 -28 -46 -75.5t-45 -74.5q-73 -152 -60 -209q18 -64 264 57q21 11 44.5 24.5t54 33t53 34t61 41.5t56.5 39.5t62.5 44t55 39t56.5 41.5t48 35q77 55 228 184.5t198 164.5q52 46 120 122q50 56 89 76q37 21 96 1q33 -11 12 -77q-15 -39 -40 -84t-68.5 -114.5
t-50.5 -81.5q-91 -157 -242 -386q-14 -22 -76.5 -98t-70.5 -86q59 31 230 99q20 8 64.5 27.5t76.5 30.5q63 23 90 25q20 1 37 -12q15 -11 -1 -23q-22 -17 -40 -21q-12 -4 -19 -4q-8 -1 -19 -1h-17t-15.5 -2t-20.5 -7q-25 -9 -72 -25.5t-85.5 -31t-68.5 -29.5
q-34 -18 -98 -49t-100 -50q-54 -67 -131.5 -159t-123.5 -148q-80 -96 -127.5 -151.5t-116 -127.5t-131.5 -126q-135 -120 -215 -162q-79 -40 -110 -31q-13 4 -19.5 14t-7.5 18t-0.5 28t0.5 27q-1 85 195 284q5 5 215 199q43 40 92.5 75t121 80t102.5 66q77 53 191 120
q21 31 107 139.5t116 151.5q118 165 224 373q35 68 76 161q0 10 -6.5 14t-24.5 -5q-4 -3 -55 -35t-83 -56q-46 -34 -197.5 -167.5t-217.5 -179.5q-39 -27 -128 -96t-97 -75q-129 -96 -234 -159q-77 -43 -191 -92.5t-146 -35.5q-12 4 -33 7t-33 8q-22 9 -27 48
q-2 14 0.5 29.5t10.5 40t10 33.5q7 43 102 180q70 102 213 289q38 51 131 204q26 44 35.5 62t20 51.5t10.5 67.5t-14 53q-8 12 -27.5 18t-30.5 6.5t-44 2.5q-80 3 -170.5 -12t-149.5 -40q-185 -76 -267 -123q-23 -13 -46.5 -28.5t-51.5 -38t-44.5 -36t-51.5 -43t-46 -38.5
q-27 -20 -46 -70t-30 -66zM1243 -466q39 44 92 100t93 101.5t84 104.5q-49 -29 -131 -92q-172 -131 -322 -258q-72 -60 -161 -168q-60 -74 -102 -154q-13 -25 -7 -25q4 0 45 30q8 5 13 9q27 19 48.5 32t36 23.5t43.5 34.5q161 135 268 262z" />
    <glyph glyph-name="Z" unicode="Z" horiz-adv-x="1702" 
d="M272 353q29 -23 28 -38q-3 -25 -41 -51q-39 -26 -73 -22q-48 8 -64.5 42t-6 73.5t37.5 76.5q61 81 141 146q119 94 212 141q17 8 73 37.5t93.5 48t73.5 32.5q473 203 773 168q44 -4 99 -20.5t82 -32.5q39 -23 70.5 -65.5t35.5 -74.5q0 -1 1.5 -13.5t1.5 -14.5t1 -13
t0.5 -15t-0.5 -13.5t-1 -15t-3 -13.5t-5 -15q-34 -91 -150 -205q-19 -19 -41.5 -38t-53 -41.5t-44.5 -34.5q-32 -23 -108 -79.5t-117 -85.5q-92 -62 -188 -157q-50 -44 -50 -64t36 -31q30 -9 74 -31.5t72 -50.5q93 59 138 83q20 11 79.5 41.5t101.5 56.5q25 15 39 21.5
t35 14.5t34 13q35 16 62 23q8 4 25 3t20 -8q0 -1 4.5 -10t5 -13t1 -11.5t-4.5 -12.5t-15 -8q-16 -5 -35.5 -4t-30.5 -4q-22 -11 -52 -17.5t-55 -20.5q-38 -22 -95 -46q-129 -56 -233 -130q4 -7 8 -21q25 -93 -20 -181q-41 -81 -137 -180q-52 -51 -166 -136
q-278 -217 -431 -279q-13 -5 -25 -11.5t-37 -14.5q-39 -13 -75.5 -15t-59.5 15.5t-10 57.5q28 113 277 321q240 207 583 429q-15 10 -40.5 20.5t-45.5 16.5t-53 15t-47 13q-35 10 -54.5 33t-13 55t45.5 62q36 27 142.5 95t150.5 98q163 113 240 180q18 13 40 34t51.5 52
t37.5 39q90 86 90.5 176.5t-84.5 148.5q-135 94 -295 77q-168 -11 -346.5 -67t-341.5 -150l-105 -61q-51 -30 -97 -72q-57 -50 -82 -81q-41 -50 -72 -95q-17 -28 -20 -44q-2 -19 -1 -21.5t10 -9.5zM1192 -275q8 55 -3 81q-50 -36 -180.5 -125t-196.5 -140
q-236 -178 -343 -363q-1 -1 -5 -8t-7.5 -13t-6 -13.5t-1 -12.5t8.5 -6q29 -4 109 37q224 111 364 221q242 189 261 342z" />
    <glyph glyph-name="bracketleft" unicode="[" horiz-adv-x="849" 
d="M551 837q8 14 14.5 38t6.5 25q1 12 9 35.5t17 37.5q10 16 27.5 23.5t34.5 5.5l3 -1q22 0 70 3q201 16 399 -16q13 0 17.5 -11.5t-6.5 -23.5l-13 -11q-9 -6 -43.5 2t-37.5 14q-6 0 -20 3t-21 3q-12 1 -33 -0.5t-30 -1.5q-23 1 -80.5 -9.5t-64.5 -11.5q-10 -1 -41 -3.5
t-50.5 -5.5t-23.5 -9q-9 -29 -50 -96q-21 -36 -171 -272t-217 -371q-82 -165 -98 -291q-8 -71 12 -98q26 -36 101 -48.5t144.5 -6.5t118.5 18q59 15 76 21q27 27 28 30l3.5 10.5t4 11.5t4.5 9t6 3.5t8 -4.5q28 -19 32 -39q1 -1 0 -8v-4q-3 -11 -14 -18q-23 -13 -48 -25
t-54.5 -21.5t-50.5 -16.5t-57 -15t-51.5 -11.5t-56 -11.5t-50.5 -10q-77 -19 -95 -12q-11 5 -34 13.5t-34 13.5t-28.5 15.5t-24.5 22t-14 29t-5.5 41.5t9.5 55q3 13 12.5 55.5t17.5 70t19 52.5q12 28 41 95.5t46 103.5q24 50 62 120.5t67.5 122.5t76.5 133.5t63 110.5
t35.5 71t31.5 65zM688 -209v-1q-1 -1 -1 -2q0 2 1 3z" />
    <glyph glyph-name="backslash" unicode="\" horiz-adv-x="702" 
d="M175 638q-6 21 -24 68.5t-25 70.5q-15 15 -19.5 34t-3 41t0.5 28q-6 56 13 91q11 19 37.5 17.5t29.5 -25.5q10 -88 19 -151q22 -171 50 -269q10 -35 26 -107t20 -87q17 -68 51 -157t42 -117q35 -122 106 -282q47 -33 52 -43q4 -9 10 -16.5l8 -10t1 -9t-8 -17.5
q-13 -15 -36 -8q-16 8 -34 34t-32.5 56.5t-31 73t-26 70.5t-20.5 61l-11 33q-6 18 -39 102.5t-41 130.5q-3 19 -17 55.5t-16 42.5q-18 55 -46 159.5t-36 130.5z" />
    <glyph glyph-name="bracketright" unicode="]" horiz-adv-x="744" 
d="M272 -220q3 0 23 2q1 4 1 13.5t1 14.5q2 13 13 54q1 3 7 12q70 153 149 297q37 66 115.5 194t114.5 190q3 6 21 36.5t25.5 44.5t24.5 46t26 51t21.5 48.5t19 50t11 44t3.5 41.5q0 31 -31 46t-62 15q-38 0 -69.5 -4t-47.5 -9t-43.5 -15.5t-42.5 -15.5q-8 -2 -48 -13
t-56 -17q-11 -4 -34 -16t-35 -15q-22 -7 -41 -4q-17 3 -25 9t-12 24l1 1v1q1 15 15 36t29 30q9 4 21.5 4t28.5 -1t25 -1q54 3 103 13q162 35 243 34q53 -1 84.5 -8.5t73.5 -30.5q1 0 11 -16q1 -4 8 -18.5t9 -22.5q8 -20 -6 -60t-33 -74t-45 -76.5t-30 -50.5
q-10 -19 -38.5 -59.5t-37.5 -56.5q-27 -47 -86 -132.5t-78 -114.5q-57 -93 -75 -125q-23 -39 -49.5 -97.5t-39.5 -82.5q-9 -16 -20 -54.5t-14 -45.5q-2 -6 0 -28.5t-4 -33.5q0 -5 4 -29q3 -13 17 -19q12 0 17 -15t-1.5 -31t-20.5 -18q-83 21 -106 20q-145 -5 -207 -17
q-89 -23 -125 -29h-7q-27 -6 -98.5 -27t-102.5 -25q-22 3 -26 19.5t12 33.5q1 1 7 9.5t9.5 12.5t10 10.5t12.5 10.5t13 6q16 5 46 5t33 1q43 14 190 24q118 6 198 4z" />
    <glyph glyph-name="asciicircum" unicode="^" horiz-adv-x="0" 
d="M-1814 -556q-15 -4 -41.5 2.5t-37.5 22.5q-12 21 -3 48.5t27 33.5q33 13 73.5 26.5t67.5 21.5t78 22t71 20q229 57 529 99q183 29 652 78q175 17 485 33t379 21q296 23 493 26.5t302 -4.5q268 -12 390 -13q173 -2 385 5q507 15 935 -70q22 -5 69.5 -15t76 -16.5t68 -19.5
t70.5 -30q63 -25 95 -48.5t19 -45.5q-9 -13 -18 -15.5t-26 2.5q-6 2 -13 9t-15.5 17.5t-13.5 15.5l-36 20q-50 33 -104 54l-31 7q-2 1 -149 36q-391 76 -925 62q-231 -6 -398 -4q-28 0 -385 10q-309 9 -785 -28q-971 -77 -1510 -152q-124 -18 -175 -29t-190 -47
q-13 -4 -58.5 -15t-89.5 -23t-75 -24q-48 -18 -108 -51.5t-78 -41.5z" />
    <glyph glyph-name="underscore" unicode="_" horiz-adv-x="1091" 
d="M194 15q18 -5 49 -7.5t32 -2.5l52 3q72 4 245 23q180 20 227 20q136 0 136 -39q0 -10 -6 -17t-14 -7q-4 0 -9 3t-11.5 8t-9.5 7q-1 0 -6.5 2t-9.5 3q-6 1 -18 -0.5t-15 -1.5t-87 -7q-6 0 -290 -36q-19 -2 -61 -7.5t-67 -9t-60.5 -6t-65.5 -2.5q-9 0 -43.5 -3t-50.5 -1
q-9 2 -22 10.5t-21 10.5q-23 9 -23 33q0 28 16.5 41t34.5 13q21 0 57 -15t41 -15z" />
    <glyph glyph-name="grave" unicode="`" horiz-adv-x="638" 
d="M181 567q19 0 106 -36q14 -3 49 -11.5t53 -10.5q21 -3 64 -5.5t67 -6.5q1 0 3 -0.5t3 -0.5q11 5 44 8q21 4 29 -21q0 -10 -7 -17q-7 -6 -17.5 -7t-27.5 1.5t-20 2.5q-24 2 -71 1.5t-71 0.5q-165 10 -171 11q-1 -1 -8 0l-6 2q-9 0 -27.5 5.5t-28.5 14.5q-21 19 -21 37.5
t24 28.5z" />
    <glyph glyph-name="a" unicode="a" horiz-adv-x="861" 
d="M542 305q10 -37 -16 -59.5t-55 3.5q-8 13 -38.5 20t-45.5 0q-2 -1 -27.5 -8t-43.5 -17q-25 -14 -78.5 -48.5t-69.5 -43.5q-44 -26 -74.5 -58.5t-28.5 -46.5q17 -14 47 1q20 8 77 31t85 35q92 39 97 41q18 7 69.5 31t91.5 40.5t54 16.5q11 0 25 -10.5t14 -21.5
q-1 -28 -38.5 -86.5t-37.5 -74.5q0 -23 40 -23q8 0 42 4q150 34 229 86q18 3 20.5 -7t-12.5 -21q-268 -179 -363 -117q-30 19 -25 70q5 45 32 100q3 11 -5 15t-18.5 2.5t-16.5 -4.5q-5 -3 -33.5 -12.5t-49.5 -19.5q-9 -4 -27 -16t-27 -16q-24 -11 -89.5 -43t-96.5 -45
q-89 -37 -134 -39q-2 0 -44 6q-26 14 -30 37q-2 14 8 39q16 36 63 83q31 30 118 90q80 49 166 82q29 11 61.5 19t40.5 12q9 4 77 8q32 3 51 -18z" />
    <glyph glyph-name="b" unicode="b" horiz-adv-x="761" 
d="M77 233q33 66 112 201.5t90 155.5q2 10 5 16q14 24 28 62q0 12 8 35t9 34q2 16 36 57q20 23 48 23q11 0 22 -7q1 -1 3 -1q11 -9 11 -29l-1 -7q0 -3 -1 -10t-1 -11q-7 -33 -33 -71q-10 -15 -29 -52t-34 -52q-27 -44 -113.5 -168t-117.5 -182q-2 -3 -9 -15t-10 -19
q111 57 116 60q75 44 169 70.5t182 26.5q7 0 10 -2q33 -17 51.5 -35.5t18.5 -49.5q0 -29 -13 -50q-14 -23 -62 -62q114 28 163 28q25 0 43 3t23 3q38 0 38 -26l-3 -11q-6 -13 -19 -13q-15 0 -18 13q-20 6 -31 6q-2 0 -4.5 -0.5t-3.5 -0.5q-13 -3 -30 -8.5t-38 -6.5
q-17 -1 -61 -14.5t-60 -17.5q-50 -11 -166 -64q-190 -105 -269 -105h-3q-16 -4 -21 -4q-25 0 -32 29q2 14 16.5 25.5t54.5 33.5q15 8 142 69q58 28 170.5 100.5t112.5 96.5q0 18 -60 18q-91 0 -282 -110q-48 -29 -106 -82q-12 -11 -23.5 -28t-13.5 -19q-31 -36 -56 -36
q-20 0 -33 12t-13 29q0 23 17.5 54t41 64t29.5 44z" />
    <glyph glyph-name="c" unicode="c" horiz-adv-x="644" 
d="M492 230h-1h-2q-2 0 -3 -1q-16 -7 -46.5 -2t-44.5 19q-43 -2 -55 -6l-24 -9q-10 -4 -47.5 -10.5t-48.5 -11.5q-31 -13 -74 -43q-24 -18 -53 -43q-15 -15 -19 -34q-5 -18 -3 -33q-1 -6 9.5 -11.5t22 -9t20.5 -4.5q37 -6 108 6q83 9 335 86q31 11 66 25t56 22q24 9 33 -2
q7 -8 -11 -20q-26 -17 -130 -54q-14 -5 -59 -24t-83 -32.5t-70 -20.5q-210 -51 -276 -55q-16 0 -42 -0.5t-51.5 11t-28.5 34.5q-2 27 0 49t17 43q6 8 46 51q65 65 177 116q94 43 268 84q14 2 19 2t18.5 -2.5t18.5 -3.5q27 -8 31 -34l-2 -29l-1 -7q-3 -2 -6.5 -4.5t-6.5 -4.5
t-7 -4.5t-7 -4.5q-15 -16 -43 -28z" />
    <glyph glyph-name="d" unicode="d" horiz-adv-x="952" 
d="M508 347q15 -5 25 -16.5t8 -21.5q-5 -24 -31.5 -43.5t-50.5 -12.5l-17 5q-17 6 -33.5 9t-37.5 -1q-6 -3 -18 -5.5t-18 -4.5q-4 -1 -84 -43q-94 -49 -130 -92q-8 -11 -29.5 -33t-25.5 -27q-5 -6 -7 -10t-2.5 -6t1 -3.5t3 -1.5t3.5 -0.5t3 -0.5q13 0 17 -1t18 2.5t19.5 5.5
t22.5 7.5t26 8.5q62 24 147 74q20 12 49 28t40.5 23t37 25t62.5 46q43 34 64 54q28 27 103 123q5 9 154 224l28 42t35.5 52t32.5 40.5t40 39.5q33 12 53 -11q17 -10 15 -39t-19 -52q-1 -3 -6.5 -9.5t-7.5 -7.5l-15 -11q-26 -19 -52 -45.5t-35 -33.5l-6 -8
q-17 -23 -64.5 -84.5t-70.5 -92.5t-56.5 -83t-57.5 -99q-4 -9 -18 -32.5t-22.5 -42t-17 -42.5t-6 -47t16.5 -42q11 -15 43.5 -19t49.5 2q128 17 201 54q8 4 18.5 8.5t16 7.5l16.5 9t25 16q14 6 17.5 1.5t-5.5 -15.5q-6 -9 -17 -18t-21 -15.5t-29.5 -19t-31.5 -20.5
q-68 -44 -152 -76t-125 -21q-42 12 -63 52.5t-16 98.5q2 28 21 88q11 38 28 69q-18 -18 -48 -43q-23 -19 -38 -29t-25 -15.5t-37.5 -21.5t-63.5 -39q-15 -8 -62.5 -39.5t-71.5 -42.5q-4 -2 -36 -15t-46 -18.5t-41 -14t-47.5 -11.5t-38.5 -1q-40 4 -58.5 32t-0.5 63
q14 26 48.5 64t68.5 60q67 43 121 72q61 30 190 71q90 32 124 22z" />
    <glyph glyph-name="e" unicode="e" horiz-adv-x="672" 
d="M215 116q-64 -26 -89 -10q-12 2 -15 9l-14 -12q-11 -9 -23 -31q-5 -8 -5 -22q0 -8 21 -19q39 -18 131 -9q93 6 146 18q35 8 64 16t64.5 20.5t52.5 17.5q11 4 38.5 12t44.5 14q51 15 71 30q8 7 20.5 5t7.5 -15q-1 -3 -5 -6.5t-11 -7.5t-12.5 -6.5t-16.5 -7t-16 -6.5
q-80 -37 -111 -47q-48 -18 -156 -52q-20 -5 -69.5 -19t-78.5 -19q-66 -12 -70 -12q-87 -8 -134 -5q-18 1 -39 9q-8 3 -15.5 9t-9.5 7q-27 16 -27 54q0 35 10 51q1 1 8 11.5t15.5 21t18.5 19.5q34 33 71 56q55 35 70 43q9 5 37.5 17t53.5 24q95 45 176 60l39 8
q31 4 70.5 -2.5t42.5 -32.5q1 -20 -25 -43q-33 -27 -56 -39q-50 -27 -191 -79q-21 -8 -45 -14q-23 -11 -39 -16zM188 175q-19 -11 -22 -13h4q7 0 39 2h11.5t10.5 1l22 4l23 7q22 6 35 12q106 46 137 70q10 8 1 17q-13 5 -23 5q-42 -5 -80 -21q-4 -2 -16.5 -8.5t-17.5 -9.5
l-38 -18q-45 -22 -86 -48z" />
    <glyph glyph-name="f" unicode="f" horiz-adv-x="486" 
d="M512 852q12 -17 1 -35q2 -41 -23 -60q-44 -64 -52 -75q-29 -56 -66.5 -116t-71.5 -111.5t-42 -65.5q-12 -20 -51 -73.5t-59 -85.5l13 4q24 8 41.5 12.5t43.5 8t43 5t64.5 5t82.5 6.5t43.5 4t26 1.5t20 0t26.5 -2t44 -2.5q13 -3 27.5 -10t16.5 -14l3 -7q2 -5 -7.5 -23
t-15.5 -19q-23 -3 -37 2q-4 0 -18 9.5t-22 11.5t-33.5 6t-35.5 9q-39 0 -70 -3q-21 -2 -35.5 -5t-31.5 -7t-30 -7q-6 -1 -18 -3.5t-15 -3.5t-11.5 -3t-11.5 -3.5t-10 -4.5t-13 -6.5t-13.5 -8t-17.5 -11.5q-54 -35 -62 -58q-6 -16 -39 -156q-15 -78 -70 -212
q-42 -104 -67 -151q-39 -77 -85 -155q-48 -81 -64 -105q-2 -2 -7.5 -11t-11.5 -17.5t-15 -21t-17.5 -23.5t-19.5 -23t-22 -21.5t-23.5 -17.5t-24 -12t-24 -4t-24.5 5q-19 9 -24.5 35t-3.5 40t8 43q7 37 37 111q37 91 80 176q134 253 261 450q14 21 40 63q-5 2 -12 3.5
t-11.5 2.5t-9 3t-6.5 4.5t-1 5.5q9 37 33.5 54.5t75.5 31.5l120 189l22 37q9 18 25.5 49t22.5 42l33 72q6 14 8.5 21t6.5 15t18 34q5 9 33 83q3 9 2 16t8 18q0 7 20 33t42 37q20 20 43 8q11 -3 20 -13zM58 -16q21 76 -2 100q-84 -131 -115 -184q-41 -72 -91 -172.5
t-63 -124.5q-31 -58 -75 -177q-15 -41 -25 -84q-3 -9 -2 -13t2 -4.5t3.5 -2t4.5 -5.5q15 11 77.5 94.5t87.5 129.5q20 36 35.5 63.5t22 38t19.5 37t36 75.5q48 105 85 229z" />
    <glyph glyph-name="g" unicode="g" horiz-adv-x="889" 
d="M773 53q-8 -4 -18.5 -9.5t-16.5 -8.5q-63 -32 -78 -43l-96 -77q-80 -135 -162.5 -241.5t-218.5 -257.5q-42 -50 -98 -108l-18 -20q-18 -20 -42.5 -45.5t-52.5 -50.5t-54 -39.5t-41 -8.5q-17 5 -14 33q5 51 16 75q10 23 17 36t37.5 55t86.5 111q97 118 268 272
q67 60 153 127l51 42q65 108 85 202q3 14 -18.5 30t-29.5 14t-22 -3t-17 -2q-27 -4 -82 -26q-23 -10 -90.5 -36t-99.5 -39q-107 -43 -137 -50q-86 -20 -111 -6q-26 15 -26 54q1 25 50 77q45 45 120.5 93t157.5 81q86 33 195 69q23 7 109 -1q10 -2 13.5 -5.5t7.5 -13.5l5 -46
q0 -30 -23 -42q-40 -18 -61 0q-18 17 -48 28.5t-54 -0.5q-13 -6 -46 -15t-69 -26q-96 -44 -178 -109q-5 -3 -37 -36q-9 -11 -14 -22q-3 -4 -1 -7t13 -4q24 -1 56 6q4 1 61 16q65 17 146 52q67 28 158 58q31 12 61.5 18t63 -1t42.5 -34q15 -44 -59 -170l38 22q58 35 124 65
q45 26 62 32q12 5 34 15.5t33 13.5q12 2 17 2q10 0 22 -11t11 -22q-2 -15 -20 -26q-9 -5 -26 -6t-29 -5q-7 -2 -21.5 -3t-22.5 -2q-6 -2 -19 -5.5t-19 -5.5q-5 -2 -24 -10zM138 -562q17 19 56.5 65t55 64t46.5 54.5t49 61t43 58.5t48 69l-13 -12q-101 -86 -334 -355
q-65 -77 -69 -119q26 25 42 38.5t21 17t17.5 16.5t37.5 42z" />
    <glyph glyph-name="h" unicode="h" horiz-adv-x="826" 
d="M368 785q12 19 27 25q13 6 38 6h3q26 -7 34 -30q5 -27 -26 -81q-7 -38 -48 -89l-17 -20q-94 -155 -202 -309q-4 -6 -21 -29.5t-25 -36.5l-23 -39q-23 -53 -16 -57q2 -1 54 25q42 21 105 63q64 40 143 83q40 22 70 28q70 12 77 -37q3 -20 -25 -79q-36 -76 -35 -126
q0 -15 4 -23q4 -10 27 -16t45 -5q56 2 124 14q56 12 84 25q1 0 53 28q25 13 28 4q1 -5 -8 -14q-42 -39 -111 -72q-110 -53 -208 -66q-21 -2 -48 7t-46 27q-52 51 23 198q18 36 18 37q0 5 -5 5q-64 5 -132 -31q-22 -12 -44 -25t-32 -20.5l-28 -21t-19 -14.5q-9 -6 -99 -77
q-14 -10 -34.5 -29t-35.5 -30t-29 -16q-19 -7 -41 1t-25 24q-5 25 35 90q13 22 40 59t35 50q14 21 50 70.5t55 78.5q23 36 66 113.5t63 110.5q10 16 30 60t26 55q8 15 13.5 53.5t12.5 52.5z" />
    <glyph glyph-name="i" unicode="i" horiz-adv-x="463" 
d="M-9 20q-9 16 -4.5 43t11.5 45t21 49q48 98 63 118q26 40 92 49q12 1 25 -8.5t15 -20.5q7 -17 -17 -41q-8 -8 -16.5 -15t-17.5 -12.5t-12 -7.5q-6 -7 -17.5 -15.5t-12.5 -9.5q-24 -23 -40 -52q-22 -42 -13 -78q11 -48 97 -32q17 4 59.5 12t72.5 15.5t57 16.5q58 19 121 55
q26 5 30 -5q2 -4 -4 -10q-209 -137 -360 -157q-52 -7 -94 6t-56 55zM330 670q29 11 42 6q12 -7 14 -13t-9 -28q-24 -33 -38 -45.5t-42 -27.5q-3 -2 -12 -4t-24 -1t-24 9q-4 4 -4.5 15t-2.5 14q-10 29 53 57q4 2 27 11q8 4 12 4.5t8 2.5z" />
    <glyph glyph-name="j" unicode="j" horiz-adv-x="376" 
d="M369 72q-1 0 -8 1t-14.5 1.5t-19.5 -0.5l-21 -13l-60 -12q-37 -15 -158 -71q-24 -11 -48 -27t-49.5 -38.5t-41.5 -37.5t-45.5 -44t-39.5 -39q-31 -49 -68 -95q-21 -28 -56 -80t-57 -81q-16 -21 -53 -74t-53 -74q-29 -39 -63 -70.5t-38 -35.5q-21 -24 -55.5 -51.5
t-42.5 -15.5q-15 19 -5 45q20 57 86 161q55 89 154 194q112 121 190 184q47 61 91 131q85 146 115 207l38 80q6 15 17 45.5t15 40.5q14 38 31 55l19 8q30 12 47.5 -5t14.5 -47q-1 -13 -2.5 -20.5t-3 -10.5t-6 -9.5t-7.5 -12.5q-6 -7 -16 -22.5t-19.5 -27.5t-18.5 -20
l-26 -37q-50 -71 -146 -231q62 52 115 75q20 10 84 43.5t99 47.5q5 2 20 9.5t29 13t26 6.5q53 26 85 35q7 2 18 -1.5t13 -3.5q22 -9 0 -38q-26 -33 -62 -38h-4zM349 662q1 -6 -2.5 -22t-12.5 -26v-4q-12 -19 -31 -38t-37 -19q-13 -10 -28 -6q-4 2 -5 2q-23 13 -28 36t11 42
q8 8 20 15l57 22q17 7 33.5 7.5t22.5 -9.5z" />
    <glyph glyph-name="k" unicode="k" horiz-adv-x="717" 
d="M345 745q8 25 22.5 42t32.5 18q21 15 40 4.5t25 -42.5q0 -3 -12 -33q0 -12 -6 -24.5t-12 -20t-19 -21t-17 -17.5q-7 -8 -16 -25.5t-17 -28.5q-25 -44 -32 -56q-35 -55 -101 -155.5t-89 -135.5l-36 -86l-4 -8q79 61 203 121q29 15 78.5 31.5t53.5 18.5q76 27 129 34
q38 5 76 -12q29 -11 33.5 -30t-15.5 -41q-28 -31 -53 -42q-8 -4 -26 -14t-33 -17.5t-28 -12.5l-76 -34q-11 -3 -29.5 -17.5t-25.5 -17.5q-20 -9 -26 -33q-1 -4 1.5 -8.5t7.5 -10t7 -8.5q6 -8 22 -24q7 -7 15.5 -12.5t21 -12.5t19.5 -11q58 -24 199 -102q86 -48 114 -79
q12 -13 3 -24l-7 -9q-9 -11 -36.5 9t-40.5 42l-44 37q-12 9 -86 38q-9 3 -55 19.5t-63 25.5q-4 2 -54.5 23t-64.5 35q-6 5 -20 14.5t-22 17t-12 16.5q-5 13 -4 23q0 10 5.5 20t16.5 19t21 16.5t26.5 15.5t25.5 12t25 11t18 8q13 5 29.5 14.5t32 19.5t20.5 13t13.5 7.5t12 7
t10 10t14.5 20.5q-41 6 -95 -9q-43 -11 -89 -31q-85 -40 -217 -157q-14 -12 -61 -56q-10 -9 -13.5 -15t-6 -13t-6.5 -14q-10 -15 -11 -16q-18 -12 -26 -14q-40 -9 -63 18q-4 8 -5.5 15.5t0.5 16.5t3.5 15t7 17t8 15.5t10.5 17.5t11 17q19 30 38 52q4 8 9 13q2 14 23 35
t25 31l2 3q17 31 52.5 93.5t48.5 84.5q61 107 108 208q5 11 15.5 28t18.5 34q4 13 11.5 38z" />
    <glyph glyph-name="l" unicode="l" horiz-adv-x="441" 
d="M-33 19q4 30 30 89t54 106q7 12 51.5 90t81.5 139t78 121l32 45q5 8 8.5 15.5t18.5 29.5q2 4 19.5 35.5t29.5 49.5q26 52 51 71q5 15 12 24q9 9 29 14q7 2 20.5 -5t20.5 -18q0 -1 0.5 -2.5t1.5 -2.5q14 -14 7 -42q-1 -2 -1 -9t-2 -12q-11 -16 -24 -28l-72 -82l-4 -4
q-40 -50 -74 -90q-57 -69 -126 -176q-116 -180 -149 -253q-22 -50 -21 -81q2 -29 56 -26q48 3 85 14q20 7 48 16t43 14t36.5 14t43.5 20q21 11 68 31.5t72 33.5q22 10 27 0q2 -7 -10 -15q-122 -82 -193 -121q-148 -82 -241 -87q-51 -3 -82 16t-25 66z" />
    <glyph glyph-name="m" unicode="m" horiz-adv-x="1116" 
d="M464 54q2 0 4 1q3 2 26.5 23t41 36t49 41t56 45t54.5 41t53 35.5t43.5 22t32.5 6.5q45 -6 53.5 -36.5t-10.5 -75.5q-6 -17 -14 -57t-8 -52q-1 -41 28 -55t71 -13q59 0 150 48v1q2 1 7 1q12 1 17.5 -3.5t2.5 -11.5t-13 -12q-8 -5 -24.5 -14.5t-25.5 -14.5t-26 -14
t-26.5 -13.5t-26.5 -12t-25.5 -9.5t-25 -7t-24.5 -3t-23 1q-55 8 -73 42.5t-13 96.5q1 5 0 39t-1 36q0 25 -7.5 37.5t-24.5 7.5q-40 -11 -119 -72q-31 -24 -86 -71t-91.5 -76t-50.5 -33q-10 -6 -24 -8q-30 3 -38 12q-1 2 -6.5 12t-7.5 15q-4 28 46.5 121t46.5 107q-1 9 -9 9
q-26 0 -76 -24.5t-101 -65.5l-112 -90l-54 -46l-10 -8q-10 -8 -14.5 -11t-16 -11.5t-18.5 -12t-18.5 -9.5t-20 -8t-18.5 -3.5t-18 1t-15 8.5q-22 19 -5 50q38 77 150 220q7 11 9.5 26t8.5 26q2 11 10 21l8 8q13 9 33 11.5t37 -4.5q16 -7 25 -20t7 -27q-18 -40 -68 -86
t-69 -72q-25 -33 -33 -46l9 7l1 1q15 11 31 21.5t35 22.5t30 19q115 78 229 144q1 1 31 19t45 25.5t39.5 14.5t40.5 2q10 -6 14 -20q13 -20 -54 -162q-15 -30 -27.5 -62t-3.5 -32z" />
    <glyph glyph-name="n" unicode="n" horiz-adv-x="879" 
d="M114 285v1q23 31 53 38q26 10 44 -2.5t16 -39.5q-7 -20 -29.5 -49.5t-53.5 -63t-40 -45.5q-18 -21 -10 -23q1 0 3 -0.5t4.5 -1t7 0.5t10.5 4q24 11 48 25q3 2 76 46t122 73q136 74 183 68q31 -4 45.5 -20t13.5 -40.5t-6 -55.5q-9 -52 -11 -93q0 -36 27.5 -55t65.5 -19
q70 0 174 51v1q2 1 7 1q21 1 22.5 -9t-16.5 -20q-6 -3 -34 -18t-38.5 -20t-35 -17t-38 -17t-33.5 -11.5t-36 -8t-31 -0.5q-34 2 -62.5 29.5t-32.5 67.5q-4 45 1 90q2 23 -2 46q-3 14 -17 24q-18 12 -36 9q-69 -12 -132 -46q-30 -16 -82.5 -51.5t-62.5 -41.5
q-14 -9 -60.5 -44.5t-64.5 -44.5q-6 -3 -16.5 -9t-19 -9.5t-17.5 -5.5q-17 -6 -24 -4q-20 2 -30 10.5t-18 26.5q-2 27 38 82q5 6 17 23.5t17 24.5q27 40 55 73q16 24 23.5 40.5t12.5 24.5q1 1 2 3z" />
    <glyph glyph-name="o" unicode="o" horiz-adv-x="724" 
d="M-2 112q37 62 115 115q32 22 87 50q-2 12 15.5 29.5t35.5 23.5q6 2 37.5 6t33.5 4q12 2 14 2q3 1 29 5q131 9 381 -19q45 -5 67 -11t61 -24q23 -9 28.5 -28t-21.5 -29q-10 -2 -20.5 0.5t-14.5 2.5q-16 1 -28 15.5t-11 27.5q-1 1 -3 1q-5 1 -25 7.5t-31 8.5q-6 1 -80 1
q-21 -1 -62 1t-59 2q32 -20 34 -52q0 -74 -137 -151q-4 -2 -27.5 -17t-37.5 -21q-11 -5 -56 -22q-41 -17 -124 -40q-92 -25 -139 -27q-44 -2 -65 11q-38 22 -29 64q4 20 32 64zM537 254q2 20 -33 26.5t-85 5.5q-22 -7 -67 -27.5t-58 -22.5q-18 -3 -52 6q-34 -22 -52 -36
q-43 -35 -44 -36q-18 -20 -31 -38q-25 -35 -30 -55q-3 -13 1 -20q8 -13 67 -4q69 11 76 13q10 3 81 31q67 23 106 41q20 10 66 42q51 36 55 74z" />
    <glyph glyph-name="p" unicode="p" horiz-adv-x="675" 
d="M-90 -54l21 37q-22 8 -25 23.5t7 34.5q9 19 27.5 27.5t30.5 -2.5l11 25q0 2 2 10q4 12 16 29q11 26 25 61q-9 37 -5 63q8 21 25.5 36.5t26.5 28.5q15 12 34 12q25 0 34 -14q4 -7 5 -26q-1 -12 -3.5 -22t-4.5 -14t-9 -14.5t-8 -12.5q63 36 135 58.5t172 44.5
q26 10 86.5 5.5t96.5 -28.5q37 -25 42 -66q1 -9 -3 -21.5t-7 -19t-13.5 -22t-11.5 -16.5q-4 -7 -10 -14t-11.5 -12.5t-14.5 -12t-14 -10.5t-16 -10.5t-15.5 -9.5t-17 -9t-15 -7.5t-15.5 -7.5l-12 -6q-174 -84 -396 -100q-35 -1 -83 4q-18 -32 -66.5 -96.5t-63.5 -86.5
q-17 -25 -47 -67.5t-50.5 -72.5t-34.5 -55q-9 -16 -17.5 -40.5t-17.5 -43.5q-5 -12 -11.5 -57t-20.5 -62l-20 -33l-15 -18q-10 -5 -21 -3l-22 -10q-20 -16 -25 17q-6 38 11 65q4 6 8 9q11 9 43.5 77t40.5 72q4 7 13 22.5t13 23.5q30 64 107.5 172.5t108.5 164.5zM384 268
q-40 -14 -81 -32q-5 -4 -40.5 -17.5t-52.5 -24.5q-15 -9 -88 -63q-18 -13 -35.5 -31.5t-30.5 -35t-18 -20.5l-24 -42q30 -1 70 5q29 5 60 13.5t76.5 24t59.5 19.5q76 25 202 114q37 26 63 57q20 24 18 31q-12 18 -37 24q-35 9 -69 0q-38 -10 -73 -22z" />
    <glyph glyph-name="q" unicode="q" horiz-adv-x="859" 
d="M-9 -269q15 1 67 -4.5t82 -14.5q22 5 42 7q50 8 149 20l45 6q16 48 63 134q42 78 52 119q2 9 10 30t14 39t10 36.5t-2 29.5t-22 11q-19 -7 -41 -17t-49.5 -23t-43.5 -20q-30 -13 -79.5 -38.5t-66.5 -33.5q-9 -4 -29.5 -11t-27.5 -10q-13 -6 -35 -12.5t-33 -11.5
q-24 -11 -53 -10t-51.5 12t-33 33.5t1.5 55.5q21 57 123 122q75 48 138 80q43 25 123 49q13 4 37 10t35 10q14 6 23 8.5t23.5 4.5t26.5 5q37 9 69 -1q11 -4 18.5 -8t13 -7.5t7 -9t3 -8.5t-1.5 -9.5t-3.5 -9t-7 -9.5t-8 -8.5l-9.5 -9.5l-8 -8q-26 -24 -77 -10q-1 0 -5 5.5
t-10 6.5q-15 4 -36 4t-31 -3q-6 -2 -21.5 -6t-32.5 -11q-19 -8 -39.5 -18.5t-43.5 -25t-32 -19.5q-17 -11 -56.5 -38.5t-41.5 -29.5q-15 -9 -39.5 -29.5t-32.5 -37.5q-1 -1 -3.5 -4.5t-1.5 -6.5q7 -17 63 2q171 54 240 86q13 6 71.5 36.5t86.5 38.5q42 12 52 15
q12 5 29.5 -3t27.5 -24q14 -23 6 -53q-12 -44 -26 -72t-37.5 -62.5t-39.5 -65.5q-6 -11 -15 -28.5t-13 -23.5q35 34 82 73q27 23 77.5 61t68.5 52q51 41 120 80q6 3 17 10.5t21 11.5q7 6 37 7t34 -7q7 -14 -39 -39q-8 -4 -50.5 -17.5t-53.5 -20.5q-34 -22 -52 -36
q-27 -21 -74 -66t-64 -60q-124 -108 -179 -178q295 31 492 26q1 0 34.5 -0.5t48.5 -1t48 -2t53 -4.5t43 -8t36 -12q13 -10 7 -26q-6 -6 -9 -9.5t-8.5 -6.5t-8 -4t-12 -4.5t-16.5 -5.5q-4 -1 -6.5 2.5t-7 10t-11.5 10.5q-8 4 -28.5 12t-24.5 11q-91 10 -140 8
q-37 0 -74.5 -1.5t-80.5 -5.5t-73 -7t-80 -10t-72.5 -10.5t-80 -12t-74.5 -11.5l-6 -10q-49 -77 -65 -112q-7 -17 -37.5 -95.5t-55.5 -127.5t-56 -83q-13 -11 -31 -8l-3 3q-4 2 -4 6q-1 2 1 16.5t-2 15.5q-2 2 8 28q-3 30 9 58q10 25 29.5 59.5t34 56.5t41 62t30.5 46
q1 4 4 7q16 29 41 69h-1q-1 -1 -2 -1q-7 -1 -69 -11t-80 -13q-1 0 -53.5 -10t-77.5 -13t-64 -0.5t-60 17.5q-17 17 -13 36t26 28q1 0 21 8t22 8z" />
    <glyph glyph-name="r" unicode="r" horiz-adv-x="518" 
d="M126 169q-15 -13 -32 -39q0 -3 1.5 -12.5t2 -15t0.5 -13.5t-1 -14t-4 -10q-28 -41 -95 -101q-25 -15 -44 -6t-20 35q4 33 39 87q112 162 343 255q138 50 193 29q1 0 3 -0.5t3 -0.5q22 -7 33 -23q13 -13 13 -27q0 -18 -23.5 -46t-42.5 -32q-26 -3 -37 9q-1 1 -3.5 17
t-13.5 16q-14 1 -34 8t-25 8q-14 -1 -35 -5q-9 -2 -24.5 -3t-20.5 -2q-15 -5 -28.5 -11.5t-37.5 -21.5t-26 -16q-47 -27 -84 -65z" />
    <glyph glyph-name="s" unicode="s" horiz-adv-x="721" 
d="M110 185l22 5q41 13 68 19q81 20 174 22q1 10 5 19q3 7 5 15t4.5 14t7.5 13q34 41 83.5 68t90.5 13q18 -6 33 -24q5 -23 -11 -51q-11 -18 -41.5 -27t-45.5 3l-10 7q-8 5 -23.5 5.5t-18.5 -9.5q-2 -35 -1 -46q3 0 9 0.5t9 0.5q91 1 129 -0.5t126 -11.5q28 -2 61 -15
q22 -8 22 -14q5 -9 -16 -25q-22 -14 -41 -2q-5 3 -10 6.5t-8 5.5t-9 4t-14 3q-38 13 -76 16q-51 4 -133 4h-45q8 -32 24 -70q21 -46 -3 -84q-18 -26 -47 -44q-60 -45 -171 -56q-93 -11 -166 1q-44 8 -83 33q-44 29 -45 63q-2 43 57 89q34 24 61 38q5 2 8.5 5t7 4.5t11.5 2.5
zM394 92q-19 49 -21 110q-75 -4 -125 -17q-14 -4 -52 -10.5t-56 -12.5q-17 -6 -43 -24q-13 -8 -28 -45q-9 -22 14 -55q5 -7 11 -11.5t10 -6.5t11 -4t10 -3q4 -1 18 -6.5t18.5 -7t20 -6.5t20.5 -5t20.5 -2.5t21.5 0.5q17 3 36 7.5t30 6.5q16 1 37 10t29 21q2 2 7 7.5t8 9.5
t5.5 10.5t2 15t-4.5 18.5z" />
    <glyph glyph-name="t" unicode="t" horiz-adv-x="463" 
d="M108 571q14 0 16 -1q67 3 137 9q15 20 64 93q3 17 9 25l19 32q3 14 6.5 34.5t5.5 31.5t7.5 21t14.5 14q9 6 41 13q23 8 43.5 -8t17.5 -41q-24 -64 -135 -208q198 16 297 19q6 0 38 1t56.5 0.5t45.5 -4.5q30 -2 46 -5q3 -1 34 -6.5t42.5 -8.5t39.5 -10.5t41 -15.5
t30.5 -19.5t25.5 -27t9 -33.5q0 -16 -39 2q-35 17 -39 33q-1 11 1 13q-3 0 -11 4q-32 13 -118 25q-3 0 -13 1.5t-17.5 2t-8.5 0.5q-13 3 -37 3.5t-51 -1t-56.5 -3t-52.5 -3.5t-39 -3l-16 -2q-42 -4 -126 -11t-127 -11q-11 -15 -52 -69.5t-70.5 -95.5t-53.5 -81
q-32 -51 -53 -96q-28 -63 -27 -95q1 -26 15.5 -36.5t45.5 -12.5q40 -3 89 8q50 10 136 37q29 10 156 65q14 11 21 7.5t0 -18.5q-43 -36 -130 -83q-110 -60 -181 -82q-68 -20 -112 -19q-53 2 -78 30q-32 37 -18 111q14 82 111 246q50 85 112 176h-2h1q-28 -10 -146 -19
q-39 -10 -85 -11t-74 9q-35 5 -38 34v3q2 18 21.5 34.5t40.5 17.5q18 1 86 -7t84 -8z" />
    <glyph glyph-name="u" unicode="u" horiz-adv-x="891" 
d="M-26 47q3 22 16 47.5t36 59.5t27 40l1 4q1 3 3 5q-6 28 1 38q26 35 64 57q1 0 2 1q8 8 14 11q37 16 57 7q15 -6 21 -19.5t-2 -31.5q-6 -9 -13 -14.5t-13 -12.5q-4 -4 -15.5 -12.5t-15.5 -11.5q-25 -21 -50 -52q-5 -7 -21 -39q-10 -16 -12 -36q-5 -27 18 -28q36 -4 39 -3
q14 2 28.5 6.5t22.5 7.5t29.5 13t30.5 14q28 13 53 26t40.5 22t55 33.5t67.5 41.5q9 5 73 55q5 4 18 15.5t20 14.5q9 8 38.5 5t39.5 -15q28 -30 9 -66q-6 -5 -10.5 -11t-10.5 -15.5t-11 -15.5q-19 -26 -36 -62.5t-18 -49.5q-1 -28 31 -35q12 -3 26 -3q30 0 35 1q44 7 98 28
q75 28 139 64q4 2 14.5 10.5t14.5 9.5l12 -8q12 -15 -4 -30q-14 -10 -159 -84q-7 -4 -23 -12.5t-23 -12l-23 -11.5t-23 -11t-22.5 -9.5t-22 -7.5t-21.5 -5t-21 -2.5t-20 0.5q-35 5 -57.5 37.5t-18.5 76.5q2 31 32 123q2 7 -4.5 8.5t-11.5 -0.5q-15 -4 -71 -39
q-13 -8 -50 -33t-71 -45.5t-66 -36.5q-139 -68 -162 -73q-60 -13 -88 -1q-45 21 -36 72z" />
    <glyph glyph-name="v" unicode="v" horiz-adv-x="538" 
d="M689 370q-2 -2 -6.5 -2.5t-12 0.5t-10.5 1q-9 -1 -32 -10q-67 -27 -90 -40q-46 -26 -85 -64q-28 -28 -84 -71q-22 -19 -55.5 -48.5t-86.5 -71.5q-6 -5 -32.5 -27.5t-47.5 -39.5t-48.5 -33t-44.5 -17q-25 -1 -40.5 10t-19.5 30.5t-4 35.5t3 34q3 16 16 61.5t15 75.5
q-7 2 -8.5 15t-0.5 33t1 24q1 24 18 39q22 14 51 7q34 -21 42.5 -50t0 -53t-24.5 -62t-21 -62q-2 -8 -2 -15t2 -11.5t6 -4.5q7 4 19.5 4t19.5 3q13 7 57 41q51 40 94.5 81.5t76.5 67.5q17 14 36 27.5t43 29.5t38 26q12 10 63 38q54 29 110 29q35 0 46 -14q4 -5 4 -9.5t-2 -6
t-4 -1.5z" />
    <glyph glyph-name="w" unicode="w" horiz-adv-x="949" 
d="M192 252q0 -14 -60 -65l-38 -56q-9 -20 -22 -65q-1 -4 0 -7t1 -8q0 -7 3 -7q2 0 4 -5t16 3q100 57 162 113q30 27 55.5 48t53 42t43.5 34q9 8 35 21t39 10q18 -3 32 -16t14 -30q2 -9 -11 -29t-15 -27q-6 -17 -23.5 -50.5t-25 -58.5t-0.5 -49q6 -21 16.5 -33t20.5 -16
t26.5 -0.5t27 8t30.5 14t29 13.5q31 12 138 89q79 56 144 124q4 4 25.5 28t40 46.5t22.5 30.5q6 11 15.5 14t15.5 -3t3 -17q-19 -37 -96 -134q-70 -86 -138 -142q-108 -90 -186 -109q-71 -19 -100 -9q-7 3 -24 8t-29 9.5t-22 11.5q-32 24 -39.5 71t2.5 89t28 81
q-6 -6 -15.5 -11.5t-13.5 -9.5q-13 -12 -41 -38l-42 -39q-110 -99 -145 -125q-31 -23 -51.5 -32t-57.5 -11q-41 -2 -53.5 30t-1.5 72q20 72 37.5 116t50.5 96q20 26 52 56q20 15 42.5 10t29.5 -27q1 -11 3 -19t1 -12q0 -1 -2.5 -6t-4.5 -10.5t-1 -11.5z" />
    <glyph glyph-name="x" unicode="x" horiz-adv-x="810" 
d="M665 372q15 0 35 -7q17 3 22 -18q1 -4 1 -14q-2 -23 -14 -37q0 -15 -22 -30q-6 -2 -12 -6q-7 -4 -25 -7t-21 -4q-11 -5 -31 -9.5t-23 -5.5l-47 -17q-14 -6 -16 -6q-16 -9 -57 -30.5t-63 -34.5l-27 -18l-27 -18q6 -18 20 -40q28 -43 75.5 -61.5t95.5 -2.5q185 60 314 139
q17 5 22 1t-7 -16q-80 -63 -218.5 -131t-190.5 -68q-53 0 -88 16.5t-60 63.5q-19 34 -29 64q-28 -16 -42 -23q-109 -57 -193 -70q-8 -1 -55 3q-29 4 -32 30q-5 11 -2 22t17 32q32 52 103.5 129.5t112.5 110.5q2 2 6.5 6t6 5t4.5 3.5t4.5 2.5t4.5 1.5t6.5 2t7.5 1t10 1.5
q24 0 36 -9q24 -28 32 -58l20 -89q27 15 81 47q4 4 14 10l32 16l75 42q101 75 144 81zM201 107q18 10 54 32q-2 9 -8.5 44.5t-12.5 60.5q-2 8 -4.5 14t-5 9.5t-5.5 4.5t-5 1t-5.5 -1.5t-5 -2.5l-4.5 -3l-3 -3q-87 -50 -152 -154q-5 -8 -7 -21q-3 -10 1 -19.5t15 -6.5
q19 -5 39 5q17 7 51.5 17t57.5 23z" />
    <glyph glyph-name="y" unicode="y" horiz-adv-x="898" 
d="M947 82l-22 -16q-7 -4 -14.5 -5.5t-22 -1.5t-21.5 -1q-14 -5 -20.5 -5t-19.5 -6l-10 -4q-3 -1 -48.5 -25t-69.5 -37q-13 -10 -16 -10q-46 -27 -80 -56q-71 -150 -205 -324q-6 -8 -29.5 -39t-39 -50.5t-43.5 -54.5t-63.5 -77.5t-79.5 -92.5q-8 -9 -26 -27t-46.5 -43.5
t-57 -40.5t-45.5 -9q-19 7 -21.5 28.5t7.5 48.5t21 48.5t21 36.5q18 27 64.5 90t67.5 87q129 160 400 403q60 109 83 168q10 24 22 100q3 22 1.5 27.5t-11.5 21.5q-8 13 -12.5 15.5t-18.5 1.5q-31 -2 -41 -5q-36 -10 -58 -23q-52 -29 -137 -84q-11 -7 -58 -37t-66 -42
q-67 -41 -105 -51q-29 -8 -43 -11t-37 -1.5t-37 14.5q-31 28 -23 76q7 43 43 103q6 11 31.5 50t29.5 46q7 12 13.5 20t15 15.5t13.5 13.5q27 26 59 7q10 -7 16 -25q4 -17 -11 -50q-3 -3 -11.5 -12t-14.5 -15q-10 -12 -31.5 -26t-24.5 -18q-31 -35 -41 -73q-6 -18 3 -37
q4 -10 25 -5q6 1 20 7t23 9q45 12 106.5 44t144.5 80t133 73q88 46 138 45q18 0 36 -9.5t23 -26.5q2 -7 3 -15t0.5 -13.5t-2.5 -15.5t-3 -14.5t-5 -18t-5 -18.5q-5 -20 -15 -45.5t-22.5 -55t-16.5 -39.5q-5 -12 -17.5 -43t-13.5 -34q12 9 38 25q25 19 43 26q40 23 47 27
q31 20 53 31q13 7 37 22t47 25q6 7 31 11q19 3 25 1q38 -9 -3 -59zM283 -475q102 125 193 283q-21 -19 -45 -44q-18 -18 -57.5 -67t-62.5 -72q-111 -110 -208 -296l19 19q11 12 47 48t54 56q12 14 24.5 29t22.5 28t13 16z" />
    <glyph glyph-name="z" unicode="z" horiz-adv-x="829" 
d="M339 253q-64 -22 -139 -70q-31 -20 -45 -32q-18 -15 -33 -34l-5 -13v-13q0 -3 7 -5.5t8 -3.5q14 -16 5 -34q-4 -10 -19 -19q-25 -10 -41 -14.5t-38 -1t-37 21.5q-15 19 -15 31q0 7 0.5 13t0 7.5t0.5 5.5t2.5 7.5t5.5 11.5q6 14 9.5 20.5t5.5 9.5t10 11t15 16
q13 13 20.5 19.5t11.5 8.5l15 7.5t24 14.5q21 13 37 22.5t35 18t25.5 11l32.5 12.5t31 12q90 36 201 62q44 12 107 4t91 -34q43 -39 15 -93q-14 -28 -71 -52q-80 -36 -127 -64q-16 -9 -31.5 -23t-18.5 -16q-6 -4 -18.5 -15t-17.5 -15q-6 -4 -21 -25q-11 -17 -9 -60
q1 -11 7 -25t18.5 -31t16.5 -24l6 -12q14 9 31 19q22 13 67.5 47.5t72.5 51.5q78 50 174 97q3 1 17 8.5t24 11t29.5 8t32.5 -1.5q8 -6 9 -13q3 -15 -25 -36q-7 -6 -86 -14q-30 -14 -55 -27q-64 -35 -196 -134q-34 -25 -77 -61q5 -16 9 -50q2 -33 -31 -92q-12 -22 -29 -45
t-34 -44t-20 -25q-97 -132 -297 -290q-78 -66 -103 -80l-63 -36q-41 -17 -64 0t-18 58q2 12 11.5 29.5t28 45t19.5 29.5q36 53 90 112q91 94 135 134q9 8 48.5 45t69.5 64t51 41q33 24 77.5 64t47.5 43q-5 12 -13.5 20t-21 18t-19.5 16q-35 32 -44 65q-3 14 -3 15.5t5 21.5
q13 33 39 57l16 15q9 6 10 7q32 32 153 105q36 21 82 67q13 12 24 32.5t-1 30.5q-25 23 -65 16q-38 -7 -111 -35t-74 -28zM-2 -683q109 87 230 225t147 234l-32 -27q-10 -9 -188 -162q-9 -7 -80 -87t-106 -122q-7 -9 -18 -21.5t-16 -19t-13.5 -17.5t-11 -16l-7.5 -15
t-3.5 -14t1.5 -13h4q14 4 24 7.5t19.5 9.5t14 9t17 13.5t18.5 15.5z" />
    <glyph glyph-name="braceleft" unicode="{" horiz-adv-x="744" 
d="M1005 1027l5 -34q3 -10 -2.5 -14.5t-26 -10.5t-31.5 -11q-15 -7 -41.5 -21t-43.5 -21t-27 -6q-60 -37 -89 -60l-43 -43q-42 -42 -64 -70q-12 -15 -32.5 -49.5t-27.5 -43.5q-85 -110 -122 -143q-19 -19 -62 -53.5t-69.5 -61.5t-36.5 -55q-12 -28 6 -71q13 -40 15.5 -84.5
t-4 -88.5t-15 -82.5t-18.5 -83t-14 -74.5q-13 -93 40 -139t151 -44q42 1 84 14q12 5 68 27t85 39q22 8 28 -3q4 -6 -5 -16q-87 -53 -159 -85q-5 -2 -38 -15.5t-50 -18.5q-8 -2 -29.5 -8.5t-37 -9.5t-30.5 -3h-25.5t-33.5 1.5t-26 5.5q-38 12 -59 40.5t-27 61t-2 78.5
t11.5 79.5t19 77.5t14.5 60q2 18 13 53.5t13 53.5q9 113 8 136q-8 97 -127 96q-18 2 -25.5 14t-2 25t21.5 19q172 56 289 173q52 51 150 165.5t143 158.5q143 155 203 168q10 2 50 -3q18 -5 28 -20z" />
    <glyph glyph-name="bar" unicode="|" horiz-adv-x="485" 
d="M442 781l28 71q2 21 12.5 75t10.5 69q2 70 16 84l23 14q37 12 54 -18q9 -18 9.5 -42.5t-4.5 -48.5t-14.5 -54t-19 -52.5t-21 -49.5t-16.5 -40q-22 -62 -50 -131.5t-49 -117t-56.5 -128t-53.5 -123.5q-36 -84 -59.5 -124.5t-70.5 -152.5q-20 -51 -47 -154t-40 -143
l-11 -40q3 -29 2 -62t-4 -45q-6 -12 -11.5 -28t-11.5 -27.5t-17 -25.5q-10 -14 -29 -5q-6 6 -9 13.5t-4 14t0 17.5t2 16t4 17.5t3 14.5q6 24 15 62.5t12.5 52.5t10.5 40.5t12.5 45t14.5 46.5t21 63q18 53 43 117t41.5 103t50.5 119t45 106q94 225 168 451z" />
    <glyph glyph-name="braceright" unicode="}" horiz-adv-x="734" 
d="M244 899q-11 -1 -14.5 15t0.5 35q1 8 6.5 16.5t15.5 19t11 11.5q23 26 75.5 29.5t100.5 -11.5t65 -38q41 -48 63.5 -112.5t28 -119t15.5 -128t25 -124.5q18 -56 42 -84q9 -9 21.5 -15.5t16.5 -13.5t6 -28q0 -13 -12 -28q-140 -62 -219 -137q-56 -53 -106 -115.5t-78 -105
t-82 -129.5q-9 -15 -33.5 -56t-40 -65t-42 -56.5t-53.5 -54.5q-52 -42 -104 -66t-83.5 -28t-63 -5.5t-39.5 -3.5q-24 -9 -63 0q-9 1 -16.5 3t-13 4t-9.5 4t-5.5 3t-1.5 2l-22 23q-7 12 8.5 25t39.5 17q0 1 7 -2t16 -8t13 -9q3 -2 10 -10t13 -11.5t13 -3.5q51 5 62 5t82 32
q29 15 81 60.5t85 84.5q17 19 48.5 61.5t79 107t77.5 103.5q24 31 48.5 61.5t55.5 67.5t47 56q19 23 52.5 56t46.5 47q2 2 15 15.5t17 19t12 17.5t10 23.5t0 24.5q-2 10 -2.5 18t-2 16.5t-6.5 25.5q-14 42 -16.5 111.5t0.5 129t-6.5 125t-34.5 105.5q-13 22 -32.5 29
t-54.5 7.5t-47 2.5q-7 1 -41 -19.5t-41 -21.5l-15 -3q-22 -8 -31 -7z" />
    <glyph glyph-name="asciitilde" unicode="~" horiz-adv-x="1149" 
d="M461 293q-6 14 -18 19q-37 17 -156 -78q-7 -6 -10 -8q-1 -2 -11.5 -11.5t-16.5 -17.5q-4 -5 -18.5 -26t-23.5 -28q-43 -35 -76 -22l-9 10q-24 20 -13 49q15 19 35 38t32 28t44 32q22 15 68 33.5t55 22.5q80 36 120 15q20 -10 33 -31.5t26 -53t23 -47.5q26 -40 80 -51
q59 -12 261 65q16 6 49 23.5t52 25.5q41 17 96 46q-2 14 13 33t29 19l27 -4q17 -3 14 -20q-6 -31 -112 -87q-27 -14 -61 -37.5t-46 -28.5q-43 -20 -85 -45q-70 -39 -141 -63q-52 -17 -79 -11q-59 12 -112 81q-42 56 -69 130z" />
    <glyph glyph-name="exclamdown" unicode="&#xa1;" horiz-adv-x="619" 
d="M532 550l-7 -6q-31 -48 -107 -142t-130 -176t-74 -157l-14 -52q4 -5 4 -16q-3 -7 -13 -29t-19 -37.5t-21 -26.5q-15 -9 -27 -2.5t-14 22.5q22 96 74 198.5t132.5 229t113.5 188.5q0 15 3 23l36 57l3 4v-1q16 23 50.5 32t44.5 -8q1 -2 5.5 -7t6.5 -8t4 -9t-2 -11l-1 -1v-1
l-19 -14q-2 -3 -12 -22t-17 -28zM697 949q40 15 50 -21q11 -10 17.5 -26.5t2.5 -26.5q-2 0 -4 -2l-6 -6q-8 -3 -47 -25t-62 -20q-21 3 -27 19q-3 14 2 23l2 2l5 14q5 10 21 28q5 5 11 12t8.5 9.5l6.5 6.5t8.5 6.5t11.5 6.5z" />
    <glyph glyph-name="cent" unicode="&#xa2;" horiz-adv-x="881" 
d="M566 352q-3 -1 -22 5.5t-30 5.5q-17 -2 -40 -13.5t-26 -11.5h-3l-22 -10q-66 -36 -154 -104q-44 -35 -70 -91q-25 -43 -21 -57q5 -14 31 -23q31 -10 65.5 -9.5t55 5t62.5 16.5q3 8 8 14.5t12.5 14.5t12.5 14q21 16 39.5 11t20.5 -29q106 28 132 37q23 9 69 30t58 26
q14 16 46.5 33.5t44.5 14.5q10 4 20 -1q12 -4 11 -25.5t-16 -25.5q-62 -20 -173.5 -65.5t-147.5 -58.5l-77 -27l-28 -42q-95 -153 -109 -180q-3 -6 -11.5 -21.5t-12.5 -23.5t-8 -19.5t-5 -20.5q0 -6 6.5 -26.5t3.5 -28.5q-5 -10 -19.5 -11t-27 6t-11.5 17q7 35 30 91
q22 58 100 211q3 4 12 27l-49 -13q-47 -13 -101 -15q-15 -1 -41 3t-31 4q-11 1 -21 7.5t-22.5 17t-16.5 13.5q-12 10 -14.5 24.5t4 30.5t17.5 33.5t27 35t31 32.5t31 28.5t25 21.5t16 13q45 38 78 61q56 39 82.5 57t84.5 49t102 42q2 6 4 9l46 72l27 60q4 8 4.5 33.5
t8.5 39.5q10 18 54 37q47 2 54 -29q3 -15 -3 -15q2 -3 0 -5.5t-8 -8.5l-8 -8q-7 -10 -37 -47t-39 -52l-51 -79q3 0 9 -0.5t10 -0.5q7 -1 15 -4.5t13 -6.5t13.5 -9t11.5 -8q19 -16 15 -39q-3 -18 -16.5 -26.5t-27 -9.5t-40 0t-37.5 0q-5 -2 -9 0z" />
    <glyph glyph-name="sterling" unicode="&#xa3;" horiz-adv-x="1685" 
d="M486 399q21 0 36 -6l71 9q1 2 15.5 18t21.5 25q21 25 76 95t94.5 116.5t79.5 89.5q78 85 109 109q59 46 66 50q33 20 87.5 43t95.5 31q91 17 152 -2q88 -29 71 -113q-3 -15 -5 -26.5t-2 -17.5v-10.5t1 -5.5t0 -3t-1.5 -2t-4.5 -2.5t-8.5 -5.5t-13.5 -10.5t-20 -17.5
q-30 -17 -51.5 3.5t-2.5 51.5q7 43 10 52q9 27 -22.5 44.5t-83 14.5t-92.5 -29q-7 -4 -58.5 -30.5t-63.5 -35.5q-4 -3 -24 -17t-39.5 -30t-35.5 -33q-19 -20 -50.5 -50.5t-54.5 -55.5t-44 -57q-89 -135 -124 -180q89 8 160 11q120 3 154 -7q15 -3 26.5 -8.5t21.5 -8.5
q14 -3 18 -17q0 -6 5.5 -10.5t5.5 -12.5q0 -11 -15.5 -17t-34.5 -4q-34 4 -36 16q0 4 -3 6t-8 3t-8 3q-22 14 -60 19.5t-56 4.5q-90 -7 -217 -34q-17 -18 -102.5 -115.5t-134.5 -145.5q21 3 45 4.5t53 2.5t45 2q85 6 399 -84q19 -6 27 -8q46 -12 139.5 -32t127.5 -28
q7 -1 43.5 -9.5t60 -13.5t68.5 -11.5t69.5 -5t62.5 6.5q10 6 40.5 29.5t32.5 24.5q15 7 24.5 -2.5t2.5 -24.5q-17 -41 -107 -77q-82 -33 -168 -21q-78 13 -133.5 30t-116.5 41.5t-106 38.5q-26 9 -85 29t-89.5 29.5t-79.5 21t-96 16.5q-49 7 -138.5 -3.5t-156.5 -25.5
l-56 -12q-3 -2 -6 -2.5t-9 -3.5t-17 -11q-17 -15 -54 -32q-34 -16 -45.5 -16t-42.5 -11q-30 -12 -63.5 -13.5t-37.5 4.5q-31 22 8 65q14 15 53.5 23.5t74.5 26.5q41 22 99.5 60t60.5 39q128 106 215 194q-98 -20 -163 -28q-23 3 -31 19.5t4 36.5q3 6 8 11l-1 1h2q8 8 26 15
q25 14 35.5 17t14 0t18.5 -6.5t42 -1.5zM400 398h-1q-2 -1 -7 -3z" />
    <glyph glyph-name="currency" unicode="&#xa4;" horiz-adv-x="1140" 
d="M355 344q2 1 5.5 2.5t4.5 1.5q12 21 19 32q11 16 25.5 36.5t19 27t10.5 15.5t13 16.5t13.5 14.5t23.5 25.5t32 35.5l-21 17q-8 6 -30.5 20t-28.5 15q-14 7 -28.5 11t-29 7t-19.5 4q-45 10 -72 27q-15 8 -21.5 19t-3.5 20q4 6 5 10q10 14 31 22q24 5 52 -1.5t59.5 -26
t49 -31t50.5 -38.5l32 -26l13 -12q13 13 36 29q10 8 21.5 14t29.5 14.5t30 14.5q50 17 63 -8l9 -17q1 -7 0 -13q33 3 60 -19q13 2 43 3t48 5q110 31 194 60l86 35q9 4 28 19t27 18q21 5 26 -6.5t-16 -29.5q-26 -22 -93 -58.5t-124 -59.5q-143 -55 -174 -59q-3 -1 -7 -1
q0 -17 -6 -30q-14 -38 -29 -52q-34 -32 -67 -57q11 -14 31 -39t36.5 -45.5t31.5 -38.5q52 -63 81 -112q0 -1 2 -3q50 -30 48 -44l-3 -15q-5 -12 -23 -16q-18 -3 -36 9t-28.5 27t-22.5 35.5t-15 24.5q-8 12 -14.5 36t-15.5 35q-6 7 -17 28t-18 29q-40 48 -61 70
q-86 -61 -153 -81q-9 -3 -32 -10.5t-36 -11t-32.5 -7.5t-35.5 -5q-12 0 -18 5q-27 16 -30 18q-11 -5 -54.5 -20.5t-67.5 -28.5q-27 -15 -55.5 -33t-40.5 -25q-17 -10 -23 1t6 25q29 34 64 56q10 11 24 21.5t26.5 18.5t16.5 11q22 17 76 39zM570 499q-11 0 -27 -8
q-24 -24 -43 -47q-36 -48 -37 -89q0 -38 40 -33q64 9 138 39q34 17 56 35q-27 29 -46 53q-23 26 -54 49q-17 2 -27 1zM761 507q-16 0 -21 10t0.5 24.5t17.5 29.5q-24 26 -77 3q-7 -3 -18.5 -6.5t-20.5 -7t-16 -8.5q-9 -10 0 -27q34 -35 94 -107q28 32 47 86q-3 0 -6 3z" />
    <glyph glyph-name="yen" unicode="&#xa5;" horiz-adv-x="1240" 
d="M515 278q-8 -2 -51 -9.5t-67 -13.5q-2 -2 -11.5 -4t-24 -5.5t-27.5 -9.5q-15 -6 -35.5 -16.5t-34.5 -17.5t-17 -8q-16 -1 -53.5 -0.5t-53.5 -2.5q-26 4 -35 20.5t4 36.5q11 10 33 18.5t51.5 15t51.5 10.5t51 8.5t32 4.5q112 19 247 30q-32 24 -45 40q-25 33 -38.5 74
t-15 95t0 84t7.5 89q-1 12 0.5 40.5t1.5 29.5q0 3 1 37.5t0 39.5q-1 13 -5.5 35t-5 29.5t3.5 21.5l31 24q28 23 58 2q12 -11 17.5 -26t4 -35t-3 -33.5t-7.5 -37t-7 -29.5q-2 -10 -25.5 -100.5t-26.5 -133.5q-7 -170 67 -208q14 -8 38 -11q3 6 4 7q3 2 17.5 16t22.5 16
q24 8 44.5 -1.5t18.5 -26.5l21 6q41 13 103 50q70 37 117 70q21 15 64 46.5t69.5 51t61.5 47.5t62 53q94 92 197 223q22 56 35 74q9 13 22 29q17 6 30.5 -4.5t6.5 -25.5q-6 -9 -29 -40.5t-29 -39.5t-24.5 -33.5t-27 -35.5t-26 -31.5t-30 -35.5t-30.5 -32.5t-37 -37.5
q-24 -24 -69.5 -73t-85 -88.5t-76.5 -67.5q-1 -1 -67.5 -55t-94.5 -67q-21 -10 -34 -14q211 -5 269 -22q3 -1 14.5 -3t17 -4t13 -8.5t10.5 -16.5q1 -5 -0.5 -9t-3.5 -6l-2 -2q-9 -10 -30.5 -2.5t-26.5 21.5q-9 6 -37.5 9t-65.5 4t-41 1q-190 5 -267 -2q-2 0 -5 -0.5t-4 -0.5
v-1l-12 -26q-4 -30 -40 -73l-24 -44q198 19 315 -17q10 -1 16 -5t11.5 -10.5t8.5 -8.5q22 -18 -2 -17q-7 0 -26 3q-17 2 -22 2q-108 29 -281 6q-20 -2 -52 -8l-56 -96q-23 -52 -61 -116l-35 -67q-4 -12 -7 -16q-16 -19 -37 -9t-16 34q5 14 15 23.5t15 18.5q60 92 77 134
l34 79q-103 -22 -159 -27q-35 4 -38 33t30 42q8 0 28.5 3t26.5 3h36.5t47.5 2q36 4 54 5q21 51 36 92q2 7 7 25t8 27q-37 -4 -86 -14z" />
    <glyph glyph-name="section" unicode="&#xa7;" horiz-adv-x="1241" 
d="M908 881q17 9 57 32q63 38 194 47q9 1 58.5 -12t59.5 -18q11 -7 16 -16t17 -17q15 -13 10.5 -35t-26 -39.5t-40.5 -9.5q-16 10 -25 29t-19.5 33.5t-32.5 18.5q-9 1 -21.5 7.5t-22.5 8.5q-6 2 -29.5 0t-32.5 -2l-17 -2q-26 -6 -73 -28q-57 -29 -96 -78t-41 -94
q-2 -42 17 -94.5t55 -96.5q12 -15 29 -34t30 -33t27 -30.5t23 -30.5t15 -29.5t4.5 -30.5t-9.5 -30q-28 -52 -94.5 -100.5t-146.5 -81.5q-40 -16 -60 -21q51 -142 3 -208l-63 -71q-9 -12 -17 -18t-26.5 -17.5t-38.5 -25.5q-58 -33 -109 -44q-141 -28 -217 -27.5t-215 24.5
q-78 14 -152 48q-3 2 -13 8t-15 9.5t-12.5 10t-6.5 11t4 12.5q5 7 13 12t18 9.5t13 6.5q28 8 49 -5q8 -5 4 -11q-2 -1 0 -37q8 -4 26.5 -14.5t27.5 -14.5t25.5 -10.5t34 -10t39.5 -5.5q31 -3 73.5 0.5t105 12t75.5 9.5q97 16 184 66q74 39 111 85t37.5 91.5t-15.5 95.5
q-56 -2 -71 37q-2 10 4 32.5t6 32.5q1 4 6 9l-12 21q-39 41 -69 110.5t-30 120.5l1 17q-1 8 -1 15.5t0.5 13.5t3 12t4.5 10.5t7 10.5t8.5 10t11 10.5t12.5 10.5t15 12.5t16 13.5q1 2 20 15l9 9q73 50 136 66q-15 110 154 206zM693 183l26 -52q24 7 53 20q49 23 104 74.5
t65 88.5q10 42 -4.5 73.5t-55.5 83.5q-5 6 -8 10q-63 74 -87 111q-20 -15 -39 -8q-28 -11 -47 -8.5t-38.5 1.5t-30.5 -13q-31 -37 -36.5 -107.5t14.5 -97.5q10 -14 18 -31t18.5 -44t14.5 -37z" />
    <glyph glyph-name="dieresis" unicode="&#xa8;" horiz-adv-x="615" 
d="M436 513q0 1 -0.5 3t-0.5 4q0 8 1 14l1 4q11 20 35 22q26 2 34 -8l10 -5q19 -11 59 5l4 4q14 14 14 -5q-1 -9 -4 -21l-6 -8q-19 -37 -60.5 -52t-64.5 7q-14 10 -21 33l-1 1v2zM219 493q-1 3 0 6q0 14 12 23q7 10 22 13q16 16 38 10q17 7 32 -3t15 -30q-3 -18 -17.5 -35
t-29.5 -23q-22 -9 -45.5 5t-26.5 34z" />
    <glyph glyph-name="copyright" unicode="&#xa9;" horiz-adv-x="1067" 
d="M468 722q2 -19 -33.5 -47t-59.5 -34l-25 -29q-5 -5 -24 -26t-33 -37.5t-21 -28.5q-27 -46 -19.5 -85.5t49.5 -59.5q52 -21 117.5 -20.5t144 18.5t145 41t119.5 49q171 81 198 178q13 47 -13 82.5t-72 56.5q-94 43 -137 55t-133 11q-39 -1 -134 -22v-1q-74 -37 -81 -37
l-22 3l-22 3q-13 7 -9 23q4 8 14 15t21 11.5t27 8.5t29 6.5t30.5 4.5t26.5 2.5t22 1.5t14 1q63 7 88.5 9.5t71.5 4t73.5 -3t66 -15t79.5 -28.5q50 -22 85.5 -80.5t24.5 -120.5q-22 -126 -192 -226q-48 -28 -122 -53t-130 -34q-52 -8 -98.5 -11.5t-103.5 0.5t-100 19t-77 49
t-45 85q-7 34 32.5 107.5t99.5 131t102 48.5q13 -3 25 -19q0 -1 0.5 -3t0.5 -4zM716 642q-11 -8 -59 -8q-6 -2 -13 2h-13q-6 -1 -18 -2t-16.5 -2t-13.5 -5t-18 -11q-5 -3 -28 -27t-30 -36l-2.5 -5t-1.5 -4q15 -7 15 -13q-2 -12 26 -14.5t45 2.5q20 5 42.5 8t43 8.5
t57.5 19.5q12 5 38.5 19.5t47.5 27.5t21 15q14 16 29.5 13t12.5 -21q-15 -32 -108 -65q-93 -38 -147 -52q-156 -41 -189 7q-18 27 27.5 78t106.5 90.5t87 42.5q47 5 64 -19.5t-6 -48.5z" />
    <glyph glyph-name="registered" unicode="&#xae;" horiz-adv-x="987" 
d="M535 817q17 0 27 -15.5t2 -33.5q-5 -12 -22 -24t-31 -15q-16 0 -36.5 4.5t-35 3.5t-33.5 -11q-96 -48 -125 -78q-74 -76 -84 -142q-8 -38 -0.5 -71t34.5 -63q41 -47 255 -49q62 1 131 15.5t137.5 43t120.5 79.5t69 115q11 41 11.5 81t-11.5 61q-50 84 -96 102
q-10 4 -48 22t-58 23q-22 5 -52 1q-8 -1 -36.5 -8t-41.5 -6q-8 1 -14.5 7t-5.5 15q1 8 8.5 16.5t14.5 8.5q6 6 29 7t47 -5q16 -4 46.5 -9t46.5 -10q56 -16 102 -41q9 -5 16.5 -10.5t16.5 -13.5t16 -13q23 -15 54 -50t32 -57q1 -15 8 -48t7 -57t-13 -44q-8 -13 -21 -40
t-26 -47t-31 -32q-10 -8 -39 -31.5t-50.5 -38t-44.5 -23.5q-14 -5 -58 -22t-56 -21.5t-45.5 -15t-53 -13.5t-51 -6.5t-65.5 -4.5q-69 0 -155.5 27t-124.5 74q-53 65 -52 133q0 68 41 130q129 190 344 200zM444 492q-7 -15 -20 -22q-26 -11 -44 1q-17 12 -10 39q13 33 33 57
q50 71 119 112q47 31 91 38q45 8 77 -5q21 -8 38 -23q27 -24 13 -55q-20 -43 -88 -73q-33 -14 -41 -23q-1 -1 -1 -7q102 -69 126 -93q6 -8 5 -16q-1 0 -3 -5q-5 -11 -15.5 -14t-16.5 3q-2 0 -3.5 3t-4 7t-4.5 6l-15 20q-5 7 -12.5 13t-20 12.5t-17 8.5l-22.5 10l-19 7
q-42 19 -57 32q-8 7 -11 22q11 30 81 59q59 27 67 40q4 5 3 10q-1 9 -8 17q-11 12 -31.5 15t-28.5 -2q-41 -17 -93 -65q-40 -36 -63 -84q-3 -9 -3 -25t-1 -20z" />
    <glyph glyph-name="acute" unicode="&#xb4;" horiz-adv-x="687" 
d="M537 517q-21 -8 -69 -18.5t-70 -19.5q-9 -4 -34 -10.5t-26 -6.5l-24 -4l-4 -1q-9 -6 -41.5 -14.5t-51.5 -19.5q-16 -7 -32 -1q-12 8 -18 23v2q0 15 7 32q6 11 16 21q17 10 37 13q53 6 66 2q9 -2 32 1.5t44 8t23 4.5q34 11 86 19t81 16q14 4 44.5 9.5t44.5 9.5l4 2
q8 1 14 -2t7 -5t-1 -8l-2 -5q-3 -4 -11 -7l-3 -1q-2 -1 -3 -1l-2 -2q-4 -4 -31 -8q-5 -1 -83 -29z" />
    <glyph glyph-name="mu" unicode="&#xb5;" horiz-adv-x="925" 
d="M34 -12q-11 11 -11 31l-16 -29q-13 -25 -35.5 -54t-35.5 -53q-46 -79 -101 -179q-25 -41 -42 -107.5t-35 -101.5q-15 -29 -20 -105.5t-21 -106.5q-8 -13 -33.5 -2.5t-33.5 26.5q-2 23 -2 32.5t2.5 33t3.5 35.5q2 8 10.5 26.5t18.5 35t14 15.5q4 15 13 33q17 36 34.5 92.5
t32.5 88.5q42 91 151 293q19 35 54 98.5t59 111.5q9 20 21 41t27.5 47t23.5 39q22 29 45 20q17 2 31 -9t13 -30q-5 -28 -23.5 -56t-48 -61.5t-40.5 -49.5l-21 -39q-11 -39 -3 -51q3 -5 7 -5.5t25 -0.5q11 0 46.5 12.5t56.5 22.5q10 5 38 17.5t38.5 17.5t34.5 16.5t36 18
t32.5 18t35 20.5t32 20.5t34.5 23.5q106 77 146 84q40 8 59 -5q17 -13 8 -42q-5 -16 -21 -54t-20 -48q-15 -36 -18 -58q-3 -21 18 -38q17 -13 37 -16.5t30.5 -1.5t35.5 8q66 17 102 33q4 2 22 10q3 3 31 16.5t32 16.5q6 5 15 15t13 13q18 6 37 22q17 10 27 -1q4 -6 0 -11
q-1 -1 -1 -6.5t-3 -9.5l-4 -9q-4 -6 -31 -25q-13 -9 -43 -23.5t-38 -18.5q-13 -8 -64 -31q-13 -6 -53 -27t-65 -31q-53 -19 -89 -18q-29 1 -53 14.5t-28 37.5q-6 29 8 75q21 70 35 95q10 19 5 30t-15.5 11t-16.5 -2q-32 -18 -55 -34q-8 -6 -37 -25.5t-39 -26.5
q-98 -73 -148 -105q-1 -1 -18.5 -12.5t-30 -19.5t-34.5 -21t-38 -20.5t-34.5 -13.5t-30.5 -5h-8.5t-11 0.5t-11 1.5t-13 3.5t-12.5 5.5t-13 8.5t-12 12.5z" />
    <glyph glyph-name="paragraph" unicode="&#xb6;" horiz-adv-x="1458" 
d="M505 49q16 34 102 205q-1 0 -5 -0.5t-5 -0.5q-12 -2 -45 -8.5t-51 -8.5q-35 -4 -110 -1q-6 0 -34.5 -1t-45.5 0q-57 2 -96 12q-68 17 -104 50q-50 45 -36 110q8 30 43 79t41 60q15 19 54 49q70 68 180 138q6 3 16 10.5t19 12.5t18 8q15 5 48 24.5t45 25.5q195 97 424 157
q29 10 52 12q144 19 177 21q65 4 122 -28q5 -3 15 -12t19 -14q15 -8 14 -21q0 -11 4 -35.5t3.5 -43t-8.5 -34.5q-19 -39 -74 -143q-12 -27 -31 -55t-45.5 -63t-39.5 -53t-63 -82q225 56 300 68q17 3 38.5 7t33 6t24 3t20.5 -2t14 -9q2 -2 6.5 -6t6 -6t5 -6.5t2.5 -7.5
t-1 -10q-6 -10 -14 -14q-16 -1 -24.5 0.5t-19.5 5.5t-23 6q-26 5 -110 -9q-11 -2 -36 -5t-51 -8t-60 -14q-57 -14 -143 -41q-121 -159 -146 -195q-77 -100 -117 -175q-29 -51 -80 -164l-3 -11q-4 -14 -19.5 -59t-16.5 -65q0 -10 5 -30t1 -30q-18 -25 -52 -31q-28 -4 -48 6
t-18 28q5 60 87 215q79 185 178 398l24 52q-126 -34 -205 -51q-56 -86 -78 -129q-33 -70 -67 -154q3 -56 3 -57q-2 -44 -33 -60q-27 -13 -39 10q-4 6 -5 14q-2 11 5.5 35.5t16 44.5t22 49.5t14.5 30.5zM859 643l-3 -8q-7 -28 -21 -61t-25.5 -56t-33 -61.5t-30.5 -56.5
q-26 -50 -41 -74q83 16 191 40q57 121 65 186v8l1 11q13 29 44 29.5t36 -29.5q-4 -69 -73 -187l22 6l60 15q13 16 34.5 43t37.5 47.5t28 36.5q82 113 109 198q31 95 10 157q-15 26 -46 38q-12 4 -27 7q-43 9 -98 4q-85 -6 -191 -38q-23 -7 -75.5 -20t-90.5 -25.5t-61 -27.5
q-31 -22 -98 -46.5t-93 -38.5q-100 -52 -133 -75q-71 -46 -126 -104q-18 -19 -41.5 -62t-22.5 -60q4 -50 36.5 -76.5t87.5 -45.5q26 -9 92 -9q8 0 38.5 -3t49.5 -3q32 0 134 9q6 0 32 4q17 34 49 102l43 87q6 18 7 29q6 91 21 108l40 37q24 14 43 8.5t21 -29.5l-3 -14h1z
M985 349l-46 -14q-38 -64 -52 -96q-26 -51 -51 -110q65 87 177 228z" />
    <glyph glyph-name="cedilla" unicode="&#xb8;" horiz-adv-x="481" 
d="M239 21q5 3 22 7l8 2q29 -1 67.5 -9t39.5 -19q1 -17 -99 -40q6 -15 20 -29t27.5 -23.5t26.5 -27t17 -39.5q0 -16 -10 -27q-37 -34 -151 -71.5t-177 -47.5q-91 -14 -137 -2q-20 10 -9 30l12 14q12 6 21.5 5.5t29.5 -5t27 -4.5q16 3 53.5 2.5t48.5 3.5q43 11 92 28
q61 21 111 64q5 5 8 16q2 9 -1.5 13.5t-14.5 13.5q-21 17 -31.5 27t-21.5 27.5t-11 35.5q3 33 32 55z" />
    <glyph glyph-name="questiondown" unicode="&#xbf;" horiz-adv-x="1129" 
d="M931 142q19 26 49 3t30 -57q-6 -23 -57 -52t-99 -47.5t-83 -28.5q-300 -83 -540 -79q-71 2 -103 30q-6 7 -21.5 21t-21.5 21q-6 5 -6 17q2 82 11.5 108.5t66.5 84.5q77 77 123 108q60 40 91.5 60t46.5 28.5t56.5 31.5t92.5 53q22 13 82 43.5t96 52.5q11 7 37 39.5
t34 37.5q25 42 38 86q8 16 30 7.5t40 -27.5q8 -11 7 -24t-8 -22q-8 -11 -21 -22.5t-22 -18t-29.5 -20.5t-27.5 -19q-10 -8 -28 -22.5t-32.5 -25.5t-26.5 -19q-50 -32 -133 -79t-138.5 -79t-120.5 -84.5t-109 -111.5q-1 -2 -8 -11t-8.5 -11.5t-7.5 -11t-7.5 -12t-5.5 -12
t-4.5 -13.5t-2.5 -13.5t-1.5 -16t1.5 -16.5t4 -18q11 -35 57 -56.5t78 -19.5q168 12 240 32q29 8 90.5 34.5t90.5 34.5l22 6t12 3.5t6 2.5t6 3t10 6t20 11t46.5 48t57.5 36zM1108 973q-3 -29 -23 -49q-16 -39 -67 -75t-70 -19q-27 9 -38 22q-6 16 2 33q8 9 19.5 16.5
t18 10.5t24 10l22.5 9q12 5 38 20q3 2 7 5.5t10 9.5t12 11q5 12 17 16t21 -2t7 -18z" />
    <glyph glyph-name="Agrave" unicode="&#xc0;" 
d="M300 237q41 5 67 3.5t95 -3.5t130 0q47 1 113 8q38 35 116.5 100t119.5 103q112 102 340 296q144 120 339 227q21 11 31.5 16t32.5 13t34 6.5t38 -3.5q21 -5 28 -22q10 -78 4.5 -124t-31.5 -122q-18 -51 -41 -112t-39 -99.5t-47 -113.5t-42 -103l149 -16q34 -3 175 -32
q22 -4 11 -27t-35 -26h-7q-10 2 -31.5 20t-34.5 20q-14 2 -44 10t-52 10q-83 8 -144 10q-42 -102 -71 -183q-60 -167 -59 -306q1 -6 22.5 -36.5t22.5 -55.5q-20 -33 -28 -35q-28 -7 -43 2q2 -1 -3 5l-3 4q-7 15 -11 46q-11 44 -6 92q11 93 33.5 211.5t47.5 185.5
q4 10 12.5 33.5t13.5 35.5q-39 -2 -123.5 -10.5t-135.5 -12.5q-221 -18 -437 -48q-18 -3 -56 -7l-17 -17q-44 -44 -168 -167.5t-203 -206.5q-2 -2 -22 -23t-30.5 -32.5t-33 -34t-39 -38t-37.5 -34t-39 -31.5q-113 -94 -230 -94q-26 4 -38 22q-5 9 -8 16t-4.5 12t0 12.5
t2 10.5t4.5 14.5t6 17.5q25 33 102 5q11 6 30 14t30 14q14 9 49 27t53 31q58 42 122 109q57 58 212 198q25 22 80 84t71 79q-111 -13 -157 -19q-19 -4 -55 -10.5t-53 -9.5l-61 -17l-13 2q-20 -6 -31 -8q-12 -2 -18 -4t-6.5 -3t-0.5 -2.5t-0.5 -2t-7 -2t-19.5 -2.5l-15 7
q-14 4 -26 16q-46 32 -8 63l6 9q41 33 85 27zM912 353q-58 -54 -100 -96q140 17 182 21q52 8 127 11t111 6q220 17 284 15q72 188 101 279q9 30 24 87t26 91q19 63 19 110q-1 10 -0.5 19t-1 15.5t-5.5 6.5q-28 3 -121 -48q-151 -84 -229 -148q-28 -24 -97 -76.5t-106 -86.5
q-39 -35 -108.5 -104t-105.5 -102zM1418 -337l1 -1zM1614 1257q19 0 106 -36q14 -3 49 -11.5t53 -10.5q21 -3 64 -5.5t67 -6.5q1 0 3 -0.5t3 -0.5q11 5 44 8q21 4 29 -21q0 -10 -7 -17q-7 -6 -17.5 -7t-27.5 1.5t-20 2.5q-24 2 -71 1.5t-71 0.5q-165 10 -171 11q-1 -1 -7 0
l-7 2q-9 0 -27.5 5.5t-28.5 14.5q-21 19 -21 37.5t24 28.5z" />
    <glyph glyph-name="Aacute" unicode="&#xc1;" 
d="M300 237q41 5 67 3.5t95 -3.5t130 0q47 1 113 8q38 35 116.5 100t119.5 103q112 102 340 296q144 120 339 227q21 11 31.5 16t32.5 13t34 6.5t38 -3.5q21 -5 28 -22q10 -78 4.5 -124t-31.5 -122q-18 -51 -41 -112t-39 -99.5t-47 -113.5t-42 -103l149 -16q34 -3 175 -32
q22 -4 11 -27t-35 -26h-7q-10 2 -31.5 20t-34.5 20q-14 2 -44 10t-52 10q-83 8 -144 10q-42 -102 -71 -183q-60 -167 -59 -306q1 -6 22.5 -36.5t22.5 -55.5q-20 -33 -28 -35q-28 -7 -43 2q2 -1 -3 5l-3 4q-7 15 -11 46q-11 44 -6 92q11 93 33.5 211.5t47.5 185.5
q4 10 12.5 33.5t13.5 35.5q-39 -2 -123.5 -10.5t-135.5 -12.5q-221 -18 -437 -48q-18 -3 -56 -7l-17 -17q-44 -44 -168 -167.5t-203 -206.5q-2 -2 -22 -23t-30.5 -32.5t-33 -34t-39 -38t-37.5 -34t-39 -31.5q-113 -94 -230 -94q-26 4 -38 22q-5 9 -8 16t-4.5 12t0 12.5
t2 10.5t4.5 14.5t6 17.5q25 33 102 5q11 6 30 14t30 14q14 9 49 27t53 31q58 42 122 109q57 58 212 198q25 22 80 84t71 79q-111 -13 -157 -19q-19 -4 -55 -10.5t-53 -9.5l-61 -17l-13 2q-20 -6 -31 -8q-12 -2 -18 -4t-6.5 -3t-0.5 -2.5t-0.5 -2t-7 -2t-19.5 -2.5l-15 7
q-14 4 -26 16q-46 32 -8 63l6 9q41 33 85 27zM912 353q-58 -54 -100 -96q140 17 182 21q52 8 127 11t111 6q220 17 284 15q72 188 101 279q9 30 24 87t26 91q19 63 19 110q-1 10 -0.5 19t-1 15.5t-5.5 6.5q-28 3 -121 -48q-151 -84 -229 -148q-28 -24 -97 -76.5t-106 -86.5
q-39 -35 -108.5 -104t-105.5 -102zM1418 -337l1 -1zM1903 1186q-21 -8 -69 -18.5t-70 -19.5q-9 -4 -34 -10.5t-26 -6.5l-24 -4l-4 -1q-9 -6 -41.5 -14.5t-51.5 -19.5q-16 -7 -32 -1q-12 8 -18 23v2q0 15 7 32q6 11 16 21q17 10 37 13q53 6 66 2q9 -2 32 1.5t44 8t23 4.5
q34 11 86 19t81 16q14 4 44.5 9.5t44.5 9.5l4 2q8 1 14 -2t7 -5t-1 -8l-2 -5q-3 -4 -11 -7l-3 -1q-2 -1 -3 -1l-2 -2q-4 -4 -31 -8q-5 -1 -83 -29z" />
    <glyph glyph-name="Acircumflex" unicode="&#xc2;" 
d="M300 237q41 5 67 3.5t95 -3.5t130 0q47 1 113 8q38 35 116.5 100t119.5 103q112 102 340 296q144 120 339 227q21 11 31.5 16t32.5 13t34 6.5t38 -3.5q21 -5 28 -22q10 -78 4.5 -124t-31.5 -122q-18 -51 -41 -112t-39 -99.5t-47 -113.5t-42 -103l149 -16q34 -3 175 -32
q22 -4 11 -27t-35 -26h-7q-10 2 -31.5 20t-34.5 20q-14 2 -44 10t-52 10q-83 8 -144 10q-42 -102 -71 -183q-60 -167 -59 -306q1 -6 22.5 -36.5t22.5 -55.5q-20 -33 -28 -35q-28 -7 -43 2q2 -1 -3 5l-3 4q-7 15 -11 46q-11 44 -6 92q11 93 33.5 211.5t47.5 185.5
q4 10 12.5 33.5t13.5 35.5q-39 -2 -123.5 -10.5t-135.5 -12.5q-221 -18 -437 -48q-18 -3 -56 -7l-17 -17q-44 -44 -168 -167.5t-203 -206.5q-2 -2 -22 -23t-30.5 -32.5t-33 -34t-39 -38t-37.5 -34t-39 -31.5q-113 -94 -230 -94q-26 4 -38 22q-5 9 -8 16t-4.5 12t0 12.5
t2 10.5t4.5 14.5t6 17.5q25 33 102 5q11 6 30 14t30 14q14 9 49 27t53 31q58 42 122 109q57 58 212 198q25 22 80 84t71 79q-111 -13 -157 -19q-19 -4 -55 -10.5t-53 -9.5l-61 -17l-13 2q-20 -6 -31 -8q-12 -2 -18 -4t-6.5 -3t-0.5 -2.5t-0.5 -2t-7 -2t-19.5 -2.5l-15 7
q-14 4 -26 16q-46 32 -8 63l6 9q41 33 85 27zM912 353q-58 -54 -100 -96q140 17 182 21q52 8 127 11t111 6q220 17 284 15q72 188 101 279q9 30 24 87t26 91q19 63 19 110q-1 10 -0.5 19t-1 15.5t-5.5 6.5q-28 3 -121 -48q-151 -84 -229 -148q-28 -24 -97 -76.5t-106 -86.5
q-39 -35 -108.5 -104t-105.5 -102zM1418 -337l1 -1zM1584 1094q-21 -22 -56 -10q-19 7 -26.5 23t3.5 35q39 43 173 79t182 15q42 -17 57 -64q2 -4 12.5 -28t12.5 -28q0 -1 3 -11q-1 -17 -18 -21q-2 0 -3 -1q-13 3 -17 14q-1 7 -0.5 14t-0.5 14.5t-4 11.5q-21 27 -43 41
q-15 10 -32.5 13.5t-42 -1t-37 -7.5t-42.5 -14t-34 -12q-53 -19 -87 -63z" />
    <glyph glyph-name="Atilde" unicode="&#xc3;" 
d="M300 237q41 5 67 3.5t95 -3.5t130 0q47 1 113 8q38 35 116.5 100t119.5 103q112 102 340 296q144 120 339 227q21 11 31.5 16t32.5 13t34 6.5t38 -3.5q21 -5 28 -22q10 -78 4.5 -124t-31.5 -122q-18 -51 -41 -112t-39 -99.5t-47 -113.5t-42 -103l149 -16q34 -3 175 -32
q22 -4 11 -27t-35 -26h-7q-10 2 -31.5 20t-34.5 20q-14 2 -44 10t-52 10q-83 8 -144 10q-42 -102 -71 -183q-60 -167 -59 -306q1 -6 22.5 -36.5t22.5 -55.5q-20 -33 -28 -35q-28 -7 -43 2q2 -1 -3 5l-3 4q-7 15 -11 46q-11 44 -6 92q11 93 33.5 211.5t47.5 185.5
q4 10 12.5 33.5t13.5 35.5q-39 -2 -123.5 -10.5t-135.5 -12.5q-221 -18 -437 -48q-18 -3 -56 -7l-17 -17q-44 -44 -168 -167.5t-203 -206.5q-2 -2 -22 -23t-30.5 -32.5t-33 -34t-39 -38t-37.5 -34t-39 -31.5q-113 -94 -230 -94q-26 4 -38 22q-5 9 -8 16t-4.5 12t0 12.5
t2 10.5t4.5 14.5t6 17.5q25 33 102 5q11 6 30 14t30 14q14 9 49 27t53 31q58 42 122 109q57 58 212 198q25 22 80 84t71 79q-111 -13 -157 -19q-19 -4 -55 -10.5t-53 -9.5l-61 -17l-13 2q-20 -6 -31 -8q-12 -2 -18 -4t-6.5 -3t-0.5 -2.5t-0.5 -2t-7 -2t-19.5 -2.5l-15 7
q-14 4 -26 16q-46 32 -8 63l6 9q41 33 85 27zM912 353q-58 -54 -100 -96q140 17 182 21q52 8 127 11t111 6q220 17 284 15q72 188 101 279q9 30 24 87t26 91q19 63 19 110q-1 10 -0.5 19t-1 15.5t-5.5 6.5q-28 3 -121 -48q-151 -84 -229 -148q-28 -24 -97 -76.5t-106 -86.5
q-39 -35 -108.5 -104t-105.5 -102zM1418 -337l1 -1zM1612 1197l-38 -18q-6 -5 -21 -17t-26.5 -20.5t-12.5 -10.5q-11 -11 -27 -9.5t-30 12.5l-2 2q-14 38 14 64q82 52 166 59q39 4 56 2q8 -1 22.5 -5t17.5 -5q22 -5 58.5 -27t63.5 -30q25 -9 59.5 -10t72.5 14
q2 11 19.5 27.5t29.5 17.5l1 1h1l2 -1h-1h2q16 -3 6 -23q-20 -49 -72.5 -76t-93.5 -19q-37 7 -85 45t-66 45q-24 9 -59 5q-12 -1 -57 -23z" />
    <glyph glyph-name="Adieresis" unicode="&#xc4;" 
d="M300 237q41 5 67 3.5t95 -3.5t130 0q47 1 113 8q38 35 116.5 100t119.5 103q112 102 340 296q144 120 339 227q21 11 31.5 16t32.5 13t34 6.5t38 -3.5q21 -5 28 -22q10 -78 4.5 -124t-31.5 -122q-18 -51 -41 -112t-39 -99.5t-47 -113.5t-42 -103l149 -16q34 -3 175 -32
q22 -4 11 -27t-35 -26h-7q-10 2 -31.5 20t-34.5 20q-14 2 -44 10t-52 10q-83 8 -144 10q-42 -102 -71 -183q-60 -167 -59 -306q1 -6 22.5 -36.5t22.5 -55.5q-20 -33 -28 -35q-28 -7 -43 2q2 -1 -3 5l-3 4q-7 15 -11 46q-11 44 -6 92q11 93 33.5 211.5t47.5 185.5
q4 10 12.5 33.5t13.5 35.5q-39 -2 -123.5 -10.5t-135.5 -12.5q-221 -18 -437 -48q-18 -3 -56 -7l-17 -17q-44 -44 -168 -167.5t-203 -206.5q-2 -2 -22 -23t-30.5 -32.5t-33 -34t-39 -38t-37.5 -34t-39 -31.5q-113 -94 -230 -94q-26 4 -38 22q-5 9 -8 16t-4.5 12t0 12.5
t2 10.5t4.5 14.5t6 17.5q25 33 102 5q11 6 30 14t30 14q14 9 49 27t53 31q58 42 122 109q57 58 212 198q25 22 80 84t71 79q-111 -13 -157 -19q-19 -4 -55 -10.5t-53 -9.5l-61 -17l-13 2q-20 -6 -31 -8q-12 -2 -18 -4t-6.5 -3t-0.5 -2.5t-0.5 -2t-7 -2t-19.5 -2.5l-15 7
q-14 4 -26 16q-46 32 -8 63l6 9q41 33 85 27zM912 353q-58 -54 -100 -96q140 17 182 21q52 8 127 11t111 6q220 17 284 15q72 188 101 279q9 30 24 87t26 91q19 63 19 110q-1 10 -0.5 19t-1 15.5t-5.5 6.5q-28 3 -121 -48q-151 -84 -229 -148q-28 -24 -97 -76.5t-106 -86.5
q-39 -35 -108.5 -104t-105.5 -102zM1418 -337l1 -1zM1786 1180q0 1 -0.5 3t-0.5 4q0 8 1 14l1 4q11 20 35 22q26 2 34 -8l10 -5q19 -11 59 5l4 4q14 14 14 -5q-1 -9 -4 -21l-6 -8q-19 -37 -60.5 -52t-64.5 7q-14 10 -21 33q0 1 -1 3zM1569 1160q-1 3 0 6q0 14 12 23
q7 10 22 13q16 16 38 10q17 7 32 -3t15 -30q-3 -18 -17.5 -35t-29.5 -23q-22 -9 -45.5 5t-26.5 34z" />
    <glyph glyph-name="Aring" unicode="&#xc5;" 
d="M1635 1116q5 15 25 52v1q-21 6 -15.5 27.5t29.5 29.5q40 13 103 22q58 7 96 2q62 -9 69 -52q5 -29 -11.5 -60t-47.5 -53q-75 -51 -83 -55q-34 -18 -65 -24l21 -3q21 -5 28 -22q10 -78 4.5 -124t-31.5 -122q-18 -51 -41 -112t-39 -99.5t-47 -113.5t-42 -103l149 -16
q34 -3 175 -32q22 -4 11 -27t-35 -26h-7q-10 2 -31.5 20t-34.5 20q-14 2 -44 10t-52 10q-83 8 -144 10q-42 -102 -71 -183q-60 -167 -59 -306q1 -6 22.5 -36.5t22.5 -55.5q-20 -33 -28 -35q-28 -7 -43 2l-1 1l1 -1q2 -1 -3 5l-3 4q-7 15 -11 46q-11 44 -6 92
q11 93 33.5 211.5t47.5 185.5q4 10 12.5 33.5t13.5 35.5q-39 -2 -123.5 -10.5t-135.5 -12.5q-221 -18 -437 -48q-18 -3 -56 -7l-17 -17q-44 -44 -168 -167.5t-203 -206.5q-2 -2 -22 -23t-30.5 -32.5t-33 -34t-39 -38t-37.5 -34t-39 -31.5q-113 -94 -230 -94q-26 4 -38 22
q-5 9 -8 16t-4.5 12t0 12.5t2 10.5t4.5 14.5t6 17.5q25 33 102 5q11 6 30 14t30 14q14 9 49 27t53 31q58 42 122 109q57 58 212 198q25 22 80 84t71 79q-111 -13 -157 -19q-19 -4 -55 -10.5t-53 -9.5l-61 -17l-13 2q-20 -6 -31 -8q-12 -2 -18 -4t-6.5 -3t-0.5 -2.5t-0.5 -2
t-7 -2t-19.5 -2.5l-15 7q-14 4 -26 16q-46 32 -8 63l6 9q41 33 85 27l37 8q41 5 67 3.5t95 -3.5t130 0q47 1 113 8q38 35 116.5 100t119.5 103q112 102 340 296q144 120 339 227q47 25 69 31q-37 4 -52.5 38.5t-1.5 75.5zM912 353q-58 -54 -100 -96q140 17 182 21
q52 8 127 11t111 6q220 17 284 15q72 188 101 279q9 30 24 87t26 91q19 63 19 110q-1 10 -0.5 19t-1 15.5t-5.5 6.5q-28 3 -121 -48q-151 -84 -229 -148q-28 -24 -97 -76.5t-106 -86.5q-39 -35 -108.5 -104t-105.5 -102zM1768 1163q-2 -4 -2 -6q0 -1 -1 -1l-9 -6t-58 -36
q-26 -28 -28 -46q-1 -7 17.5 -8t38.5 4l28.5 9.5t42.5 11.5q22 4 44 15.5t32 23.5q8 9 9 12.5t-5 8t-9 7.5q-4 4 -14 8.5t-24.5 10t-20.5 7.5q-13 5 -34 7q0 -2 -7 -22z" />
    <glyph glyph-name="AE" unicode="&#xc6;" horiz-adv-x="2944" 
d="M207 200q11 17 41 36t45 18q8 -1 32 -10t48 -15q2 -1 56 -6h29q39 3 107 -3t101 -5q186 187 346 338q38 35 66 60.5t49 45t46 40.5t36.5 31t42 34.5t41.5 33.5t55.5 44t64.5 51q22 17 47.5 33t63 37.5t49.5 28.5q15 8 35 10.5t37 1t36 0.5q28 0 31 -21q0 -4 3 -64
q0 -10 -8.5 -38.5t-21 -63t-28 -75.5t-28 -72t-23.5 -58t-11 -28q-27 -67 -76 -175t-59 -132q178 14 240 16q163 8 233 -15q37 -11 37 -29q1 -17 -34 -32t-81 -20q-17 0 -29.5 10.5t-8.5 22.5q-9 1 -19.5 6t-17.5 5q-21 0 -54 6.5t-51 6.5q-113 0 -170 -7l-61 -5
q-69 -159 -107 -281q-20 -61 -34 -107q19 21 51 47q57 48 157 106q26 16 55 31.5t52 27.5t57 28t53 25t58.5 26t54.5 23.5t60 25.5t58 24q89 37 244 89q137 59 150 81q0 1 5 10t1 18q-3 8 -39.5 20t-56.5 14q-98 12 -181.5 37.5t-117.5 51.5q-12 9 -19 17t-15.5 21t-14.5 21
q-7 13 -3 32q3 49 5 54q30 45 77 87q81 71 252 140t321 106q98 24 206 14q49 -4 94 -21q8 -3 22 -7.5t20 -7t15 -10t16 -18.5q2 -3 6.5 -7t5.5 -6.5t2.5 -14t-2.5 -27.5q-7 -19 -38.5 -36t-52.5 -11q-35 9 -50 41q-1 1 -4 7t-9 19t-21 21.5t-27.5 12t-12.5 5.5q-11 1 -31 6
t-36 6q-60 2 -121 -18q-33 -8 -161 -46q-18 -5 -40 -14.5t-37 -17.5t-52 -27.5t-59 -31.5q-54 -26 -126 -88.5t-79 -105.5q-4 -19 15.5 -38.5t53 -35t50 -22t30.5 -11.5q67 -18 130 -32t113 -27t130 -39q22 -17 6 -40q-33 -33 -46 -40q-24 -15 -56 -26.5t-77.5 -24
t-66.5 -19.5q-23 -8 -90.5 -29.5t-97 -31.5t-82 -29t-96 -38t-88.5 -41q-191 -92 -295 -169q-149 -111 -173 -183q-8 -24 -9.5 -39t6.5 -26t16.5 -16t30.5 -16l10 -5q86 -38 255 -5q26 5 87.5 13t99.5 19l181 52q111 32 325 105q78 26 373 147q81 39 91 44q7 4 19.5 14.5
t21.5 15.5q33 32 114 68q22 1 32 -15l-1 -5q-5 -13 -9 -16q-23 -16 -32 -25q-1 -1 -9 -5q-19 -15 -45 -28.5t-56 -26.5t-41 -19q-239 -116 -450 -191q-98 -36 -403 -143q-71 -18 -89 -25q-372 -90 -562 -42h-1l-2 1q-13 -41 -48 -48q-10 1 -16 7q-25 25 -23 97l-4 4
q-7 9 -8 23q2 9 4 27.5t5.5 32.5t10.5 26l12 19q40 209 120 456q-125 -13 -345.5 -45.5t-352.5 -46.5q-280 -304 -435 -444q-67 -62 -140 -108l-28 -16q-33 -32 -44 -37q-30 -11 -46 -15q-26 3 -33 20l-2 3q1 0 -1 4t-3.5 12.5t-0.5 17.5q3 33 30 64q11 11 36 23t41 17t23 7
q101 42 167 89q107 98 356 353q-49 -5 -138.5 -7.5t-127.5 -5.5q-55 -6 -86 0q-2 0 -12 7t-12 8q-16 16 -5 59zM737 221q359 30 636 50q20 63 50 136.5t67.5 160.5t55.5 131q8 18 21.5 49t20 47t15.5 44t16 58q1 5 3 7q-2 -1 -9 2q-32 16 -77.5 -0.5t-86.5 -46.5
q-269 -194 -408 -326q-122 -115 -304 -312z" />
    <glyph glyph-name="Ccedilla" unicode="&#xc7;" horiz-adv-x="1780" 
d="M1776 863q0 -10 1.5 -14t-4.5 -12t-9 -11l-11 -11l-12 -12q-14 -17 -38 -11t-36 27q-1 3 -6 16.5t-7 18t-7.5 12t-12.5 11.5q-20 10 -61 22t-70 12q-41 0 -126 -18q-79 -17 -118 -35q-45 -20 -158.5 -63.5t-175.5 -78.5q-62 -34 -119.5 -74t-140.5 -104t-105 -80
q-43 -33 -134.5 -128.5t-149.5 -185.5q-65 -92 -86 -145q-33 -79 -21 -158q3 -31 36 -63t68 -47q75 -29 204 -36q113 -7 158 -2q185 29 312 71q88 34 244 92q71 23 162 62q162 66 318 147q44 24 55 31t40 30q14 11 53 32q9 5 21 -2t18 -15q10 -18 -6 -32q-10 -8 -33.5 -16
t-33.5 -13q-19 -9 -53 -24t-78 -37q-137 -77 -241 -128q-65 -33 -170 -74q-145 -56 -356 -116q-12 -3 -87 -23t-121 -30q0 -1 -2 -3l-1 -2q-6 -7 -8.5 -14t-3 -13t-0.5 -11.5v-9.5q2 -18 15 -32.5t26.5 -23.5t24 -28t8.5 -44q-7 -20 -24 -35q-62 -52 -194 -117t-201 -84
q-111 -35 -173 -29q-12 4 -15.5 20.5t3.5 28.5l37 25q6 6 18 6t24.5 -3.5t29.5 -8.5t26 -7q99 24 157 45q67 26 129 75t64 70q1 18 -8.5 35t-20 27.5t-16.5 30t2 41.5q9 23 32 47q-58 -9 -117 -9q-189 1 -286 33q-69 23 -107 69.5t-43.5 103t9.5 114.5t48 110
q93 160 204 266q72 70 241 208q54 42 121.5 85.5t100.5 62t120 66.5q14 7 39 23.5t31 20.5q55 28 144.5 63.5t120.5 51.5q88 44 244 76q49 9 98 3q20 -3 41.5 -4.5t36 -3t31.5 -7.5q25 -10 54 -31q26 -19 31 -26q6 -8 7.5 -15.5t0 -17.5t-1.5 -13z" />
    <glyph glyph-name="Egrave" unicode="&#xc8;" horiz-adv-x="1776" 
d="M1699 856q5 -17 -15.5 -42.5t-48.5 -34.5q-28 -8 -53 -0.5t-35 25.5q-3 10 16.5 46.5t11.5 45.5q-34 42 -120 38q-38 -2 -142 -17t-158 -27q-81 -17 -146 -44q-25 -11 -38.5 -21.5t-17.5 -17t-11 -21.5t-15 -27q-14 -26 1 -67.5t34 -59.5q9 -9 29 -30.5t40 -39.5t44 -34
q3 -2 10.5 -7.5t10 -7t9 -6t9 -7t7.5 -6.5t7.5 -7.5t6.5 -7.5t6.5 -8.5t5.5 -9.5q4 -8 6.5 -16.5t3.5 -21t2 -16.5q0 -9 -13 -31t-21 -31q-27 -17 -68 -22t-63 -13q-108 -39 -216 -81q-39 -16 -105.5 -42t-118.5 -47.5t-106 -48.5q-51 -24 -121 -73t-95 -64
q-67 -44 -106 -124q-11 -24 -8.5 -40.5t18.5 -46.5q4 -6 9 -11t12 -9t12 -6.5t15.5 -5t14.5 -3t16 -3t14 -2.5q83 -11 112 -14t83.5 -2.5t111.5 9.5q51 9 146 19.5t166 24.5t145 41q28 10 174.5 67t223.5 82q20 6 39 13.5t33 13t35 15t30 14t34 17.5t32 17t38.5 21t39.5 21
q14 9 33.5 21.5t29.5 19.5t14 12q11 15 44 29t42 7q5 -5 5.5 -7t-1 -3.5t-3 -6t-1.5 -12.5q1 -13 -18 -26.5t-48.5 -27t-33.5 -15.5q-19 -9 -185 -97t-259 -119q-34 -10 -145 -49.5t-151 -51.5q-225 -69 -379.5 -98.5t-351.5 -29.5q-46 -1 -92 3.5t-98 25.5t-65 56
q-28 82 25 160q31 44 69 75t95 66q170 107 245 147q133 68 271 124q2 1 33 13.5t78.5 32t82.5 34.5q48 24 101 59.5t60 45.5q17 22 -41 58q-11 7 -29 21.5t-42 28.5q-17 10 -28 17.5t-28.5 19.5t-29.5 21.5t-26 22.5t-21.5 24.5t-13.5 24.5t-5.5 26t6.5 26q32 69 157 132
q61 32 153 61.5t195.5 49.5t200 11t147.5 -53q11 -8 16.5 -21t10.5 -34t8 -30zM1300 1233q19 0 106 -36q14 -3 49 -11.5t53 -10.5q21 -3 64 -5.5t67 -6.5q1 0 3 -0.5t3 -0.5q11 5 44 8q21 4 29 -21q0 -10 -7 -17q-7 -6 -17.5 -7t-27.5 1.5t-20 2.5q-24 2 -71 1.5t-71 0.5
q-165 10 -171 11q-1 -1 -7 0l-7 2q-9 0 -27.5 5.5t-28.5 14.5q-21 19 -21 37.5t24 28.5z" />
    <glyph glyph-name="Eacute" unicode="&#xc9;" horiz-adv-x="1776" 
d="M1699 856q5 -17 -15.5 -42.5t-48.5 -34.5q-28 -8 -53 -0.5t-35 25.5q-3 10 16.5 46.5t11.5 45.5q-34 42 -120 38q-38 -2 -142 -17t-158 -27q-81 -17 -146 -44q-25 -11 -38.5 -21.5t-17.5 -17t-11 -21.5t-15 -27q-14 -26 1 -67.5t34 -59.5q9 -9 29 -30.5t40 -39.5t44 -34
q3 -2 10.5 -7.5t10 -7t9 -6t9 -7t7.5 -6.5t7.5 -7.5t6.5 -7.5t6.5 -8.5t5.5 -9.5q4 -8 6.5 -16.5t3.5 -21t2 -16.5q0 -9 -13 -31t-21 -31q-27 -17 -68 -22t-63 -13q-108 -39 -216 -81q-39 -16 -105.5 -42t-118.5 -47.5t-106 -48.5q-51 -24 -121 -73t-95 -64
q-67 -44 -106 -124q-11 -24 -8.5 -40.5t18.5 -46.5q4 -6 9 -11t12 -9t12 -6.5t15.5 -5t14.5 -3t16 -3t14 -2.5q83 -11 112 -14t83.5 -2.5t111.5 9.5q51 9 146 19.5t166 24.5t145 41q28 10 174.5 67t223.5 82q20 6 39 13.5t33 13t35 15t30 14t34 17.5t32 17t38.5 21t39.5 21
q14 9 33.5 21.5t29.5 19.5t14 12q11 15 44 29t42 7q5 -5 5.5 -7t-1 -3.5t-3 -6t-1.5 -12.5q1 -13 -18 -26.5t-48.5 -27t-33.5 -15.5q-19 -9 -185 -97t-259 -119q-34 -10 -145 -49.5t-151 -51.5q-225 -69 -379.5 -98.5t-351.5 -29.5q-46 -1 -92 3.5t-98 25.5t-65 56
q-28 82 25 160q31 44 69 75t95 66q170 107 245 147q133 68 271 124q2 1 33 13.5t78.5 32t82.5 34.5q48 24 101 59.5t60 45.5q17 22 -41 58q-11 7 -29 21.5t-42 28.5q-17 10 -28 17.5t-28.5 19.5t-29.5 21.5t-26 22.5t-21.5 24.5t-13.5 24.5t-5.5 26t6.5 26q32 69 157 132
q61 32 153 61.5t195.5 49.5t200 11t147.5 -53q11 -8 16.5 -21t10.5 -34t8 -30zM1591 1209q-21 -8 -69 -18.5t-70 -19.5q-9 -4 -34 -10.5t-26 -6.5l-24 -4l-4 -1q-9 -6 -41.5 -14.5t-51.5 -19.5q-16 -7 -32 -1q-12 8 -18 23v2q0 15 7 32q6 11 16 21q17 10 37 13q53 6 66 2
q9 -2 32 1.5t44 8t23 4.5q34 11 86 19t81 16q14 4 44.5 9.5t44.5 9.5l4 2q8 1 14 -2t7 -5t-1 -8l-2 -5q-3 -4 -11 -7l-3 -1q-2 -1 -3 -1l-2 -2q-4 -4 -31 -8q-5 -1 -83 -29z" />
    <glyph glyph-name="Ecircumflex" unicode="&#xca;" horiz-adv-x="1776" 
d="M1699 856q5 -17 -15.5 -42.5t-48.5 -34.5q-28 -8 -53 -0.5t-35 25.5q-3 10 16.5 46.5t11.5 45.5q-34 42 -120 38q-38 -2 -142 -17t-158 -27q-81 -17 -146 -44q-25 -11 -38.5 -21.5t-17.5 -17t-11 -21.5t-15 -27q-14 -26 1 -67.5t34 -59.5q9 -9 29 -30.5t40 -39.5t44 -34
q3 -2 10.5 -7.5t10 -7t9 -6t9 -7t7.5 -6.5t7.5 -7.5t6.5 -7.5t6.5 -8.5t5.5 -9.5q4 -8 6.5 -16.5t3.5 -21t2 -16.5q0 -9 -13 -31t-21 -31q-27 -17 -68 -22t-63 -13q-108 -39 -216 -81q-39 -16 -105.5 -42t-118.5 -47.5t-106 -48.5q-51 -24 -121 -73t-95 -64
q-67 -44 -106 -124q-11 -24 -8.5 -40.5t18.5 -46.5q4 -6 9 -11t12 -9t12 -6.5t15.5 -5t14.5 -3t16 -3t14 -2.5q83 -11 112 -14t83.5 -2.5t111.5 9.5q51 9 146 19.5t166 24.5t145 41q28 10 174.5 67t223.5 82q20 6 39 13.5t33 13t35 15t30 14t34 17.5t32 17t38.5 21t39.5 21
q14 9 33.5 21.5t29.5 19.5t14 12q11 15 44 29t42 7q5 -5 5.5 -7t-1 -3.5t-3 -6t-1.5 -12.5q1 -13 -18 -26.5t-48.5 -27t-33.5 -15.5q-19 -9 -185 -97t-259 -119q-34 -10 -145 -49.5t-151 -51.5q-225 -69 -379.5 -98.5t-351.5 -29.5q-46 -1 -92 3.5t-98 25.5t-65 56
q-28 82 25 160q31 44 69 75t95 66q170 107 245 147q133 68 271 124q2 1 33 13.5t78.5 32t82.5 34.5q48 24 101 59.5t60 45.5q17 22 -41 58q-11 7 -29 21.5t-42 28.5q-17 10 -28 17.5t-28.5 19.5t-29.5 21.5t-26 22.5t-21.5 24.5t-13.5 24.5t-5.5 26t6.5 26q32 69 157 132
q61 32 153 61.5t195.5 49.5t200 11t147.5 -53q11 -8 16.5 -21t10.5 -34t8 -30zM1305 1089q-21 -22 -56 -10q-19 7 -26.5 23t3.5 35q39 43 173 79t182 15q42 -17 57 -64q2 -4 12.5 -28t12.5 -28q0 -1 3 -11q-2 -16 -18 -21q-2 0 -3 -1q-13 3 -17 14q-1 7 -0.5 14t-0.5 14.5
t-4 11.5q-21 27 -43 41q-15 10 -32.5 13.5t-42 -1t-37 -7.5t-42.5 -14t-34 -12q-53 -19 -87 -63z" />
    <glyph glyph-name="Edieresis" unicode="&#xcb;" horiz-adv-x="1776" 
d="M1699 856q5 -17 -15.5 -42.5t-48.5 -34.5q-28 -8 -53 -0.5t-35 25.5q-3 10 16.5 46.5t11.5 45.5q-34 42 -120 38q-38 -2 -142 -17t-158 -27q-81 -17 -146 -44q-25 -11 -38.5 -21.5t-17.5 -17t-11 -21.5t-15 -27q-14 -26 1 -67.5t34 -59.5q9 -9 29 -30.5t40 -39.5t44 -34
q3 -2 10.5 -7.5t10 -7t9 -6t9 -7t7.5 -6.5t7.5 -7.5t6.5 -7.5t6.5 -8.5t5.5 -9.5q4 -8 6.5 -16.5t3.5 -21t2 -16.5q0 -9 -13 -31t-21 -31q-27 -17 -68 -22t-63 -13q-108 -39 -216 -81q-39 -16 -105.5 -42t-118.5 -47.5t-106 -48.5q-51 -24 -121 -73t-95 -64
q-67 -44 -106 -124q-11 -24 -8.5 -40.5t18.5 -46.5q4 -6 9 -11t12 -9t12 -6.5t15.5 -5t14.5 -3t16 -3t14 -2.5q83 -11 112 -14t83.5 -2.5t111.5 9.5q51 9 146 19.5t166 24.5t145 41q28 10 174.5 67t223.5 82q20 6 39 13.5t33 13t35 15t30 14t34 17.5t32 17t38.5 21t39.5 21
q14 9 33.5 21.5t29.5 19.5t14 12q11 15 44 29t42 7q5 -5 5.5 -7t-1 -3.5t-3 -6t-1.5 -12.5q1 -13 -18 -26.5t-48.5 -27t-33.5 -15.5q-19 -9 -185 -97t-259 -119q-34 -10 -145 -49.5t-151 -51.5q-225 -69 -379.5 -98.5t-351.5 -29.5q-46 -1 -92 3.5t-98 25.5t-65 56
q-28 82 25 160q31 44 69 75t95 66q170 107 245 147q133 68 271 124q2 1 33 13.5t78.5 32t82.5 34.5q48 24 101 59.5t60 45.5q17 22 -41 58q-11 7 -29 21.5t-42 28.5q-17 10 -28 17.5t-28.5 19.5t-29.5 21.5t-26 22.5t-21.5 24.5t-13.5 24.5t-5.5 26t6.5 26q32 69 157 132
q61 32 153 61.5t195.5 49.5t200 11t147.5 -53q11 -8 16.5 -21t10.5 -34t8 -30zM1476 1152q0 1 -0.5 3t-0.5 4q0 8 1 14l1 4q11 20 35 22q26 2 34 -8l10 -5q19 -11 59 5l4 4q14 14 14 -5q-1 -9 -4 -21l-6 -8q-19 -37 -60.5 -52t-64.5 7q-14 10 -21 33q0 1 -1 3zM1259 1132
q-1 3 0 6q0 14 12 23q7 10 22 13q16 16 38 10q17 7 32 -3t15 -30q-3 -18 -17.5 -35t-29.5 -23q-22 -9 -45.5 5t-26.5 34z" />
    <glyph glyph-name="Igrave" unicode="&#xcc;" horiz-adv-x="1341" 
d="M190 568l-16 -22q-7 -12 -12.5 -35.5t-11.5 -32.5q-13 -19 -44 -23t-45 5q-42 23 -42 56q0 20 30 66q4 6 19 21t28 27l12 11q18 17 53 38.5t71 40t87.5 42t83 37t77.5 33t53 22.5q374 150 722 154q19 0 44.5 -10.5t44 -22t41.5 -27.5t26 -18q12 -9 18 -32t6 -45t-1 -42
l-2 -20q1 -20 -5 -45t-11.5 -38.5t-21 -45.5t-18.5 -39q-35 -76 -122.5 -187.5t-105.5 -138.5q-20 -30 -46 -66t-58.5 -79.5t-48.5 -66.5q-1 -1 -77.5 -103t-98.5 -146l-25 -45q-15 -27 -41.5 -92t-25.5 -76q2 -11 -2 -34t-11 -29q-71 -94 -74 -114q-2 -4 -6.5 -9.5
t-16 -12.5t-20.5 -1q-10 7 -14 17q-10 10 -2 41l2 9q1 34 22.5 90t46.5 94l3 3q46 88 155.5 249.5t204.5 291.5q176 240 260 432q13 28 21 46.5t19 51t14 55.5t2 51t-12 47t-34.5 35.5t-59.5 23.5q-99 19 -300 -36q-43 -11 -107 -31q-87 -28 -257 -98q-71 -30 -130 -58
q-100 -47 -170 -100q-8 -6 -21 -25t-17 -23q-6 -5 -17 -10t-16 -11zM980 1263q19 0 106 -36q14 -3 49 -11.5t53 -10.5q21 -3 64 -5.5t67 -6.5q1 0 3 -0.5t3 -0.5q11 5 44 8q21 4 29 -21q0 -10 -7 -17q-7 -6 -17.5 -7t-27.5 1.5t-20 2.5q-24 2 -71 1.5t-71 0.5
q-165 10 -171 11q-1 -1 -7 0l-7 2q-9 0 -27.5 5.5t-28.5 14.5q-21 19 -21 37.5t24 28.5z" />
    <glyph glyph-name="Iacute" unicode="&#xcd;" horiz-adv-x="1341" 
d="M190 568l-16 -22q-7 -12 -12.5 -35.5t-11.5 -32.5q-13 -19 -44 -23t-45 5q-42 23 -42 56q0 20 30 66q4 6 19 21t28 27l12 11q18 17 53 38.5t71 40t87.5 42t83 37t77.5 33t53 22.5q374 150 722 154q19 0 44.5 -10.5t44 -22t41.5 -27.5t26 -18q12 -9 18 -32t6 -45t-1 -42
l-2 -20q1 -20 -5 -45t-11.5 -38.5t-21 -45.5t-18.5 -39q-35 -76 -122.5 -187.5t-105.5 -138.5q-20 -30 -46 -66t-58.5 -79.5t-48.5 -66.5q-1 -1 -77.5 -103t-98.5 -146l-25 -45q-15 -27 -41.5 -92t-25.5 -76q2 -11 -2 -34t-11 -29q-71 -94 -74 -114q-2 -4 -6.5 -9.5
t-16 -12.5t-20.5 -1q-10 7 -14 17q-10 10 -2 41l2 9q1 34 22.5 90t46.5 94l3 3q46 88 155.5 249.5t204.5 291.5q176 240 260 432q13 28 21 46.5t19 51t14 55.5t2 51t-12 47t-34.5 35.5t-59.5 23.5q-99 19 -300 -36q-43 -11 -107 -31q-87 -28 -257 -98q-71 -30 -130 -58
q-100 -47 -170 -100q-8 -6 -21 -25t-17 -23q-6 -5 -17 -10t-16 -11zM1290 1193q-21 -8 -69 -18.5t-70 -19.5q-9 -4 -34 -10.5t-26 -6.5l-24 -4l-4 -1q-9 -6 -41.5 -14.5t-51.5 -19.5q-16 -7 -32 -1q-12 8 -18 23v2q0 15 7 32q6 11 16 21q17 10 37 13q53 6 66 2q9 -2 32 1.5
t44 8t23 4.5q34 11 86 19t81 16q14 4 44.5 9.5t44.5 9.5l4 2q8 1 14 -2t7 -5t-1 -8l-2 -5q-3 -4 -11 -7l-2 -1q-3 -1 -4 -1l-2 -2q-4 -4 -31 -8q-5 -1 -83 -29z" />
    <glyph glyph-name="Icircumflex" unicode="&#xce;" horiz-adv-x="1341" 
d="M190 568l-16 -22q-7 -12 -12.5 -35.5t-11.5 -32.5q-13 -19 -44 -23t-45 5q-42 23 -42 56q0 20 30 66q4 6 19 21t28 27l12 11q18 17 53 38.5t71 40t87.5 42t83 37t77.5 33t53 22.5q374 150 722 154q19 0 44.5 -10.5t44 -22t41.5 -27.5t26 -18q12 -9 18 -32t6 -45t-1 -42
l-2 -20q1 -20 -5 -45t-11.5 -38.5t-21 -45.5t-18.5 -39q-35 -76 -122.5 -187.5t-105.5 -138.5q-20 -30 -46 -66t-58.5 -79.5t-48.5 -66.5q-1 -1 -77.5 -103t-98.5 -146l-25 -45q-15 -27 -41.5 -92t-25.5 -76q2 -11 -2 -34t-11 -29q-71 -94 -74 -114q-2 -4 -6.5 -9.5
t-16 -12.5t-20.5 -1q-10 7 -14 17q-10 10 -2 41l2 9q1 34 22.5 90t46.5 94l3 3q46 88 155.5 249.5t204.5 291.5q176 240 260 432q13 28 21 46.5t19 51t14 55.5t2 51t-12 47t-34.5 35.5t-59.5 23.5q-99 19 -300 -36q-43 -11 -107 -31q-87 -28 -257 -98q-71 -30 -130 -58
q-100 -47 -170 -100q-8 -6 -21 -25t-17 -23q-6 -5 -17 -10t-16 -11zM1013 1108q-21 -22 -56 -10q-19 7 -26.5 23t3.5 35q39 43 173 79t182 15q42 -17 57 -64q2 -5 12.5 -28.5t12.5 -27.5q0 -1 3 -11q-2 -17 -18 -21q-2 0 -3 -1q-13 3 -17 14q-1 7 -0.5 14t-0.5 14.5t-4 11.5
q-21 27 -43 41q-15 10 -32.5 13.5t-42 -1t-37 -7.5t-42.5 -14t-34 -12q-53 -19 -87 -63z" />
    <glyph glyph-name="Idieresis" unicode="&#xcf;" horiz-adv-x="1341" 
d="M190 568l-16 -22q-7 -12 -12.5 -35.5t-11.5 -32.5q-13 -19 -44 -23t-45 5q-42 23 -42 56q0 20 30 66q4 6 19 21t28 27l12 11q18 17 53 38.5t71 40t87.5 42t83 37t77.5 33t53 22.5q374 150 722 154q19 0 44.5 -10.5t44 -22t41.5 -27.5t26 -18q12 -9 18 -32t6 -45t-1 -42
l-2 -20q1 -20 -5 -45t-11.5 -38.5t-21 -45.5t-18.5 -39q-35 -76 -122.5 -187.5t-105.5 -138.5q-20 -30 -46 -66t-58.5 -79.5t-48.5 -66.5q-1 -1 -77.5 -103t-98.5 -146l-25 -45q-15 -27 -41.5 -92t-25.5 -76q2 -11 -2 -34t-11 -29q-71 -94 -74 -114q-2 -4 -6.5 -9.5
t-16 -12.5t-20.5 -1q-10 7 -14 17q-10 10 -2 41l2 9q1 34 22.5 90t46.5 94l3 3q46 88 155.5 249.5t204.5 291.5q176 240 260 432q13 28 21 46.5t19 51t14 55.5t2 51t-12 47t-34.5 35.5t-59.5 23.5q-99 19 -300 -36q-43 -11 -107 -31q-87 -28 -257 -98q-71 -30 -130 -58
q-100 -47 -170 -100q-8 -6 -21 -25t-17 -23q-6 -5 -17 -10t-16 -11zM1236 1188q0 1 -0.5 3t-0.5 4q0 8 1 14l1 4q11 20 35 22q26 2 34 -8l10 -5q19 -11 59 5l4 4q14 14 14 -5q-1 -9 -4 -21l-6 -8q-19 -37 -60.5 -52t-64.5 7q-14 10 -21 33q0 1 -1 3zM1019 1168q-1 3 0 6
q0 14 12 23q7 10 22 13q16 16 38 10q17 7 32 -3t15 -30q-3 -18 -17.5 -35t-29.5 -23q-22 -9 -45.5 5t-26.5 34z" />
    <glyph glyph-name="Ntilde" unicode="&#xd1;" horiz-adv-x="2235" 
d="M104 662q-5 47 40 58q14 3 65.5 3.5t83.5 4.5q14 2 48 15t42 13q13 5 37 15q29 12 102.5 43t108.5 45.5t100 41t109.5 42.5t102.5 35t111 33q2 1 28.5 8t43 11.5t45.5 8.5t48 2.5t38 -9.5t27 -24q5 -15 4 -31t-12 -40t-22 -44t-27 -43.5t-27 -38t-22 -28.5t-11 -15
q-51 -69 -96 -121q-32 -40 -83 -97t-93.5 -103t-114.5 -124t-110 -119q62 49 146.5 113t162.5 122t90 67q36 28 74 55.5t63.5 45.5t71 48t63 41t75.5 47.5t74 46.5q51 33 189.5 88.5t199.5 47.5q64 -10 83 -54q4 -10 5 -24t0.5 -24t-2 -19.5t-1.5 -10.5q-3 -9 -8 -26t-7 -23
l-6 -18t-7 -18.5t-8 -17.5t-10 -21.5t-13 -24.5q-23 -41 -74 -138.5t-78 -142.5q-71 -123 -111 -219q-11 -27 -25 -54.5t-19.5 -40t-11 -38t-6.5 -63.5q-2 -67 25 -97q25 -26 72 -29t74 9q3 1 30 9.5t34.5 11.5t31 11t35.5 13t31.5 13.5t34.5 16.5t30 17q44 26 178 120
q18 12 29 26.5t29 26.5l26 27l2 3q1 3 14 8t16 4l15 -4q10 -7 10 -19q-2 -11 -11.5 -19.5t-25 -18.5t-23.5 -18q-26 -22 -59 -47q-12 -9 -63 -46.5t-83.5 -61t-88 -59.5t-97 -58t-88.5 -39t-82 -18q-17 0 -35 4t-41.5 12.5t-34.5 11.5q-9 5 -22 18t-18 29q-18 61 -12 97
q18 101 37 156q51 139 80.5 204t106.5 212q37 69 57 111.5t39.5 106.5t22.5 123q1 27 -23 35q-54 16 -108 -9q-24 -11 -75 -31t-88.5 -38t-70.5 -40q-59 -38 -142.5 -87.5t-148 -91.5t-135.5 -98q-25 -19 -95 -80t-171.5 -150.5t-148.5 -130.5q-45 -39 -125 -130.5
t-87 -97.5q-8 -7 -15.5 -17.5t-16.5 -26t-14.5 -26t-15.5 -30.5l-13 -26l-24 -64q-17 -43 -23 -49q-39 -34 -68 -36q-8 2 -20 10.5t-15 15.5q-9 21 -5 59t16 60q19 37 66 96q54 68 73 88q13 17 39 48t36 43q68 91 298.5 344.5t284.5 319.5q49 62 84 124q44 80 48 122
q0 2 1 10t1 12.5t-0.5 10.5t-3 9t-6.5 3q-31 0 -61 -3q-91 -9 -166 -36q-90 -33 -268 -129q-117 -66 -170 -89l-125 -55q-3 -1 -30.5 -12t-54 -20.5t-43.5 -14.5q-41 -15 -79 -1.5t-44 55.5zM1547 1174l-38 -18q-6 -5 -21 -17t-26.5 -20.5t-12.5 -10.5q-11 -11 -27 -9.5
t-30 12.5l-2 2q-14 38 14 64q82 52 166 59q39 4 56 2q8 -1 22.5 -5t17.5 -5q22 -5 58.5 -27t63.5 -30q25 -9 59.5 -10t72.5 14q2 11 19.5 27.5t29.5 17.5l1 1l1 -1h2h-1h2q16 -3 6 -23q-20 -49 -72.5 -76t-93.5 -19q-37 7 -85 45t-66 45q-24 9 -59 5q-12 -1 -57 -23z" />
    <glyph glyph-name="Ograve" unicode="&#xd2;" horiz-adv-x="1906" 
d="M1030 660q6 -23 -12 -42.5t-46 -26.5q-5 -3 -14.5 -1t-12.5 3t-13.5 5.5t-15.5 6.5q-31 10 -55 -7q-10 -6 -39.5 -25.5t-48.5 -29.5q-87 -44 -154 -99q-119 -107 -170 -184q-6 -10 -19.5 -33t-24 -39.5t-22.5 -29.5q-28 -36 -55 -133q-34 -124 -17 -197q14 -72 83 -117
q73 -46 129 -46q4 0 28.5 -2t59 -4t61.5 -2q17 0 35 1t37.5 5t33.5 6.5t36 8.5t31 8.5t31.5 9.5t26.5 8q83 25 122.5 37t105.5 38.5t117 54.5q33 16 148 94q133 91 248 219q156 168 213 376q22 97 7 174q-31 142 -169 208q-26 12 -61.5 19t-77.5 11t-54 6q-84 14 -149 8
q-190 -14 -319 -46q-293 -82 -389 -123q-16 -7 -54.5 -23t-63 -26.5t-55.5 -26t-52 -28.5q-49 -33 -152 -129q-103 -108 -111 -133q-2 -5 -7 -16t-7 -20q0 -2 -1 -13.5t1 -20.5q4 -23 -6 -46.5t-23 -28.5q-51 -10 -51 46q1 20 9.5 42.5t20.5 45t13 26.5q20 34 132 146
q6 5 31 24.5t46 36t30 22.5q72 63 260 155q185 95 391 134q302 73 470 56q138 -11 148 -12q12 -2 42 -8t48 -8q82 -12 167.5 -99t93.5 -160q0 -2 2.5 -21t3 -23t1.5 -21t1 -23.5t-0.5 -21.5t-2.5 -25t-5 -23.5t-8 -26.5q-57 -145 -92 -208q-68 -120 -164 -198
q-48 -39 -123 -104.5t-108 -92.5q-112 -92 -257 -166q-284 -118 -437 -157q-159 -38 -287 -22q-95 11 -135 37q-5 3 -25.5 15t-29.5 20q-92 78 -78 219q2 17 12 51.5t13 53.5q2 13 7 29t10.5 28.5t15.5 32.5t15.5 30.5t18.5 33.5t17 31q48 80 100 144q33 43 65 75
q85 98 142 146q6 5 31.5 24.5t35.5 27t33 24t38 26t36.5 21.5t40.5 21q50 26 115 34q5 -1 13.5 -2t11 -1.5t8 -2t9 -5l8.5 -8.5q9 -7 13 -28zM1374 1250q19 0 106 -36q14 -3 49 -11.5t53 -10.5q21 -3 64 -5.5t67 -6.5q1 0 3 -0.5t3 -0.5q11 5 44 8q21 4 29 -21q0 -10 -7 -17
q-7 -6 -17.5 -7t-27.5 1.5t-20 2.5q-24 2 -71 1.5t-71 0.5q-165 10 -171 11q-1 -1 -7 1l-7 1q-9 0 -27.5 5.5t-28.5 14.5q-21 19 -21 37.5t24 28.5z" />
    <glyph glyph-name="Oacute" unicode="&#xd3;" horiz-adv-x="1906" 
d="M1030 660q6 -23 -12 -42.5t-46 -26.5q-5 -3 -14.5 -1t-12.5 3t-13.5 5.5t-15.5 6.5q-31 10 -55 -7q-10 -6 -39.5 -25.5t-48.5 -29.5q-87 -44 -154 -99q-119 -107 -170 -184q-6 -10 -19.5 -33t-24 -39.5t-22.5 -29.5q-28 -36 -55 -133q-34 -124 -17 -197q14 -72 83 -117
q73 -46 129 -46q4 0 28.5 -2t59 -4t61.5 -2q17 0 35 1t37.5 5t33.5 6.5t36 8.5t31 8.5t31.5 9.5t26.5 8q83 25 122.5 37t105.5 38.5t117 54.5q33 16 148 94q133 91 248 219q156 168 213 376q22 97 7 174q-31 142 -169 208q-26 12 -61.5 19t-77.5 11t-54 6q-84 14 -149 8
q-190 -14 -319 -46q-293 -82 -389 -123q-16 -7 -54.5 -23t-63 -26.5t-55.5 -26t-52 -28.5q-49 -33 -152 -129q-103 -108 -111 -133q-2 -5 -7 -16t-7 -20q0 -2 -1 -13.5t1 -20.5q4 -23 -6 -46.5t-23 -28.5q-51 -10 -51 46q1 20 9.5 42.5t20.5 45t13 26.5q20 34 132 146
q6 5 31 24.5t46 36t30 22.5q72 63 260 155q185 95 391 134q302 73 470 56q138 -11 148 -12q12 -2 42 -8t48 -8q82 -12 167.5 -99t93.5 -160q0 -2 2.5 -21t3 -23t1.5 -21t1 -23.5t-0.5 -21.5t-2.5 -25t-5 -23.5t-8 -26.5q-57 -145 -92 -208q-68 -120 -164 -198
q-48 -39 -123 -104.5t-108 -92.5q-112 -92 -257 -166q-284 -118 -437 -157q-159 -38 -287 -22q-95 11 -135 37q-5 3 -25.5 15t-29.5 20q-92 78 -78 219q2 17 12 51.5t13 53.5q2 13 7 29t10.5 28.5t15.5 32.5t15.5 30.5t18.5 33.5t17 31q48 80 100 144q33 43 65 75
q85 98 142 146q6 5 31.5 24.5t35.5 27t33 24t38 26t36.5 21.5t40.5 21q50 26 115 34q5 -1 13.5 -2t11 -1.5t8 -2t9 -5l8.5 -8.5q9 -7 13 -28zM1668 1188q-21 -8 -69 -18.5t-70 -19.5q-9 -4 -34 -10.5t-26 -6.5l-24 -4l-4 -1q-9 -6 -41.5 -14.5t-51.5 -19.5q-16 -7 -32 -1
q-12 8 -18 23v2q0 15 7 32q6 11 16 21q17 10 37 13q53 6 66 2q9 -2 32 1.5t44 8t23 4.5q34 11 86 19t81 16q14 4 44.5 9.5t44.5 9.5l4 2q7 1 14 -2q6 -3 7 -5t-1 -8l-2 -5q-3 -4 -11 -7l-2 -1q-3 -1 -4 -1l-2 -2q-4 -4 -31 -8q-13 -3 -26.5 -7.5t-30.5 -11.5t-26 -10z" />
    <glyph glyph-name="Ocircumflex" unicode="&#xd4;" horiz-adv-x="1906" 
d="M1030 660q6 -23 -12 -42.5t-46 -26.5q-5 -3 -14.5 -1t-12.5 3t-13.5 5.5t-15.5 6.5q-31 10 -55 -7q-10 -6 -39.5 -25.5t-48.5 -29.5q-87 -44 -154 -99q-119 -107 -170 -184q-6 -10 -19.5 -33t-24 -39.5t-22.5 -29.5q-28 -36 -55 -133q-34 -124 -17 -197q14 -72 83 -117
q73 -46 129 -46q4 0 28.5 -2t59 -4t61.5 -2q17 0 35 1t37.5 5t33.5 6.5t36 8.5t31 8.5t31.5 9.5t26.5 8q83 25 122.5 37t105.5 38.5t117 54.5q33 16 148 94q133 91 248 219q156 168 213 376q22 97 7 174q-31 142 -169 208q-26 12 -61.5 19t-77.5 11t-54 6q-84 14 -149 8
q-190 -14 -319 -46q-293 -82 -389 -123q-16 -7 -54.5 -23t-63 -26.5t-55.5 -26t-52 -28.5q-49 -33 -152 -129q-103 -108 -111 -133q-2 -5 -7 -16t-7 -20q0 -2 -1 -13.5t1 -20.5q4 -23 -6 -46.5t-23 -28.5q-51 -10 -51 46q1 20 9.5 42.5t20.5 45t13 26.5q20 34 132 146
q6 5 31 24.5t46 36t30 22.5q72 63 260 155q185 95 391 134q302 73 470 56q138 -11 148 -12q12 -2 42 -8t48 -8q82 -12 167.5 -99t93.5 -160q0 -2 2.5 -21t3 -23t1.5 -21t1 -23.5t-0.5 -21.5t-2.5 -25t-5 -23.5t-8 -26.5q-57 -145 -92 -208q-68 -120 -164 -198
q-48 -39 -123 -104.5t-108 -92.5q-112 -92 -257 -166q-284 -118 -437 -157q-159 -38 -287 -22q-95 11 -135 37q-5 3 -25.5 15t-29.5 20q-92 78 -78 219q2 17 12 51.5t13 53.5q2 13 7 29t10.5 28.5t15.5 32.5t15.5 30.5t18.5 33.5t17 31q48 80 100 144q33 43 65 75
q85 98 142 146q6 5 31.5 24.5t35.5 27t33 24t38 26t36.5 21.5t40.5 21q50 26 115 34q5 -1 13.5 -2t11 -1.5t8 -2t9 -5l8.5 -8.5q9 -7 13 -28zM1379 1120q-21 -22 -56 -10q-19 7 -26.5 23t3.5 35q39 43 173 79t182 15q42 -17 57 -64q2 -4 12.5 -28t12.5 -28q0 -1 3 -11
q-2 -17 -18 -21q-2 0 -3 -1q-13 3 -17 14q-1 7 -0.5 14t-0.5 14.5t-4 11.5q-21 27 -43 41q-15 10 -32.5 13.5t-42 -1t-37 -7.5t-42.5 -14t-34 -12q-53 -19 -87 -63z" />
    <glyph glyph-name="Otilde" unicode="&#xd5;" horiz-adv-x="1906" 
d="M1030 660q6 -23 -12 -42.5t-46 -26.5q-5 -3 -14.5 -1t-12.5 3t-13.5 5.5t-15.5 6.5q-31 10 -55 -7q-10 -6 -39.5 -25.5t-48.5 -29.5q-87 -44 -154 -99q-119 -107 -170 -184q-6 -10 -19.5 -33t-24 -39.5t-22.5 -29.5q-28 -36 -55 -133q-34 -124 -17 -197q14 -72 83 -117
q73 -46 129 -46q4 0 28.5 -2t59 -4t61.5 -2q17 0 35 1t37.5 5t33.5 6.5t36 8.5t31 8.5t31.5 9.5t26.5 8q83 25 122.5 37t105.5 38.5t117 54.5q33 16 148 94q133 91 248 219q156 168 213 376q22 97 7 174q-31 142 -169 208q-26 12 -61.5 19t-77.5 11t-54 6q-84 14 -149 8
q-190 -14 -319 -46q-293 -82 -389 -123q-16 -7 -54.5 -23t-63 -26.5t-55.5 -26t-52 -28.5q-49 -33 -152 -129q-103 -108 -111 -133q-2 -5 -7 -16t-7 -20q0 -2 -1 -13.5t1 -20.5q4 -23 -6 -46.5t-23 -28.5q-51 -10 -51 46q1 20 9.5 42.5t20.5 45t13 26.5q20 34 132 146
q6 5 31 24.5t46 36t30 22.5q72 63 260 155q185 95 391 134q302 73 470 56q138 -11 148 -12q12 -2 42 -8t48 -8q82 -12 167.5 -99t93.5 -160q0 -2 2.5 -21t3 -23t1.5 -21t1 -23.5t-0.5 -21.5t-2.5 -25t-5 -23.5t-8 -26.5q-57 -145 -92 -208q-68 -120 -164 -198
q-48 -39 -123 -104.5t-108 -92.5q-112 -92 -257 -166q-284 -118 -437 -157q-159 -38 -287 -22q-95 11 -135 37q-5 3 -25.5 15t-29.5 20q-92 78 -78 219q2 17 12 51.5t13 53.5q2 13 7 29t10.5 28.5t15.5 32.5t15.5 30.5t18.5 33.5t17 31q48 80 100 144q33 43 65 75
q85 98 142 146q6 5 31.5 24.5t35.5 27t33 24t38 26t36.5 21.5t40.5 21q50 26 115 34q5 -1 13.5 -2t11 -1.5t8 -2t9 -5l8.5 -8.5q9 -7 13 -28zM1379 1197l-38 -18q-6 -5 -21 -17t-26.5 -20.5t-12.5 -10.5q-11 -11 -27 -9.5t-30 12.5l-2 2q-14 38 14 64q82 52 166 59
q39 4 56 2q8 -1 22.5 -5t17.5 -5q22 -5 58.5 -27t63.5 -30q25 -9 59.5 -10t72.5 14q2 11 19.5 27.5t29.5 17.5l1 1h1q1 -1 2 -1h-1h2q16 -3 6 -23q-20 -49 -72.5 -76t-93.5 -19q-37 7 -85 45t-66 45q-24 9 -59 5q-12 -1 -57 -23z" />
    <glyph glyph-name="Odieresis" unicode="&#xd6;" horiz-adv-x="1906" 
d="M1030 660q6 -23 -12 -42.5t-46 -26.5q-5 -3 -14.5 -1t-12.5 3t-13.5 5.5t-15.5 6.5q-31 10 -55 -7q-10 -6 -39.5 -25.5t-48.5 -29.5q-87 -44 -154 -99q-119 -107 -170 -184q-6 -10 -19.5 -33t-24 -39.5t-22.5 -29.5q-28 -36 -55 -133q-34 -124 -17 -197q14 -72 83 -117
q73 -46 129 -46q4 0 28.5 -2t59 -4t61.5 -2q17 0 35 1t37.5 5t33.5 6.5t36 8.5t31 8.5t31.5 9.5t26.5 8q83 25 122.5 37t105.5 38.5t117 54.5q33 16 148 94q133 91 248 219q156 168 213 376q22 97 7 174q-31 142 -169 208q-26 12 -61.5 19t-77.5 11t-54 6q-84 14 -149 8
q-190 -14 -319 -46q-293 -82 -389 -123q-16 -7 -54.5 -23t-63 -26.5t-55.5 -26t-52 -28.5q-49 -33 -152 -129q-103 -108 -111 -133q-2 -5 -7 -16t-7 -20q0 -2 -1 -13.5t1 -20.5q4 -23 -6 -46.5t-23 -28.5q-51 -10 -51 46q1 20 9.5 42.5t20.5 45t13 26.5q20 34 132 146
q6 5 31 24.5t46 36t30 22.5q72 63 260 155q185 95 391 134q302 73 470 56q138 -11 148 -12q12 -2 42 -8t48 -8q82 -12 167.5 -99t93.5 -160q0 -2 2.5 -21t3 -23t1.5 -21t1 -23.5t-0.5 -21.5t-2.5 -25t-5 -23.5t-8 -26.5q-57 -145 -92 -208q-68 -120 -164 -198
q-48 -39 -123 -104.5t-108 -92.5q-112 -92 -257 -166q-284 -118 -437 -157q-159 -38 -287 -22q-95 11 -135 37q-5 3 -25.5 15t-29.5 20q-92 78 -78 219q2 17 12 51.5t13 53.5q2 13 7 29t10.5 28.5t15.5 32.5t15.5 30.5t18.5 33.5t17 31q48 80 100 144q33 43 65 75
q85 98 142 146q6 5 31.5 24.5t35.5 27t33 24t38 26t36.5 21.5t40.5 21q50 26 115 34q5 -1 13.5 -2t11 -1.5t8 -2t9 -5l8.5 -8.5q9 -7 13 -28zM1611 1161q0 1 -0.5 3t-0.5 4q0 8 1 14l1 4q11 20 35 22q26 2 34 -8l10 -5q19 -11 59 5l4 4q14 14 14 -5q-1 -9 -4 -21l-6 -8
q-19 -37 -60.5 -52t-64.5 7q-14 10 -21 33v1q-1 1 -1 2zM1394 1141q-2 3 0 6q0 14 12 23q7 10 22 13q16 16 38 10q17 7 32 -3t15 -30q-3 -18 -17.5 -35t-29.5 -23q-22 -9 -45.5 5t-26.5 34z" />
    <glyph glyph-name="multiply" unicode="&#xd7;" horiz-adv-x="855" 
d="M387 388q25 -17 37 -85l20 -34l79 33q82 36 119 50l33 21q20 8 40.5 24t38 23.5t44.5 3.5q20 -4 25 -22q0 -22 -33.5 -40.5t-88.5 -36t-62 -20.5q-14 -6 -65 -25t-78 -33q-16 -8 -28 -16q21 -30 49 -59q10 -12 21.5 -27t21.5 -26.5t24 -25.5q7 -8 33.5 -23.5t32.5 -20.5
q50 -11 56 -20q17 -17 7 -34q-11 -16 -33 -15q-11 1 -24 6.5t-22 10.5t-23 16t-19.5 15.5t-19.5 17.5l-14 12q-83 77 -144 140l-34 -22q-14 -9 -39 -19.5t-33 -14.5q-84 -49 -149 -95q-1 -1 -7.5 -10t-14.5 -18t-13 -13q-14 -10 -28 -14q-33 -9 -53 15t5 52q96 77 328 180
q-87 96 -92 132q-1 25 20.5 37t49.5 4q33 -14 33 -24z" />
    <glyph glyph-name="Oslash" unicode="&#xd8;" horiz-adv-x="1906" 
d="M1030 660q6 -23 -12 -42.5t-46 -26.5q-5 -3 -14.5 -1t-12.5 3t-13.5 5.5t-15.5 6.5q-31 10 -55 -7q-10 -6 -39.5 -25.5t-48.5 -29.5q-87 -44 -154 -99q-119 -107 -170 -184q-6 -10 -19.5 -33t-24 -39.5t-22.5 -29.5q-28 -36 -55 -133q-22 -76 -23 -136l171 149
q414 368 918 706q133 89 274 171q-33 10 -98.5 18t-67.5 8q-84 14 -149 8q-190 -14 -319 -46q-293 -82 -389 -123q-16 -7 -54.5 -23t-63 -26.5t-55.5 -26t-52 -28.5q-49 -33 -152 -129q-103 -108 -111 -133q-2 -5 -7 -16t-7 -20q0 -2 -1 -13.5t1 -20.5q4 -23 -6 -46.5
t-23 -28.5q-51 -10 -51 46q1 20 9.5 42.5t20.5 45t13 26.5q20 34 132 146q6 5 31 24.5t46 36t30 22.5q72 63 260 155q185 95 391 134q302 73 470 56q138 -11 148 -12q12 -2 42 -8t48 -8q22 -3 46 -14q8 4 53 29.5t62.5 34.5t51.5 24.5t62 25.5q13 0 19 -8.5t1 -19.5
q-6 -11 -17 -22.5t-19 -17.5t-24.5 -17.5t-22.5 -15.5q-8 -5 -66 -5l-13 -7l-43 -24q64 -40 114.5 -105t56.5 -117q0 -2 2.5 -21t3 -23t1.5 -21t1 -23.5t-0.5 -21.5t-2.5 -25t-5 -23.5t-8 -26.5q-57 -145 -92 -208q-68 -120 -164 -198q-48 -39 -123 -104.5t-108 -92.5
q-112 -92 -257 -166q-284 -118 -437 -157q-159 -38 -287 -22q-95 11 -135 37q-5 3 -25.5 15t-29.5 20q-41 34 -61 81q-139 -130 -286 -257q-13 -11 -53 -48.5t-70.5 -60t-62.5 -35.5q-26 -6 -39.5 12.5t0.5 41.5q5 5 -1 18t-1 27q7 19 31 34.5t40 18.5q5 0 22.5 8t51.5 25.5
t50 25.5q37 41 61 62t239 207q-2 22 1 59q2 17 12 51.5t13 53.5q2 13 7 29t10.5 28.5t15.5 32.5t15.5 30.5t18.5 33.5t17 31q48 80 100 144q33 43 65 75q85 98 142 146q6 5 31.5 24.5t35.5 27t33 24t38 26t36.5 21.5t40.5 21q50 26 115 34q5 -1 13.5 -2t11 -1.5t8 -2t9 -5
l8.5 -8.5q9 -7 13 -28zM1053 455q-52 -39 -105 -81t-113 -94t-102.5 -88.5t-112 -100.5t-100 -91.5t-108 -100t-97.5 -90.5q19 -59 79 -98q73 -46 129 -46q4 0 28.5 -2t59 -4t61.5 -2q17 0 35 1t37.5 5t33.5 6.5t36 8.5t31 8.5t31.5 9.5t26.5 8q83 25 122.5 37t105.5 38.5
t117 54.5q33 16 148 94q133 91 248 219q156 168 213 376q22 97 7 174q-30 132 -152 199q-190 -98 -273 -155q-42 -29 -97 -69t-95 -70t-103.5 -78.5t-90.5 -68.5z" />
    <glyph glyph-name="Ugrave" unicode="&#xd9;" horiz-adv-x="1866" 
d="M2159 1004q21 -1 32.5 -13t12.5 -28q3 -11 -1 -23q-33 -61 -64.5 -107.5t-82.5 -111.5t-78 -102q-46 -65 -106 -144t-103 -140t-95 -150q-6 -10 -74.5 -120t-99.5 -175q-22 -47 -30 -68t-17 -63q-13 -46 -13 -64q-1 -16 13 -34l13.5 -18t10.5 -13.5t5 -9t1 -11.5
q0 -2 -9.5 -13.5t-11.5 -11.5q-23 -6 -46 0.5t-24 23.5q-1 9 -4 30.5t-3.5 31t3.5 30.5q9 29 20.5 65.5t16 50.5t13 36.5t17.5 42t23 47.5t36 70q50 96 102 183.5t84.5 136t106.5 155t113 164.5l-89 -78q-62 -47 -231 -180q-71 -56 -210 -151t-153 -105q-13 -9 -129 -93
t-169 -114q-9 -5 -76 -44.5t-127.5 -74.5t-125.5 -69.5t-90 -41.5q-16 -5 -32.5 -7t-40 -3t-32.5 -2q-44 -4 -68 28t-22 75.5t16 83.5q12 32 51 108q14 32 52.5 89.5t48.5 74.5q67 116 226 320q80 106 184 260q9 12 21.5 40.5t20 60.5t-8.5 42q-30 18 -103 23t-97 -4
q-30 -10 -90.5 -24.5t-97.5 -28.5q-36 -14 -56 -27t-55 -28q-39 -16 -119 -64q-91 -54 -121 -96q-12 -17 -22.5 -28.5t-16.5 -17t-22.5 -19l-27.5 -22.5q-18 -10 -47.5 -1.5t-40.5 28.5q-16 28 15 77q52 41 108 65q14 7 49 22t55 25q32 15 84.5 36.5t72.5 30.5
q49 22 92.5 39t73 27t76 22t69 17t86 18.5t95.5 20.5q27 3 40 2.5t40 -5t39 -5.5q14 -4 20.5 -10t8.5 -19q1 -7 5 -27t4 -28t-3 -29q-17 -76 -178 -268q-14 -16 -46.5 -53.5t-55.5 -65.5t-43 -55q-20 -28 -61.5 -84t-73 -101t-56.5 -87q-13 -22 -38 -61.5t-39 -68t-26 -68.5
q-10 -27 -5.5 -81.5t28.5 -58.5q57 -9 184 45q168 71 283 142q185 121 372 260q162 121 292 230l114 90q34 27 79 70.5t69 61.5q8 6 16 13t20 19l21.5 21.5t29.5 30t34 34.5q59 62 80 109q6 13 19 31.5t18 26.5q8 15 32 24t40 8zM1379 1170q19 0 106 -36q14 -3 49 -11.5
t53 -10.5q21 -3 64 -5.5t67 -6.5q1 0 3 -0.5t3 -0.5q11 5 44 8q21 4 29 -21q0 -10 -7 -17q-7 -6 -17.5 -7t-27.5 1.5t-20 2.5q-24 2 -71 1.5t-71 0.5q-165 10 -171 11q-1 -1 -8 1l-6 1q-9 0 -27.5 5.5t-28.5 14.5q-21 19 -21 37.5t24 28.5z" />
    <glyph glyph-name="Uacute" unicode="&#xda;" horiz-adv-x="1866" 
d="M2159 1004q21 -1 32.5 -13t12.5 -28q3 -11 -1 -23q-33 -61 -64.5 -107.5t-82.5 -111.5t-78 -102q-46 -65 -106 -144t-103 -140t-95 -150q-6 -10 -74.5 -120t-99.5 -175q-22 -47 -30 -68t-17 -63q-13 -46 -13 -64q-1 -16 13 -34l13.5 -18t10.5 -13.5t5 -9t1 -11.5
q0 -2 -9.5 -13.5t-11.5 -11.5q-23 -6 -46 0.5t-24 23.5q-1 9 -4 30.5t-3.5 31t3.5 30.5q9 29 20.5 65.5t16 50.5t13 36.5t17.5 42t23 47.5t36 70q50 96 102 183.5t84.5 136t106.5 155t113 164.5l-89 -78q-62 -47 -231 -180q-71 -56 -210 -151t-153 -105q-13 -9 -129 -93
t-169 -114q-9 -5 -76 -44.5t-127.5 -74.5t-125.5 -69.5t-90 -41.5q-16 -5 -32.5 -7t-40 -3t-32.5 -2q-44 -4 -68 28t-22 75.5t16 83.5q12 32 51 108q14 32 52.5 89.5t48.5 74.5q67 116 226 320q80 106 184 260q9 12 21.5 40.5t20 60.5t-8.5 42q-30 18 -103 23t-97 -4
q-30 -10 -90.5 -24.5t-97.5 -28.5q-36 -14 -56 -27t-55 -28q-39 -16 -119 -64q-91 -54 -121 -96q-12 -17 -22.5 -28.5t-16.5 -17t-22.5 -19l-27.5 -22.5q-18 -10 -47.5 -1.5t-40.5 28.5q-16 28 15 77q52 41 108 65q14 7 49 22t55 25q32 15 84.5 36.5t72.5 30.5
q49 22 92.5 39t73 27t76 22t69 17t86 18.5t95.5 20.5q27 3 40 2.5t40 -5t39 -5.5q14 -4 20.5 -10t8.5 -19q1 -7 5 -27t4 -28t-3 -29q-17 -76 -178 -268q-14 -16 -46.5 -53.5t-55.5 -65.5t-43 -55q-20 -28 -61.5 -84t-73 -101t-56.5 -87q-13 -22 -38 -61.5t-39 -68t-26 -68.5
q-10 -27 -5.5 -81.5t28.5 -58.5q57 -9 184 45q168 71 283 142q185 121 372 260q162 121 292 230l114 90q34 27 79 70.5t69 61.5q8 6 16 13t20 19l21.5 21.5t29.5 30t34 34.5q59 62 80 109q6 13 19 31.5t18 26.5q8 15 32 24t40 8zM1730 1116q-21 -8 -69 -18.5t-70 -19.5
q-9 -4 -34 -10.5t-26 -6.5l-24 -4l-4 -1q-9 -6 -41.5 -14.5t-51.5 -19.5q-16 -7 -32 -1q-12 8 -18 23v2q0 15 7 32q6 11 16 21q17 10 37 13q53 6 66 2q9 -2 32 1.5t44 8t23 4.5q34 11 86 19t81 16q14 4 44.5 9.5t44.5 9.5l4 2q7 1 14 -2q6 -3 7 -5t-1 -8l-2 -5q-3 -4 -11 -7
l-2 -1q-3 -1 -4 -1l-2 -2q-4 -4 -31 -8q-5 -1 -83 -29z" />
    <glyph glyph-name="Ucircumflex" unicode="&#xdb;" horiz-adv-x="1866" 
d="M2159 1004q21 -1 32.5 -13t12.5 -28q3 -11 -1 -23q-33 -61 -64.5 -107.5t-82.5 -111.5t-78 -102q-46 -65 -106 -144t-103 -140t-95 -150q-6 -10 -74.5 -120t-99.5 -175q-22 -47 -30 -68t-17 -63q-13 -46 -13 -64q-1 -16 13 -34l13.5 -18t10.5 -13.5t5 -9t1 -11.5
q0 -2 -9.5 -13.5t-11.5 -11.5q-23 -6 -46 0.5t-24 23.5q-1 9 -4 30.5t-3.5 31t3.5 30.5q9 29 20.5 65.5t16 50.5t13 36.5t17.5 42t23 47.5t36 70q50 96 102 183.5t84.5 136t106.5 155t113 164.5l-89 -78q-62 -47 -231 -180q-71 -56 -210 -151t-153 -105q-13 -9 -129 -93
t-169 -114q-9 -5 -76 -44.5t-127.5 -74.5t-125.5 -69.5t-90 -41.5q-16 -5 -32.5 -7t-40 -3t-32.5 -2q-44 -4 -68 28t-22 75.5t16 83.5q12 32 51 108q14 32 52.5 89.5t48.5 74.5q67 116 226 320q80 106 184 260q9 12 21.5 40.5t20 60.5t-8.5 42q-30 18 -103 23t-97 -4
q-30 -10 -90.5 -24.5t-97.5 -28.5q-36 -14 -56 -27t-55 -28q-39 -16 -119 -64q-91 -54 -121 -96q-12 -17 -22.5 -28.5t-16.5 -17t-22.5 -19l-27.5 -22.5q-18 -10 -47.5 -1.5t-40.5 28.5q-16 28 15 77q52 41 108 65q14 7 49 22t55 25q32 15 84.5 36.5t72.5 30.5
q49 22 92.5 39t73 27t76 22t69 17t86 18.5t95.5 20.5q27 3 40 2.5t40 -5t39 -5.5q14 -4 20.5 -10t8.5 -19q1 -7 5 -27t4 -28t-3 -29q-17 -76 -178 -268q-14 -16 -46.5 -53.5t-55.5 -65.5t-43 -55q-20 -28 -61.5 -84t-73 -101t-56.5 -87q-13 -22 -38 -61.5t-39 -68t-26 -68.5
q-10 -27 -5.5 -81.5t28.5 -58.5q57 -9 184 45q168 71 283 142q185 121 372 260q162 121 292 230l114 90q34 27 79 70.5t69 61.5q8 6 16 13t20 19l21.5 21.5t29.5 30t34 34.5q59 62 80 109q6 13 19 31.5t18 26.5q8 15 32 24t40 8zM1446 1064q-21 -22 -56 -10q-19 7 -26.5 23
t3.5 35q39 43 173 79t182 15q42 -17 57 -64q2 -5 12.5 -28t12.5 -28q0 -1 3 -11q-1 -17 -18 -21q-2 0 -3 -1q-13 3 -17 14q-1 7 -0.5 14t-0.5 14.5t-4 11.5q-21 27 -43 41q-15 10 -32.5 13.5t-42 -1t-37 -7.5t-42.5 -14t-34 -12q-53 -19 -87 -63z" />
    <glyph glyph-name="Udieresis" unicode="&#xdc;" horiz-adv-x="1866" 
d="M2159 1004q21 -1 32.5 -13t12.5 -28q3 -11 -1 -23q-33 -61 -64.5 -107.5t-82.5 -111.5t-78 -102q-46 -65 -106 -144t-103 -140t-95 -150q-6 -10 -74.5 -120t-99.5 -175q-22 -47 -30 -68t-17 -63q-13 -46 -13 -64q-1 -16 13 -34l13.5 -18t10.5 -13.5t5 -9t1 -11.5
q0 -2 -9.5 -13.5t-11.5 -11.5q-23 -6 -46 0.5t-24 23.5q-1 9 -4 30.5t-3.5 31t3.5 30.5q9 29 20.5 65.5t16 50.5t13 36.5t17.5 42t23 47.5t36 70q50 96 102 183.5t84.5 136t106.5 155t113 164.5l-89 -78q-62 -47 -231 -180q-71 -56 -210 -151t-153 -105q-13 -9 -129 -93
t-169 -114q-9 -5 -76 -44.5t-127.5 -74.5t-125.5 -69.5t-90 -41.5q-16 -5 -32.5 -7t-40 -3t-32.5 -2q-44 -4 -68 28t-22 75.5t16 83.5q12 32 51 108q14 32 52.5 89.5t48.5 74.5q67 116 226 320q80 106 184 260q9 12 21.5 40.5t20 60.5t-8.5 42q-30 18 -103 23t-97 -4
q-30 -10 -90.5 -24.5t-97.5 -28.5q-36 -14 -56 -27t-55 -28q-39 -16 -119 -64q-91 -54 -121 -96q-12 -17 -22.5 -28.5t-16.5 -17t-22.5 -19l-27.5 -22.5q-18 -10 -47.5 -1.5t-40.5 28.5q-16 28 15 77q52 41 108 65q14 7 49 22t55 25q32 15 84.5 36.5t72.5 30.5
q49 22 92.5 39t73 27t76 22t69 17t86 18.5t95.5 20.5q27 3 40 2.5t40 -5t39 -5.5q14 -4 20.5 -10t8.5 -19q1 -7 5 -27t4 -28t-3 -29q-17 -76 -178 -268q-14 -16 -46.5 -53.5t-55.5 -65.5t-43 -55q-20 -28 -61.5 -84t-73 -101t-56.5 -87q-13 -22 -38 -61.5t-39 -68t-26 -68.5
q-10 -27 -5.5 -81.5t28.5 -58.5q57 -9 184 45q168 71 283 142q185 121 372 260q162 121 292 230l114 90q34 27 79 70.5t69 61.5q8 6 16 13t20 19l21.5 21.5t29.5 30t34 34.5q59 62 80 109q6 13 19 31.5t18 26.5q8 15 32 24t40 8zM1650 1085q0 1 -0.5 3t-0.5 4q0 8 1 14l1 4
q11 20 35 22q26 2 34 -8l10 -5q19 -11 59 5l4 4q14 14 14 -5q-1 -9 -4 -21l-6 -8q-19 -37 -60.5 -52t-64.5 7q-14 10 -21 33l-1 1v2zM1433 1065q-1 3 0 6q0 14 12 23q7 10 22 13q16 16 38 10q17 7 32 -3t15 -30q-3 -18 -17.5 -35t-29.5 -23q-22 -9 -45.5 5t-26.5 34z" />
    <glyph glyph-name="Yacute" unicode="&#xdd;" horiz-adv-x="2109" 
d="M124 452q-31 -22 -76 -14.5t-50 40.5q-3 32 30.5 80t75.5 77q146 100 280.5 167t299.5 122q28 9 79.5 27t93.5 30.5t79 19.5q29 6 59.5 7.5t72.5 0.5t59 -1q15 1 26 -2q42 -20 65 -41.5t29 -47t1 -51t-21 -60.5q-39 -87 -90 -153q-25 -32 -65 -88.5t-53 -73.5
q-15 -20 -64 -78t-71 -88q-20 -28 -46 -75.5t-45 -74.5q-73 -152 -60 -209q18 -64 264 57q21 11 44.5 24.5t54 33t53 34t61 41.5t56.5 39.5t62.5 44t55 39t56.5 41.5t48 35q77 55 228 184.5t198 164.5q52 46 120 122q50 56 89 76q37 21 96 1q33 -11 12 -77q-15 -39 -40 -84
t-68.5 -114.5t-50.5 -81.5q-91 -157 -242 -386q-14 -22 -76.5 -98t-70.5 -86q59 31 230 99q20 8 64.5 27.5t76.5 30.5q63 23 90 25q20 1 37 -12q15 -11 -1 -23q-22 -17 -40 -21q-12 -4 -19 -4q-8 -1 -19 -1h-17t-15.5 -2t-20.5 -7q-25 -9 -72 -25.5t-85.5 -31t-68.5 -29.5
q-34 -18 -98 -49t-100 -50q-54 -67 -131.5 -159t-123.5 -148q-80 -96 -127.5 -151.5t-116 -127.5t-131.5 -126q-135 -120 -215 -162q-79 -40 -110 -31q-13 4 -19.5 14t-7.5 18t-0.5 28t0.5 27q-1 85 195 284q5 5 215 199q43 40 92.5 75t121 80t102.5 66q77 53 191 120
q21 31 107 139.5t116 151.5q118 165 224 373q35 68 76 161q0 10 -6.5 14t-24.5 -5q-4 -3 -55 -35t-83 -56q-46 -34 -197.5 -167.5t-217.5 -179.5q-39 -27 -128 -96t-97 -75q-129 -96 -234 -159q-77 -43 -191 -92.5t-146 -35.5q-12 4 -33 7t-33 8q-22 9 -27 48
q-2 14 0.5 29.5t10.5 40t10 33.5q7 43 102 180q70 102 213 289q38 51 131 204q24 41 34 60t18.5 49.5t8.5 65.5v5q0 20 -1 31t-7 23.5t-19 15.5q-90 19 -208 5.5t-196 -46.5q-185 -76 -267 -123q-23 -13 -46.5 -28.5t-51.5 -38t-44.5 -36t-51.5 -43t-46 -38.5
q-27 -20 -46 -70t-30 -66zM1243 -466q39 44 92 100t93 101.5t84 104.5q-49 -29 -131 -92q-172 -131 -322 -258q-72 -60 -161 -168q-60 -74 -102 -154q-13 -25 -7 -25q4 0 45 30q8 5 13 9q27 19 48.5 32t36 23.5t43.5 34.5q161 135 268 262zM1852 1068q-21 -8 -69 -18.5
t-70 -19.5q-9 -4 -34 -10.5t-26 -6.5l-24 -4l-4 -1q-9 -6 -41.5 -14.5t-51.5 -19.5q-16 -7 -32 -1q-12 8 -18 23v2q0 15 7 32q6 11 16 21q17 10 37 13q53 6 66 2q9 -2 32 1.5t44 8t23 4.5q34 11 86 19t81 16q14 4 44.5 9.5t44.5 9.5l4 2q7 1 14 -2q6 -3 7 -5t-1 -8l-2 -5
q-3 -4 -11 -7l-2 -1q-3 -1 -4 -1l-2 -2q-4 -4 -31 -8q-5 -1 -83 -29z" />
    <glyph glyph-name="germandbls" unicode="&#xdf;" horiz-adv-x="1061" 
d="M96 42q6 -20 -16.5 -39t-50 -23.5t-45.5 7.5q-1 5 -6 14t-6 13q-3 16 7.5 48.5t32 75t39 75t41.5 73.5t27 47q146 244 262 363q128 133 262 213q106 63 200 85q9 1 56 6t72 6t65.5 0t69.5 -10.5t50 -27.5q10 -9 19 -21.5t19 -30.5t15 -25q5 -15 -1 -29q-40 -71 -80 -98
q-98 -69 -149 -96q-21 -11 -76.5 -49t-78.5 -51q-53 -29 -83.5 -47.5t-70 -51t-64.5 -68.5q-15 -21 -9.5 -43.5t17.5 -39.5t25 -25q10 -6 92 -41q3 -1 62.5 -24t98.5 -44t49 -41q8 -16 9 -38t-8 -39q-8 -10 -21.5 -31.5t-26.5 -38.5t-27 -29q-61 -53 -131.5 -94t-154 -72.5
t-147.5 -50t-160 -43.5q-80 -21 -189 -26.5t-187 10.5q-36 13 -35 30q-1 15 10.5 27t20.5 14q19 5 25 -10.5t14 -18.5l20 -7q69 -16 117 -13q80 4 197 35q122 33 216 78t209 123q33 23 54.5 40.5t46.5 46t35 55.5q11 34 6 58t-22 33q-10 5 -158 68q-23 10 -39.5 18
t-34.5 19.5t-29 24t-18 27.5t-6 33.5t10 39.5q11 23 32.5 42.5t64.5 46t50 31.5q47 30 116 68.5t121 73t106 84.5q22 21 42.5 58.5t25.5 73t-19 51.5q-33 19 -50.5 21.5t-56.5 -1.5q-119 -7 -272 -97q-71 -42 -117.5 -76t-97.5 -85q-15 -15 -54.5 -49.5t-48.5 -43.5
q-16 -16 -33.5 -37t-36.5 -48t-31.5 -45t-31.5 -47.5t-23 -35.5q-45 -71 -53 -85q-34 -56 -59 -151t-15 -119z" />
    <glyph glyph-name="agrave" unicode="&#xe0;" horiz-adv-x="861" 
d="M542 305q10 -37 -16 -59.5t-55 3.5q-8 13 -38.5 20t-45.5 0q-2 -1 -27.5 -8t-43.5 -17q-25 -14 -78.5 -48.5t-69.5 -43.5q-44 -26 -74.5 -58.5t-28.5 -46.5q17 -14 47 1q20 8 77 31t85 35q92 39 97 41q18 7 69.5 31t91.5 40.5t54 16.5q11 0 25 -10.5t14 -21.5
q-1 -28 -38.5 -86.5t-37.5 -74.5q0 -23 40 -23q8 0 42 4q150 34 229 86q18 3 20.5 -7t-12.5 -21q-268 -179 -363 -117q-30 19 -25 70q5 45 32 100q3 11 -5 15t-18.5 2.5t-16.5 -4.5q-5 -3 -33.5 -12.5t-49.5 -19.5q-9 -4 -27 -16t-27 -16q-24 -11 -89.5 -43t-96.5 -45
q-89 -37 -134 -39q-2 0 -44 6q-26 14 -30 37q-2 14 8 39q16 36 63 83q31 30 118 90q80 49 166 82q29 11 61.5 19t40.5 12q9 4 77 8q32 3 51 -18zM255 567q19 0 106 -36q14 -3 49 -11.5t53 -10.5q21 -3 64 -5.5t67 -6.5q1 0 3 -0.5t3 -0.5q11 5 44 8q21 4 29 -21
q0 -10 -7 -17q-7 -6 -17.5 -7t-27.5 1.5t-20 2.5q-24 2 -71 1.5t-71 0.5q-165 10 -171 11q-1 -1 -8 0l-6 2q-9 0 -27.5 5.5t-28.5 14.5q-21 19 -21 37.5t24 28.5z" />
    <glyph glyph-name="aacute" unicode="&#xe1;" horiz-adv-x="861" 
d="M542 305q10 -37 -16 -59.5t-55 3.5q-8 13 -38.5 20t-45.5 0q-2 -1 -27.5 -8t-43.5 -17q-25 -14 -78.5 -48.5t-69.5 -43.5q-44 -26 -74.5 -58.5t-28.5 -46.5q17 -14 47 1q20 8 77 31t85 35q92 39 97 41q18 7 69.5 31t91.5 40.5t54 16.5q11 0 25 -10.5t14 -21.5
q-1 -28 -38.5 -86.5t-37.5 -74.5q0 -23 40 -23q8 0 42 4q150 34 229 86q18 3 20.5 -7t-12.5 -21q-268 -179 -363 -117q-30 19 -25 70q5 45 32 100q3 11 -5 15t-18.5 2.5t-16.5 -4.5q-5 -3 -33.5 -12.5t-49.5 -19.5q-9 -4 -27 -16t-27 -16q-24 -11 -89.5 -43t-96.5 -45
q-89 -37 -134 -39q-2 0 -44 6q-26 14 -30 37q-2 14 8 39q16 36 63 83q31 30 118 90q80 49 166 82q29 11 61.5 19t40.5 12q9 4 77 8q32 3 51 -18zM546 517q-21 -8 -69 -18.5t-70 -19.5q-9 -4 -34 -10.5t-26 -6.5l-24 -4l-4 -1q-9 -6 -41.5 -14.5t-51.5 -19.5q-16 -7 -32 -1
q-12 8 -18 23v2q0 15 7 32q6 11 16 21q17 10 37 13q53 6 66 2q9 -2 32 1.5t44 8t23 4.5q34 11 86 19t81 16q14 4 44.5 9.5t44.5 9.5l4 2q7 1 14 -2q6 -3 7 -5t-1 -8l-2 -5q-3 -4 -11 -7l-2 -1q-3 -1 -4 -1l-2 -2q-4 -4 -31 -8q-5 -1 -83 -29z" />
    <glyph glyph-name="acircumflex" unicode="&#xe2;" horiz-adv-x="861" 
d="M542 305q10 -37 -16 -59.5t-55 3.5q-8 13 -38.5 20t-45.5 0q-2 -1 -27.5 -8t-43.5 -17q-25 -14 -78.5 -48.5t-69.5 -43.5q-44 -26 -74.5 -58.5t-28.5 -46.5q17 -14 47 1q20 8 77 31t85 35q92 39 97 41q18 7 69.5 31t91.5 40.5t54 16.5q11 0 25 -10.5t14 -21.5
q-1 -28 -38.5 -86.5t-37.5 -74.5q0 -23 40 -23q8 0 42 4q150 34 229 86q18 3 20.5 -7t-12.5 -21q-268 -179 -363 -117q-30 19 -25 70q5 45 32 100q3 11 -5 15t-18.5 2.5t-16.5 -4.5q-5 -3 -33.5 -12.5t-49.5 -19.5q-9 -4 -27 -16t-27 -16q-24 -11 -89.5 -43t-96.5 -45
q-89 -37 -134 -39q-2 0 -44 6q-26 14 -30 37q-2 14 8 39q16 36 63 83q31 30 118 90q80 49 166 82q29 11 61.5 19t40.5 12q9 4 77 8q32 3 51 -18zM297 467q-21 -22 -56 -10q-19 7 -26.5 23t3.5 35q39 43 173 79t182 15q42 -17 57 -64q2 -4 12.5 -27.5t12.5 -28.5q0 -1 3 -11
q-2 -16 -18 -21q-2 0 -3 -1q-13 3 -17 14q-1 7 -0.5 14t-0.5 14.5t-4 11.5q-21 27 -43 41q-15 10 -32.5 13.5t-42 -1t-37 -7.5t-42.5 -14t-34 -12q-53 -19 -87 -63z" />
    <glyph glyph-name="atilde" unicode="&#xe3;" horiz-adv-x="861" 
d="M542 305q10 -37 -16 -59.5t-55 3.5q-8 13 -38.5 20t-45.5 0q-2 -1 -27.5 -8t-43.5 -17q-25 -14 -78.5 -48.5t-69.5 -43.5q-44 -26 -74.5 -58.5t-28.5 -46.5q17 -14 47 1q20 8 77 31t85 35q92 39 97 41q18 7 69.5 31t91.5 40.5t54 16.5q11 0 25 -10.5t14 -21.5
q-1 -28 -38.5 -86.5t-37.5 -74.5q0 -23 40 -23q8 0 42 4q150 34 229 86q18 3 20.5 -7t-12.5 -21q-268 -179 -363 -117q-30 19 -25 70q5 45 32 100q3 11 -5 15t-18.5 2.5t-16.5 -4.5q-5 -3 -33.5 -12.5t-49.5 -19.5q-9 -4 -27 -16t-27 -16q-24 -11 -89.5 -43t-96.5 -45
q-89 -37 -134 -39q-2 0 -44 6q-26 14 -30 37q-2 14 8 39q16 36 63 83q31 30 118 90q80 49 166 82q29 11 61.5 19t40.5 12q9 4 77 8q32 3 51 -18zM293 514l-38 -18q-6 -5 -21 -17t-26.5 -20.5t-12.5 -10.5q-11 -11 -27 -9.5t-30 12.5l-2 2q-14 38 14 64q82 52 166 59
q39 4 56 2q8 -1 22.5 -5t17.5 -5q22 -5 58.5 -27t63.5 -30q25 -9 59.5 -10t72.5 14q2 11 19.5 27.5t29.5 17.5l1 1l1 -1h2h-1h2q16 -3 6 -23q-20 -49 -72.5 -76t-93.5 -19q-37 7 -85 45t-66 45q-24 9 -59 5q-12 -1 -57 -23z" />
    <glyph glyph-name="adieresis" unicode="&#xe4;" horiz-adv-x="861" 
d="M542 305q10 -37 -16 -59.5t-55 3.5q-8 13 -38.5 20t-45.5 0q-2 -1 -27.5 -8t-43.5 -17q-25 -14 -78.5 -48.5t-69.5 -43.5q-44 -26 -74.5 -58.5t-28.5 -46.5q17 -14 47 1q20 8 77 31t85 35q92 39 97 41q18 7 69.5 31t91.5 40.5t54 16.5q11 0 25 -10.5t14 -21.5
q-1 -28 -38.5 -86.5t-37.5 -74.5q0 -23 40 -23q8 0 42 4q150 34 229 86q18 3 20.5 -7t-12.5 -21q-268 -179 -363 -117q-30 19 -25 70q5 45 32 100q3 11 -5 15t-18.5 2.5t-16.5 -4.5q-5 -3 -33.5 -12.5t-49.5 -19.5q-9 -4 -27 -16t-27 -16q-24 -11 -89.5 -43t-96.5 -45
q-89 -37 -134 -39q-2 0 -44 6q-26 14 -30 37q-2 14 8 39q16 36 63 83q31 30 118 90q80 49 166 82q29 11 61.5 19t40.5 12q9 4 77 8q32 3 51 -18zM460 513q0 1 -0.5 3t-0.5 4q0 8 1 14l1 4q11 20 35 22q26 2 34 -8l10 -5q19 -11 59 5l4 4q14 14 14 -5q-1 -9 -4 -21l-6 -8
q-19 -37 -60.5 -52t-64.5 7q-14 10 -21 33l-1 1v2zM243 493q-1 3 0 6q0 14 12 23q7 10 22 13q16 16 38 10q17 7 32 -3t15 -30q-3 -18 -17.5 -35t-29.5 -23q-22 -9 -45.5 5t-26.5 34z" />
    <glyph glyph-name="aring" unicode="&#xe5;" horiz-adv-x="861" 
d="M314 438q5 15 25 52v1q-21 6 -15.5 27.5t29.5 29.5q40 13 103 22q58 7 96 2q62 -9 69 -52q5 -29 -11.5 -60t-47.5 -53q-75 -51 -83 -55q-20 -10 -29 -13q19 0 25 1q32 3 51 -18l16 -17q10 -37 -16 -59.5t-55 3.5q-8 13 -38.5 20t-45.5 0q-2 -1 -27.5 -8t-43.5 -17
q-25 -14 -78.5 -48.5t-69.5 -43.5q-44 -26 -74.5 -58.5t-28.5 -46.5q17 -14 47 1q20 8 77 31t85 35q92 39 97 41q18 7 69.5 31t91.5 40.5t54 16.5q11 0 25 -10.5t14 -21.5q-1 -28 -38.5 -86.5t-37.5 -74.5q0 -23 40 -23q8 0 42 4q150 34 229 86q18 3 20.5 -7t-12.5 -21
q-268 -179 -363 -117q-30 19 -25 70q5 45 32 100q3 11 -5 15t-18.5 2.5t-16.5 -4.5q-5 -3 -33.5 -12.5t-49.5 -19.5q-9 -4 -27 -16t-27 -16q-24 -11 -89.5 -43t-96.5 -45q-89 -37 -134 -39q-2 0 -44 6q-26 14 -30 37q-2 14 8 39q16 36 63 83q31 30 118 90q80 49 166 82
q38 14 75 22q-39 4 -55 39t-2 76zM447 485q-2 -4 -2 -6q0 -1 -1 -1l-9 -6q-5 -4 -58 -36q-26 -28 -28 -46q-1 -7 17.5 -8t38.5 4l28.5 9.5t42.5 11.5q22 4 44 15.5t32 23.5q8 9 9 12.5t-5 8t-9 7.5q-4 4 -14 8.5t-24.5 10t-20.5 7.5q-13 5 -34 7q0 -2 -7 -22z" />
    <glyph glyph-name="ae" unicode="&#xe6;" horiz-adv-x="1470" 
d="M453 262q-12 -8 -45.5 -22.5t-40.5 -13.5q-8 0 -60 -2q-9 -3 -30.5 -3t-34.5 -7q-64 -32 -87 -48q-16 -12 -40.5 -34t-33.5 -28q-5 -3 -12.5 -10.5t-14.5 -17t-5 -18t17 -11.5q38 -6 108 25q33 14 117 51t154.5 67.5t113.5 46.5q10 4 27.5 4.5t29.5 -4.5q8 -5 14 -21.5
t2 -26.5q-46 -72 -52 -80q0 -1 -4.5 -7.5t-9 -14.5t-8 -18t-2 -21t8.5 -20q20 -24 99 -6q96 24 116 30q31 63 134 137q94 71 218 126q20 8 64 17t86 7.5t43 -20.5q4 -28 -28 -61.5t-86 -65.5q-60 -34 -84 -46q-86 -42 -202 -85q-37 -13 -67 -23q7 -7 28 -16q42 -14 105 -10
q169 14 353 68q20 7 61.5 25t61.5 25q3 1 11.5 6t13.5 6q11 9 22.5 4t7.5 -18q-3 -8 -18 -17.5t-37.5 -19.5t-43 -17.5t-40.5 -15t-23 -8.5q-16 -5 -62.5 -22t-73.5 -25q-203 -63 -285 -57q-10 1 -39.5 2t-46.5 3t-39 7.5t-33 18.5t-11 33v1q-22 -7 -64 -19t-58 -17
q-5 -1 -16 -5t-17 -6t-16.5 -5t-17.5 -4t-15.5 -2.5t-16 -1t-14.5 1.5q-24 5 -38 11t-24.5 18t-9.5 32.5t14 49.5q0 1 1 3q11 28 19 37l13 18q5 9 10 20q4 15 1 18q-4 5 -23 1q-47 -10 -67 -19q-114 -48 -164 -77q-27 -15 -45.5 -24.5t-31.5 -15t-53 -22.5t-81 -35
q-38 -16 -91 -14q-19 2 -29 22q-6 13 -5 43q1 10 19 40q23 38 57.5 70.5t83 61t81 44.5t89.5 41q68 33 120 44q47 8 81 7q16 -4 18 -18t-12 -32zM901 123q-22 -18 -37 -45l47 18q95 34 173 84q65 36 101 65q13 6 22 34q3 10 -34 0q-13 -4 -30 -10q-47 -15 -84 -37
q-92 -48 -158 -109z" />
    <glyph glyph-name="ccedilla" unicode="&#xe7;" horiz-adv-x="644" 
d="M492 230h-1h-2q-2 0 -3 -1q-16 -7 -46.5 -2t-44.5 19q-43 -2 -55 -6l-24 -9q-10 -4 -47.5 -10.5t-48.5 -11.5q-31 -13 -74 -43q-24 -18 -53 -43q-15 -15 -19 -34q-5 -18 -3 -33q-1 -6 9.5 -11.5t22 -9t20.5 -4.5q37 -6 108 6q83 9 335 86q31 11 66 25t56 22q24 9 33 -2
q7 -8 -11 -20q-26 -17 -130 -54q-14 -5 -59 -24t-83 -32.5t-70 -20.5q-8 -2 -28.5 -7t-42 -10t-40.5 -9q-19 -14 -93 -32q6 -15 20 -29t27.5 -23.5t26.5 -27t17 -39.5q0 -16 -10 -27q-37 -34 -151 -71.5t-177 -47.5q-91 -14 -137 -2q-20 10 -9 30l12 14q12 6 21.5 5.5
t29.5 -5t27 -4.5q16 3 53.5 2.5t48.5 3.5q43 11 92 28q61 21 111 64q5 5 8 16q2 9 -1.5 13.5t-14.5 13.5q-21 17 -31.5 26.5t-21.5 27.5t-11 35h-2q-16 0 -42 -0.5t-51.5 11t-28.5 34.5q-2 27 0 49t17 43q6 8 46 51q65 65 177 116q94 43 268 84q14 2 19 2t18.5 -2.5
t18.5 -3.5q27 -8 31 -34l-2 -29l-1 -7q-3 -2 -6.5 -4.5t-6.5 -4.5t-7 -4.5t-7 -4.5q-15 -16 -43 -28z" />
    <glyph glyph-name="egrave" unicode="&#xe8;" horiz-adv-x="672" 
d="M215 116q-64 -26 -89 -10q-12 2 -15 9l-14 -12q-11 -9 -23 -31q-5 -8 -5 -22q0 -8 21 -19q39 -18 131 -9q93 6 146 18q35 8 64 16t64.5 20.5t52.5 17.5q11 4 38.5 12t44.5 14q51 15 71 30q8 7 20.5 5t7.5 -15q-1 -3 -5 -6.5t-11 -7.5t-12.5 -6.5t-16.5 -7t-16 -6.5
q-80 -37 -111 -47q-48 -18 -156 -52q-20 -5 -69.5 -19t-78.5 -19q-66 -12 -70 -12q-87 -8 -134 -5q-18 1 -39 9q-8 3 -15.5 9t-9.5 7q-27 16 -27 54q0 35 10 51q1 1 8 11.5t15.5 21t18.5 19.5q34 33 71 56q55 35 70 43q9 5 37.5 17t53.5 24q95 45 176 60l39 8
q31 4 70.5 -2.5t42.5 -32.5q1 -20 -25 -43q-33 -27 -56 -39q-50 -27 -191 -79q-21 -8 -45 -14q-23 -11 -39 -16zM188 175q-19 -11 -22 -13h4q7 0 39 2h11.5t10.5 1l22 4l23 7q22 6 35 12q106 46 137 70q10 8 1 17q-13 5 -23 5q-42 -5 -80 -21q-4 -2 -16.5 -8.5t-17.5 -9.5
l-38 -18q-45 -22 -86 -48zM284 567q19 0 106 -36q14 -3 49 -11.5t53 -10.5q21 -3 64 -5.5t67 -6.5q1 0 3 -0.5t3 -0.5q11 5 44 8q21 4 29 -21q0 -10 -7 -17q-7 -6 -17.5 -7t-27.5 1.5t-20 2.5q-24 2 -71 1.5t-71 0.5q-165 10 -171 11q-1 -1 -7 0l-7 2q-9 0 -27.5 5.5
t-28.5 14.5q-21 19 -21 37.5t24 28.5z" />
    <glyph glyph-name="eacute" unicode="&#xe9;" horiz-adv-x="672" 
d="M215 116q-64 -26 -89 -10q-12 2 -15 9l-14 -12q-11 -9 -23 -31q-5 -8 -5 -22q0 -8 21 -19q39 -18 131 -9q93 6 146 18q35 8 64 16t64.5 20.5t52.5 17.5q11 4 38.5 12t44.5 14q51 15 71 30q8 7 20.5 5t7.5 -15q-1 -3 -5 -6.5t-11 -7.5t-12.5 -6.5t-16.5 -7t-16 -6.5
q-80 -37 -111 -47q-48 -18 -156 -52q-20 -5 -69.5 -19t-78.5 -19q-66 -12 -70 -12q-87 -8 -134 -5q-18 1 -39 9q-8 3 -15.5 9t-9.5 7q-27 16 -27 54q0 35 10 51q1 1 8 11.5t15.5 21t18.5 19.5q34 33 71 56q55 35 70 43q9 5 37.5 17t53.5 24q95 45 176 60l39 8
q31 4 70.5 -2.5t42.5 -32.5q1 -20 -25 -43q-33 -27 -56 -39q-50 -27 -191 -79q-21 -8 -45 -14q-23 -11 -39 -16zM188 175q-19 -11 -22 -13h4q7 0 39 2h11.5t10.5 1l22 4l23 7q22 6 35 12q106 46 137 70q10 8 1 17q-13 5 -23 5q-42 -5 -80 -21q-4 -2 -16.5 -8.5t-17.5 -9.5
l-38 -18q-45 -22 -86 -48zM603 517q-21 -8 -69 -18.5t-70 -19.5q-9 -4 -34 -10.5t-26 -6.5l-24 -4l-4 -1q-9 -6 -41.5 -14.5t-51.5 -19.5q-16 -7 -32 -1q-12 8 -18 23v2q0 15 7 32q6 11 16 21q17 10 37 13q53 6 66 2q9 -2 32 1.5t44 8t23 4.5q34 11 86 19t81 16
q14 4 44.5 9.5t44.5 9.5l4 2q8 1 14 -2t7 -5t-1 -8l-2 -5q-3 -4 -11 -7l-3 -1q-2 -1 -3 -1l-2 -2q-4 -4 -31 -8q-5 -1 -83 -29z" />
    <glyph glyph-name="ecircumflex" unicode="&#xea;" horiz-adv-x="672" 
d="M215 116q-64 -26 -89 -10q-12 2 -15 9l-14 -12q-11 -9 -23 -31q-5 -8 -5 -22q0 -8 21 -19q39 -18 131 -9q93 6 146 18q35 8 64 16t64.5 20.5t52.5 17.5q11 4 38.5 12t44.5 14q51 15 71 30q8 7 20.5 5t7.5 -15q-1 -3 -5 -6.5t-11 -7.5t-12.5 -6.5t-16.5 -7t-16 -6.5
q-80 -37 -111 -47q-48 -18 -156 -52q-20 -5 -69.5 -19t-78.5 -19q-66 -12 -70 -12q-87 -8 -134 -5q-18 1 -39 9q-8 3 -15.5 9t-9.5 7q-27 16 -27 54q0 35 10 51q1 1 8 11.5t15.5 21t18.5 19.5q34 33 71 56q55 35 70 43q9 5 37.5 17t53.5 24q95 45 176 60l39 8
q31 4 70.5 -2.5t42.5 -32.5q1 -20 -25 -43q-33 -27 -56 -39q-50 -27 -191 -79q-21 -8 -45 -14q-23 -11 -39 -16zM188 175q-19 -11 -22 -13h4q7 0 39 2h11.5t10.5 1l22 4l23 7q22 6 35 12q106 46 137 70q10 8 1 17q-13 5 -23 5q-42 -5 -80 -21q-4 -2 -16.5 -8.5t-17.5 -9.5
l-38 -18q-45 -22 -86 -48zM297 445q-21 -22 -56 -10q-19 7 -26.5 23t3.5 35q39 43 173 79t182 15q42 -17 57 -64q2 -5 12.5 -28t12.5 -28q0 -1 3 -11q-2 -16 -18 -21q-2 0 -3 -1q-13 3 -17 14q-1 7 -0.5 14t-0.5 14.5t-4 11.5q-21 27 -43 41q-15 10 -32.5 13.5t-42 -1
t-37 -7.5t-42.5 -14t-34 -12q-53 -19 -87 -63z" />
    <glyph glyph-name="edieresis" unicode="&#xeb;" horiz-adv-x="672" 
d="M215 116q-64 -26 -89 -10q-12 2 -15 9l-14 -12q-11 -9 -23 -31q-5 -8 -5 -22q0 -8 21 -19q39 -18 131 -9q93 6 146 18q35 8 64 16t64.5 20.5t52.5 17.5q11 4 38.5 12t44.5 14q51 15 71 30q8 7 20.5 5t7.5 -15q-1 -3 -5 -6.5t-11 -7.5t-12.5 -6.5t-16.5 -7t-16 -6.5
q-80 -37 -111 -47q-48 -18 -156 -52q-20 -5 -69.5 -19t-78.5 -19q-66 -12 -70 -12q-87 -8 -134 -5q-18 1 -39 9q-8 3 -15.5 9t-9.5 7q-27 16 -27 54q0 35 10 51q1 1 8 11.5t15.5 21t18.5 19.5q34 33 71 56q55 35 70 43q9 5 37.5 17t53.5 24q95 45 176 60l39 8
q31 4 70.5 -2.5t42.5 -32.5q1 -20 -25 -43q-33 -27 -56 -39q-50 -27 -191 -79q-21 -8 -45 -14q-23 -11 -39 -16zM188 175q-19 -11 -22 -13h4q7 0 39 2h11.5t10.5 1l22 4l23 7q22 6 35 12q106 46 137 70q10 8 1 17q-13 5 -23 5q-42 -5 -80 -21q-4 -2 -16.5 -8.5t-17.5 -9.5
l-38 -18q-45 -22 -86 -48zM494 513q0 1 -0.5 3t-0.5 4q0 8 1 14l1 4q11 20 35 22q26 2 34 -8l10 -5q19 -11 59 5l4 4q14 14 14 -5q-1 -9 -4 -21l-6 -8q-19 -37 -60.5 -52t-64.5 7q-14 10 -21 33l-1 1v2zM277 493q-1 3 0 6q0 14 12 23q7 10 22 13q16 16 38 10q17 7 32 -3
t15 -30q-3 -18 -17.5 -35t-29.5 -23q-22 -9 -45.5 5t-26.5 34z" />
    <glyph glyph-name="igrave" unicode="&#xec;" horiz-adv-x="463" 
d="M-9 20q-9 16 -4.5 43t11.5 45t21 49q48 98 63 118q26 40 92 49q12 1 25 -8.5t15 -20.5q7 -17 -17 -41q-8 -8 -16.5 -15t-17.5 -12.5t-12 -7.5q-6 -7 -17.5 -15.5t-12.5 -9.5q-24 -23 -40 -52q-22 -42 -13 -78q11 -48 97 -32q17 4 59.5 12t72.5 15.5t57 16.5q58 19 121 55
q26 5 30 -5q2 -4 -4 -10q-209 -137 -360 -157q-52 -7 -94 6t-56 55zM62 600q19 0 106 -36q14 -3 49 -11.5t53 -10.5q21 -3 64 -5.5t67 -6.5q1 0 3 -0.5t3 -0.5q11 5 44 8q21 4 29 -21q0 -10 -7 -17q-7 -6 -17.5 -7t-27.5 1.5t-20 2.5q-24 2 -71 1.5t-71 0.5q-165 10 -171 11
q-1 -1 -7 1l-7 1q-9 0 -27.5 5.5t-28.5 14.5q-21 19 -21 37.5t24 28.5z" />
    <glyph glyph-name="iacute" unicode="&#xed;" horiz-adv-x="463" 
d="M-9 20q-9 16 -4.5 43t11.5 45t21 49q48 98 63 118q26 40 92 49q12 1 25 -8.5t15 -20.5q7 -17 -17 -41q-8 -8 -16.5 -15t-17.5 -12.5t-12 -7.5q-6 -7 -17.5 -15.5t-12.5 -9.5q-24 -23 -40 -52q-22 -42 -13 -78q11 -48 97 -32q17 4 59.5 12t72.5 15.5t57 16.5q58 19 121 55
q26 5 30 -5q2 -4 -4 -10q-209 -137 -360 -157q-52 -7 -94 6t-56 55zM397 536q-21 -8 -69 -18.5t-70 -19.5q-9 -4 -34 -10.5t-26 -6.5l-24 -4l-4 -1q-9 -6 -41.5 -14.5t-51.5 -19.5q-16 -7 -32 -1q-12 8 -18 23v2q0 15 7 32q6 11 16 21q17 10 37 13q53 6 66 2q9 -2 32 1.5
t44 8t23 4.5q34 11 86 19t81 16q14 4 44.5 9.5t44.5 9.5l4 2q8 1 14 -2t7 -5t-1 -8l-2 -5q-3 -4 -11 -7l-3 -1q-2 -1 -3 -1l-2 -2q-4 -4 -31 -8q-13 -3 -26.5 -7.5t-30.5 -11.5t-26 -10z" />
    <glyph glyph-name="icircumflex" unicode="&#xee;" horiz-adv-x="463" 
d="M-9 20q-9 16 -4.5 43t11.5 45t21 49q48 98 63 118q26 40 92 49q12 1 25 -8.5t15 -20.5q7 -17 -17 -41q-8 -8 -16.5 -15t-17.5 -12.5t-12 -7.5q-6 -7 -17.5 -15.5t-12.5 -9.5q-24 -23 -40 -52q-22 -42 -13 -78q11 -48 97 -32q17 4 59.5 12t72.5 15.5t57 16.5q58 19 121 55
q26 5 30 -5q2 -4 -4 -10q-209 -137 -360 -157q-52 -7 -94 6t-56 55zM78 467q-21 -22 -56 -10q-19 7 -26.5 23t3.5 35q39 43 173 79t182 15q42 -17 57 -64q2 -4 12.5 -27.5t12.5 -28.5q0 -1 3 -11q-1 -16 -18 -21q-2 0 -3 -1q-13 3 -17 14q-1 7 -0.5 14t-0.5 14.5t-4 11.5
q-21 27 -43 41q-15 10 -32.5 13.5t-42 -1t-37 -7.5t-42.5 -14t-34 -12q-53 -19 -87 -63z" />
    <glyph glyph-name="idieresis" unicode="&#xef;" horiz-adv-x="463" 
d="M-9 20q-9 16 -4.5 43t11.5 45t21 49q48 98 63 118q26 40 92 49q12 1 25 -8.5t15 -20.5q7 -17 -17 -41q-8 -8 -16.5 -15t-17.5 -12.5t-12 -7.5q-6 -7 -17.5 -15.5t-12.5 -9.5q-24 -23 -40 -52q-22 -42 -13 -78q11 -48 97 -32q17 4 59.5 12t72.5 15.5t57 16.5q58 19 121 55
q26 5 30 -5q2 -4 -4 -10q-209 -137 -360 -157q-52 -7 -94 6t-56 55zM280 529q0 1 -0.5 3t-0.5 4q0 8 1 14l1 4q11 20 35 22q26 2 34 -8l10 -5q19 -11 59 5l4 4q14 14 14 -5q-1 -9 -4 -21l-6 -8q-19 -37 -60.5 -52t-64.5 7q-14 10 -21 33l-1 1v2zM63 509q-1 3 0 6q0 14 12 23
q7 10 22 13q16 16 38 10q17 7 32 -3t15 -30q-3 -18 -17.5 -35t-29.5 -23q-22 -9 -45.5 5t-26.5 34z" />
    <glyph glyph-name="ntilde" unicode="&#xf1;" horiz-adv-x="879" 
d="M114 285v1q23 31 53 38q26 10 44 -2.5t16 -39.5q-7 -20 -29.5 -49.5t-53.5 -63t-40 -45.5q-18 -21 -10 -23q1 0 3 -0.5t4.5 -1t7 0.5t10.5 4q24 11 48 25q3 2 76 46t122 73q136 74 183 68q31 -4 45.5 -20t13.5 -40.5t-6 -55.5q-9 -52 -11 -93q0 -36 27.5 -55t65.5 -19
q70 0 174 51v1q2 1 7 1q21 1 22.5 -9t-16.5 -20q-6 -3 -34 -18t-38.5 -20t-35 -17t-38 -17t-33.5 -11.5t-36 -8t-31 -0.5q-34 2 -62.5 29.5t-32.5 67.5q-4 45 1 90q2 23 -2 46q-3 14 -17 24q-18 12 -36 9q-69 -12 -132 -46q-30 -16 -82.5 -51.5t-62.5 -41.5
q-14 -9 -60.5 -44.5t-64.5 -44.5q-6 -3 -16.5 -9t-19 -9.5t-17.5 -5.5q-17 -6 -24 -4q-20 2 -30 10.5t-18 26.5q-2 27 38 82q5 6 17 23.5t17 24.5q27 40 55 73q16 24 23.5 40.5t12.5 24.5q1 1 2 3zM321 514l-38 -18q-6 -5 -21 -17t-26.5 -20.5t-12.5 -10.5q-11 -11 -27 -9.5
t-30 12.5l-2 2q-14 38 14 64q82 52 166 59q39 4 56 2q8 -1 22.5 -5t17.5 -5q22 -5 58.5 -27t63.5 -30q25 -9 59.5 -10t72.5 14q2 11 19.5 27.5t29.5 17.5l1 1l1 -1h2h-1h2q16 -3 6 -23q-20 -49 -72.5 -76t-93.5 -19q-37 7 -85 45t-66 45q-24 9 -59 5q-12 -1 -57 -23z" />
    <glyph glyph-name="ograve" unicode="&#xf2;" horiz-adv-x="724" 
d="M-2 112q37 62 115 115q32 22 87 50q-2 12 15.5 29.5t35.5 23.5q6 2 37.5 6t33.5 4q12 2 14 2q3 1 29 5q131 9 381 -19q45 -5 67 -11t61 -24q23 -9 28.5 -28t-21.5 -29q-10 -2 -20.5 0.5t-14.5 2.5q-16 1 -28 15.5t-11 27.5q-1 1 -3 1q-5 1 -25 7.5t-31 8.5q-6 1 -80 1
q-21 -1 -62 1t-59 2q32 -20 34 -52q0 -74 -137 -151q-4 -2 -27.5 -17t-37.5 -21q-11 -5 -56 -22q-41 -17 -124 -40q-92 -25 -139 -27q-44 -2 -65 11q-38 22 -29 64q4 20 32 64zM537 254q2 20 -33 26.5t-85 5.5q-22 -7 -67 -27.5t-58 -22.5q-18 -3 -52 6q-34 -22 -52 -36
q-43 -35 -44 -36q-18 -20 -31 -38q-25 -35 -30 -55q-3 -13 1 -20q8 -13 67 -4q69 11 76 13q10 3 81 31q67 23 106 41q20 10 66 42q51 36 55 74zM310 595q19 0 106 -36q14 -3 49 -11.5t53 -10.5q21 -3 64 -5.5t67 -6.5q1 0 3 -0.5t3 -0.5q11 5 44 8q21 4 29 -21q0 -10 -7 -17
q-7 -6 -17.5 -7t-27.5 1.5t-20 2.5q-24 2 -71 1.5t-71 0.5q-165 10 -171 11q-1 -1 -7 0l-7 2q-9 0 -27.5 5.5t-28.5 14.5q-21 19 -21 37.5t24 28.5z" />
    <glyph glyph-name="oacute" unicode="&#xf3;" horiz-adv-x="724" 
d="M-2 112q37 62 115 115q32 22 87 50q-2 12 15.5 29.5t35.5 23.5q6 2 37.5 6t33.5 4q12 2 14 2q3 1 29 5q131 9 381 -19q45 -5 67 -11t61 -24q23 -9 28.5 -28t-21.5 -29q-10 -2 -20.5 0.5t-14.5 2.5q-16 1 -28 15.5t-11 27.5q-1 1 -3 1q-5 1 -25 7.5t-31 8.5q-6 1 -80 1
q-21 -1 -62 1t-59 2q32 -20 34 -52q0 -74 -137 -151q-4 -2 -27.5 -17t-37.5 -21q-11 -5 -56 -22q-41 -17 -124 -40q-92 -25 -139 -27q-44 -2 -65 11q-38 22 -29 64q4 20 32 64zM537 254q2 20 -33 26.5t-85 5.5q-22 -7 -67 -27.5t-58 -22.5q-18 -3 -52 6q-34 -22 -52 -36
q-43 -35 -44 -36q-18 -20 -31 -38q-25 -35 -30 -55q-3 -13 1 -20q8 -13 67 -4q69 11 76 13q10 3 81 31q67 23 106 41q20 10 66 42q51 36 55 74zM592 531q-21 -8 -69 -18.5t-70 -19.5q-9 -4 -34 -10.5t-26 -6.5l-24 -4l-4 -1q-9 -6 -41.5 -14.5t-51.5 -19.5q-16 -7 -32 -1
q-12 8 -18 23v2q0 15 7 32q6 11 16 21q17 10 37 13q53 6 66 2q9 -2 32 1.5t44 8t23 4.5q34 11 86 19t81 16q14 4 44.5 9.5t44.5 9.5l4 2q7 1 14 -2q6 -3 7 -5t-1 -8l-2 -5q-3 -4 -11 -7l-2 -1q-3 -1 -4 -1l-2 -2q-4 -4 -31 -8q-13 -3 -26.5 -7.5t-30.5 -11.5t-26 -10z" />
    <glyph glyph-name="ocircumflex" unicode="&#xf4;" horiz-adv-x="724" 
d="M-2 112q37 62 115 115q32 22 87 50q-2 12 15.5 29.5t35.5 23.5q6 2 37.5 6t33.5 4q12 2 14 2q3 1 29 5q131 9 381 -19q45 -5 67 -11t61 -24q23 -9 28.5 -28t-21.5 -29q-10 -2 -20.5 0.5t-14.5 2.5q-16 1 -28 15.5t-11 27.5q-1 1 -3 1q-5 1 -25 7.5t-31 8.5q-6 1 -80 1
q-21 -1 -62 1t-59 2q32 -20 34 -52q0 -74 -137 -151q-4 -2 -27.5 -17t-37.5 -21q-11 -5 -56 -22q-41 -17 -124 -40q-92 -25 -139 -27q-44 -2 -65 11q-38 22 -29 64q4 20 32 64zM537 254q2 20 -33 26.5t-85 5.5q-22 -7 -67 -27.5t-58 -22.5q-18 -3 -52 6q-34 -22 -52 -36
q-43 -35 -44 -36q-18 -20 -31 -38q-25 -35 -30 -55q-3 -13 1 -20q8 -13 67 -4q69 11 76 13q10 3 81 31q67 23 106 41q20 10 66 42q51 36 55 74zM324 458q-21 -22 -56 -10q-19 7 -26.5 23t3.5 35q39 43 173 79t182 15q42 -17 57 -64q2 -4 12.5 -27.5t12.5 -28.5q0 -1 3 -11
q-1 -17 -18 -21q-2 0 -3 -1q-13 3 -17 14q-1 7 -0.5 14t-0.5 14.5t-4 11.5q-21 27 -43 41q-15 10 -32.5 13.5t-42 -1t-37 -7.5t-42.5 -14t-34 -12q-53 -19 -87 -63z" />
    <glyph glyph-name="otilde" unicode="&#xf5;" horiz-adv-x="724" 
d="M-2 112q37 62 115 115q32 22 87 50q-2 12 15.5 29.5t35.5 23.5q6 2 37.5 6t33.5 4q12 2 14 2q3 1 29 5q131 9 381 -19q45 -5 67 -11t61 -24q23 -9 28.5 -28t-21.5 -29q-10 -2 -20.5 0.5t-14.5 2.5q-16 1 -28 15.5t-11 27.5q-1 1 -3 1q-5 1 -25 7.5t-31 8.5q-6 1 -80 1
q-21 -1 -62 1t-59 2q32 -20 34 -52q0 -74 -137 -151q-4 -2 -27.5 -17t-37.5 -21q-11 -5 -56 -22q-41 -17 -124 -40q-92 -25 -139 -27q-44 -2 -65 11q-38 22 -29 64q4 20 32 64zM537 254q2 20 -33 26.5t-85 5.5q-22 -7 -67 -27.5t-58 -22.5q-18 -3 -52 6q-34 -22 -52 -36
q-43 -35 -44 -36q-18 -20 -31 -38q-25 -35 -30 -55q-3 -13 1 -20q8 -13 67 -4q69 11 76 13q10 3 81 31q67 23 106 41q20 10 66 42q51 36 55 74zM354 514l-38 -18q-6 -5 -21 -17t-26.5 -20.5t-12.5 -10.5q-11 -11 -27 -9.5t-30 12.5l-2 2q-14 38 14 64q82 52 166 59
q39 4 56 2q8 -1 22.5 -5t17.5 -5q22 -5 58.5 -27t63.5 -30q25 -9 59.5 -10t72.5 14q2 11 19.5 27.5t29.5 17.5l1 1q1 0 3 -1h-1h2q16 -3 6 -23q-20 -49 -72.5 -76t-93.5 -19q-37 7 -85 45t-66 45q-24 9 -59 5q-12 -1 -57 -23z" />
    <glyph glyph-name="odieresis" unicode="&#xf6;" horiz-adv-x="724" 
d="M-2 112q37 62 115 115q32 22 87 50q-2 12 15.5 29.5t35.5 23.5q6 2 37.5 6t33.5 4q12 2 14 2q3 1 29 5q131 9 381 -19q45 -5 67 -11t61 -24q23 -9 28.5 -28t-21.5 -29q-10 -2 -20.5 0.5t-14.5 2.5q-16 1 -28 15.5t-11 27.5q-1 1 -3 1q-5 1 -25 7.5t-31 8.5q-6 1 -80 1
q-21 -1 -62 1t-59 2q32 -20 34 -52q0 -74 -137 -151q-4 -2 -27.5 -17t-37.5 -21q-11 -5 -56 -22q-41 -17 -124 -40q-92 -25 -139 -27q-44 -2 -65 11q-38 22 -29 64q4 20 32 64zM537 254q2 20 -33 26.5t-85 5.5q-22 -7 -67 -27.5t-58 -22.5q-18 -3 -52 6q-34 -22 -52 -36
q-43 -35 -44 -36q-18 -20 -31 -38q-25 -35 -30 -55q-3 -13 1 -20q8 -13 67 -4q69 11 76 13q10 3 81 31q67 23 106 41q20 10 66 42q51 36 55 74zM482 513q0 1 -0.5 3t-0.5 4q0 8 1 14l1 4q11 20 35 22q26 2 34 -8l10 -5q19 -11 59 5l4 4q14 14 14 -5q-1 -9 -4 -21l-6 -8
q-19 -37 -60.5 -52t-64.5 7q-14 10 -21 33l-1 1v2zM265 493q-1 3 0 6q0 14 12 23q7 10 22 13q16 16 38 10q17 7 32 -3t15 -30q-3 -18 -17.5 -35t-29.5 -23q-22 -9 -45.5 5t-26.5 34z" />
    <glyph glyph-name="divide" unicode="&#xf7;" horiz-adv-x="874" 
d="M118 163q-14 10 -16 30v4q4 14 11.5 21.5t23.5 12.5q161 -1 346 5q131 7 147 6q29 -2 87 -6.5t87 -6.5q12 -3 16.5 -11t-1 -15.5t-17.5 -9.5q-36 -1 -115.5 1.5t-124.5 0.5q-42 -2 -126 -12t-119 -13l-59 -10l-60 -27q-9 -5 -38.5 7.5t-41.5 22.5zM338 55q26 8 42 -3
q27 -5 49 -18.5t19 -29.5q-8 -26 -38 -34q-9 -4 -30 -8.5t-22 -4.5q-15 2 -30.5 9.5t-17.5 16.5q-14 12 -14.5 27t9.5 23q2 3 9 10q3 1 12.5 5.5t11.5 6.5zM491 441q2 0 14 2.5t15 1.5q12 0 21 -4l4 -3q20 -10 27 -28t-11 -26l-18 -14q-16 -12 -20 -13l-4 -2q-11 -8 -25 -8
q-36 -3 -46 22t8 48l2 4l2 1q11 14 31 19z" />
    <glyph glyph-name="oslash" unicode="&#xf8;" horiz-adv-x="724" 
d="M-2 112q37 62 115 115q32 22 87 50q-2 12 15.5 29.5t35.5 23.5q6 2 37.5 6t33.5 4q12 2 14 2q3 1 29 5q44 2 71 2q19 19 44 45.5t47 47.5t59 51q6 5 35.5 29.5t42 34t36.5 26t45 27.5q33 9 44.5 2t11.5 -32q-13 -25 -95 -88q-10 3 -51 -19.5t-65 -46.5q-5 -4 -5 -1
q-47 -36 -95 -77q95 -3 256 -20q45 -5 67 -11t61 -24q23 -9 28.5 -28t-21.5 -29q-10 -2 -20.5 0.5t-14.5 2.5q-16 1 -28 15.5t-11 27.5q-1 1 -3 1q-5 1 -25 7.5t-31 8.5q-6 1 -80 1q-21 -1 -62 1t-59 2q32 -20 34 -52q0 -74 -137 -151q-4 -2 -27.5 -17t-37.5 -21
q-11 -5 -56 -22q-41 -17 -124 -40q-73 -18 -96 -22l-27 -26q-95 -94 -168 -198q-14 -37 -19 -45q-14 -17 -27 -34t-26 -33q-22 -16 -44 -6q-3 2 -7 8t-5 8q-15 20 27 76q63 83 228 245q-27 3 -40 11q-38 22 -29 64q4 20 32 64zM537 254q4 34 -117 32q-27 -25 -47 -49
q-28 -32 -86.5 -83.5t-76.5 -69.5l-26 -27q22 3 45 9q10 3 81 31q67 23 106 41q20 10 66 42q51 36 55 74zM113 49q77 74 210 196q-18 -7 -29 -9q-18 -3 -52 6q-34 -22 -52 -36q-43 -35 -44 -36q-18 -20 -31 -38q-25 -35 -30 -55q-3 -13 1 -20q4 -8 27 -8z" />
    <glyph glyph-name="ugrave" unicode="&#xf9;" horiz-adv-x="891" 
d="M-26 47q3 22 16 47.5t36 59.5t27 40l1 4q1 3 3 5q-6 28 1 38q26 35 64 57q1 0 2 1q8 8 14 11q37 16 57 7q15 -6 21 -19.5t-2 -31.5q-6 -9 -13 -14.5t-13 -12.5q-4 -4 -15.5 -12.5t-15.5 -11.5q-25 -21 -50 -52q-5 -7 -21 -39q-10 -16 -12 -36q-5 -27 18 -28q36 -4 39 -3
q14 2 28.5 6.5t22.5 7.5t29.5 13t30.5 14q28 13 53 26t40.5 22t55 33.5t67.5 41.5q9 5 73 55q5 4 18 15.5t20 14.5q9 8 38.5 5t39.5 -15q28 -30 9 -66q-6 -5 -10.5 -11t-10.5 -15.5t-11 -15.5q-19 -26 -36 -62.5t-18 -49.5q-1 -28 31 -35q12 -3 26 -3q30 0 35 1q44 7 98 28
q75 28 139 64q4 2 14.5 10.5t14.5 9.5l12 -8q12 -15 -4 -30q-14 -10 -159 -84q-7 -4 -23 -12.5t-23 -12l-23 -11.5t-23 -11t-22.5 -9.5t-22 -7.5t-21.5 -5t-21 -2.5t-20 0.5q-35 5 -57.5 37.5t-18.5 76.5q2 31 32 123q2 7 -4.5 8.5t-11.5 -0.5q-15 -4 -71 -39
q-13 -8 -50 -33t-71 -45.5t-66 -36.5q-139 -68 -162 -73q-60 -13 -88 -1q-45 21 -36 72zM270 567q19 0 106 -36q14 -3 49 -11.5t53 -10.5q21 -3 64 -5.5t67 -6.5q1 0 3 -0.5t3 -0.5q11 5 44 8q21 4 29 -21q0 -10 -7 -17q-7 -6 -17.5 -7t-27.5 1.5t-20 2.5q-24 2 -71 1.5
t-71 0.5q-165 10 -171 11q-1 -1 -7 0l-7 2q-9 0 -27.5 5.5t-28.5 14.5q-21 19 -21 37.5t24 28.5z" />
    <glyph glyph-name="uacute" unicode="&#xfa;" horiz-adv-x="891" 
d="M-26 47q3 22 16 47.5t36 59.5t27 40l1 4q1 3 3 5q-6 28 1 38q26 35 64 57q1 0 2 1q8 8 14 11q37 16 57 7q15 -6 21 -19.5t-2 -31.5q-6 -9 -13 -14.5t-13 -12.5q-4 -4 -15.5 -12.5t-15.5 -11.5q-25 -21 -50 -52q-5 -7 -21 -39q-10 -16 -12 -36q-5 -27 18 -28q36 -4 39 -3
q14 2 28.5 6.5t22.5 7.5t29.5 13t30.5 14q28 13 53 26t40.5 22t55 33.5t67.5 41.5q9 5 73 55q5 4 18 15.5t20 14.5q9 8 38.5 5t39.5 -15q28 -30 9 -66q-6 -5 -10.5 -11t-10.5 -15.5t-11 -15.5q-19 -26 -36 -62.5t-18 -49.5q-1 -28 31 -35q12 -3 26 -3q30 0 35 1q44 7 98 28
q75 28 139 64q4 2 14.5 10.5t14.5 9.5l12 -8q12 -15 -4 -30q-14 -10 -159 -84q-7 -4 -23 -12.5t-23 -12l-23 -11.5t-23 -11t-22.5 -9.5t-22 -7.5t-21.5 -5t-21 -2.5t-20 0.5q-35 5 -57.5 37.5t-18.5 76.5q2 31 32 123q2 7 -4.5 8.5t-11.5 -0.5q-15 -4 -71 -39
q-13 -8 -50 -33t-71 -45.5t-66 -36.5q-139 -68 -162 -73q-60 -13 -88 -1q-45 21 -36 72zM561 517q-21 -8 -69 -18.5t-70 -19.5q-9 -4 -34 -10.5t-26 -6.5l-24 -4l-4 -1q-9 -6 -41.5 -14.5t-51.5 -19.5q-16 -7 -32 -1q-12 8 -18 23v2q0 15 7 32q6 11 16 21q17 10 37 13
q53 6 66 2q9 -2 32 1.5t44 8t23 4.5q34 11 86 19t81 16q14 4 44.5 9.5t44.5 9.5l4 2q8 1 14 -2t7 -5t-1 -8l-2 -5q-3 -4 -11 -7l-3 -1q-2 -1 -3 -1l-2 -2q-4 -4 -31 -8q-5 -1 -83 -29z" />
    <glyph glyph-name="ucircumflex" unicode="&#xfb;" horiz-adv-x="891" 
d="M-26 47q3 22 16 47.5t36 59.5t27 40l1 4q1 3 3 5q-6 28 1 38q26 35 64 57q1 0 2 1q8 8 14 11q37 16 57 7q15 -6 21 -19.5t-2 -31.5q-6 -9 -13 -14.5t-13 -12.5q-4 -4 -15.5 -12.5t-15.5 -11.5q-25 -21 -50 -52q-5 -7 -21 -39q-10 -16 -12 -36q-5 -27 18 -28q36 -4 39 -3
q14 2 28.5 6.5t22.5 7.5t29.5 13t30.5 14q28 13 53 26t40.5 22t55 33.5t67.5 41.5q9 5 73 55q5 4 18 15.5t20 14.5q9 8 38.5 5t39.5 -15q28 -30 9 -66q-6 -5 -10.5 -11t-10.5 -15.5t-11 -15.5q-19 -26 -36 -62.5t-18 -49.5q-1 -28 31 -35q12 -3 26 -3q30 0 35 1q44 7 98 28
q75 28 139 64q4 2 14.5 10.5t14.5 9.5l12 -8q12 -15 -4 -30q-14 -10 -159 -84q-7 -4 -23 -12.5t-23 -12l-23 -11.5t-23 -11t-22.5 -9.5t-22 -7.5t-21.5 -5t-21 -2.5t-20 0.5q-35 5 -57.5 37.5t-18.5 76.5q2 31 32 123q2 7 -4.5 8.5t-11.5 -0.5q-15 -4 -71 -39
q-13 -8 -50 -33t-71 -45.5t-66 -36.5q-139 -68 -162 -73q-60 -13 -88 -1q-45 21 -36 72zM307 448q-21 -22 -56 -10q-19 7 -26.5 23t3.5 35q39 43 173 79t182 15q42 -17 57 -64q2 -5 12.5 -28.5t12.5 -27.5q0 -1 3 -11q-2 -17 -18 -21q-2 0 -3 -1q-13 3 -17 14q-1 7 -0.5 14
t-0.5 14.5t-4 11.5q-21 27 -43 41q-15 10 -32.5 13.5t-42 -1t-37 -7.5t-42.5 -14t-34 -12q-53 -19 -87 -63z" />
    <glyph glyph-name="udieresis" unicode="&#xfc;" horiz-adv-x="891" 
d="M-26 47q3 22 16 47.5t36 59.5t27 40l1 4q1 3 3 5q-6 28 1 38q26 35 64 57q1 0 2 1q8 8 14 11q37 16 57 7q15 -6 21 -19.5t-2 -31.5q-6 -9 -13 -14.5t-13 -12.5q-4 -4 -15.5 -12.5t-15.5 -11.5q-25 -21 -50 -52q-5 -7 -21 -39q-10 -16 -12 -36q-5 -27 18 -28q36 -4 39 -3
q14 2 28.5 6.5t22.5 7.5t29.5 13t30.5 14q28 13 53 26t40.5 22t55 33.5t67.5 41.5q9 5 73 55q5 4 18 15.5t20 14.5q9 8 38.5 5t39.5 -15q28 -30 9 -66q-6 -5 -10.5 -11t-10.5 -15.5t-11 -15.5q-19 -26 -36 -62.5t-18 -49.5q-1 -28 31 -35q12 -3 26 -3q30 0 35 1q44 7 98 28
q75 28 139 64q4 2 14.5 10.5t14.5 9.5l12 -8q12 -15 -4 -30q-14 -10 -159 -84q-7 -4 -23 -12.5t-23 -12l-23 -11.5t-23 -11t-22.5 -9.5t-22 -7.5t-21.5 -5t-21 -2.5t-20 0.5q-35 5 -57.5 37.5t-18.5 76.5q2 31 32 123q2 7 -4.5 8.5t-11.5 -0.5q-15 -4 -71 -39
q-13 -8 -50 -33t-71 -45.5t-66 -36.5q-139 -68 -162 -73q-60 -13 -88 -1q-45 21 -36 72zM475 513q0 1 -0.5 3t-0.5 4q0 8 1 14l1 4q11 20 35 22q26 2 34 -8l10 -5q19 -11 59 5l4 4q14 14 14 -5q-1 -9 -4 -21l-6 -8q-19 -37 -60.5 -52t-64.5 7q-14 10 -21 33v1q-1 1 -1 2z
M258 493q-2 3 0 6q0 14 12 23q7 10 22 13q16 16 38 10q17 7 32 -3t15 -30q-3 -18 -17.5 -35t-29.5 -23q-22 -9 -45.5 5t-26.5 34z" />
    <glyph glyph-name="yacute" unicode="&#xfd;" horiz-adv-x="898" 
d="M947 82l-22 -16q-7 -4 -14.5 -5.5t-22 -1.5t-21.5 -1q-14 -5 -20.5 -5t-19.5 -6l-10 -4q-3 -1 -48.5 -25t-69.5 -37q-13 -10 -16 -10q-46 -27 -80 -56q-71 -150 -205 -324q-6 -8 -29.5 -39t-39 -50.5t-43.5 -54.5t-63.5 -77.5t-79.5 -92.5q-8 -9 -26 -27t-46.5 -43.5
t-57 -40.5t-45.5 -9q-19 7 -21.5 28.5t7.5 48.5t21 48.5t21 36.5q18 27 64.5 90t67.5 87q129 160 400 403q60 109 83 168q10 24 22 100q3 22 1.5 27.5t-11.5 21.5q-8 13 -12.5 15.5t-18.5 1.5q-31 -2 -41 -5q-36 -10 -58 -23q-52 -29 -137 -84q-11 -7 -58 -37t-66 -42
q-67 -41 -105 -51q-29 -8 -43 -11t-37 -1.5t-37 14.5q-31 28 -23 76q7 43 43 103q6 11 31.5 50t29.5 46q7 12 13.5 20t15 15.5t13.5 13.5q27 26 59 7q10 -7 16 -25q4 -17 -11 -50q-3 -3 -11.5 -12t-14.5 -15q-10 -12 -31.5 -26t-24.5 -18q-31 -35 -41 -73q-6 -18 3 -37
q4 -10 25 -5q6 1 20 7t23 9q45 12 106.5 44t144.5 80t133 73q88 46 138 45q18 0 36 -9.5t23 -26.5q2 -7 3 -15t0.5 -13.5t-2.5 -15.5t-3 -14.5t-5 -18t-5 -18.5q-5 -20 -15 -45.5t-22.5 -55t-16.5 -39.5q-5 -12 -17.5 -43t-13.5 -34q12 9 38 25q25 19 43 26q40 23 47 27
q31 20 53 31q13 7 37 22t47 25q6 7 31 11q19 3 25 1q38 -9 -3 -59zM283 -475q102 125 193 283q-21 -19 -45 -44q-18 -18 -57.5 -67t-62.5 -72q-111 -110 -208 -296l19 19q11 12 47 48t54 56q12 14 24.5 29t22.5 28t13 16zM600 519q-21 -8 -69 -18.5t-70 -19.5
q-9 -4 -34 -10.5t-26 -6.5l-24 -4l-4 -1q-9 -6 -41.5 -14.5t-51.5 -19.5q-16 -7 -32 -1q-12 8 -18 23v2q0 15 7 32q6 11 16 21q17 10 37 13q53 6 66 2q9 -2 32 1.5t44 8t23 4.5q34 11 86 19t81 16q14 4 44.5 9.5t44.5 9.5l4 2q7 1 14 -2q6 -3 7 -5t-1 -8l-2 -5q-3 -4 -11 -7
l-2 -1q-3 -1 -4 -1l-2 -2q-4 -4 -31 -8q-5 -1 -83 -29z" />
    <glyph glyph-name="ydieresis" unicode="&#xff;" horiz-adv-x="898" 
d="M947 82l-22 -16q-7 -4 -14.5 -5.5t-22 -1.5t-21.5 -1q-14 -5 -20.5 -5t-19.5 -6l-10 -4q-3 -1 -48.5 -25t-69.5 -37q-13 -10 -16 -10q-46 -27 -80 -56q-71 -150 -205 -324q-6 -8 -29.5 -39t-39 -50.5t-43.5 -54.5t-63.5 -77.5t-79.5 -92.5q-8 -9 -26 -27t-46.5 -43.5
t-57 -40.5t-45.5 -9q-19 7 -21.5 28.5t7.5 48.5t21 48.5t21 36.5q18 27 64.5 90t67.5 87q129 160 400 403q60 109 83 168q10 24 22 100q3 22 1.5 27.5t-11.5 21.5q-8 13 -12.5 15.5t-18.5 1.5q-31 -2 -41 -5q-36 -10 -58 -23q-52 -29 -137 -84q-11 -7 -58 -37t-66 -42
q-67 -41 -105 -51q-29 -8 -43 -11t-37 -1.5t-37 14.5q-31 28 -23 76q7 43 43 103q6 11 31.5 50t29.5 46q7 12 13.5 20t15 15.5t13.5 13.5q27 26 59 7q10 -7 16 -25q4 -17 -11 -50q-3 -3 -11.5 -12t-14.5 -15q-10 -12 -31.5 -26t-24.5 -18q-31 -35 -41 -73q-6 -18 3 -37
q4 -10 25 -5q6 1 20 7t23 9q45 12 106.5 44t144.5 80t133 73q88 46 138 45q18 0 36 -9.5t23 -26.5q2 -7 3 -15t0.5 -13.5t-2.5 -15.5t-3 -14.5t-5 -18t-5 -18.5q-5 -20 -15 -45.5t-22.5 -55t-16.5 -39.5q-5 -12 -17.5 -43t-13.5 -34q12 9 38 25q25 19 43 26q40 23 47 27
q31 20 53 31q13 7 37 22t47 25q6 7 31 11q19 3 25 1q38 -9 -3 -59zM283 -475q102 125 193 283q-21 -19 -45 -44q-18 -18 -57.5 -67t-62.5 -72q-111 -110 -208 -296l19 19q11 12 47 48t54 56q12 14 24.5 29t22.5 28t13 16zM504 513q0 1 -0.5 3t-0.5 4q0 8 1 14l1 4
q11 20 35 22q26 2 34 -8l10 -5q19 -11 59 5l4 4q14 14 14 -5q-1 -9 -4 -21l-6 -8q-19 -37 -60.5 -52t-64.5 7q-14 10 -21 33l-1 1v2zM287 493q-1 3 0 6q0 14 12 23q7 10 22 13q16 16 38 10q17 7 32 -3t15 -30q-3 -18 -17.5 -35t-29.5 -23q-22 -9 -45.5 5t-26.5 34z" />
    <glyph glyph-name="OE" unicode="&#x152;" horiz-adv-x="2763" 
d="M2558 735q-25 -14 -44.5 3.5t-18.5 44.5t22 48q6 5 9 11.5t3.5 15.5t1.5 12q-12 29 -41 44q-30 13 -107 11q-138 -4 -216 -28q-163 -49 -219 -94l-6 -5q-6 -4 -12.5 -9t-17 -12.5t-20.5 -15.5t-21 -17.5t-20.5 -18t-18.5 -18t-15 -17t-9 -14.5t-2 -11q-13 -26 11.5 -62
t60.5 -52q10 -4 25.5 -11.5t24 -11t29.5 -10t53 -13.5q83 -21 151 -58q24 -20 18 -46q-1 -6 -7 -15t-8 -17q-2 -4 -8 -10t-11.5 -10t-14.5 -9.5t-10 -6.5q-15 -7 -42.5 -20.5t-35.5 -17t-23.5 -11t-25 -10.5t-20.5 -8t-29 -11t-32 -10.5t-46 -15.5q-119 -37 -202 -72.5
t-218 -102.5q-25 -13 -38 -19q-17 -8 -43 -22.5t-62 -40t-64.5 -51t-45 -56.5t-8.5 -57q15 -56 65 -78q129 -58 372 -27q137 19 270 53t218 62t267 93q112 40 177 68t122 65q6 3 46 35q8 7 27 30t36 30q20 9 31 -8q10 -17 7 -30q-4 -10 -12 -17l-10 -8q-49 -35 -169 -93
t-194 -87t-182 -73.5t-158.5 -64.5t-131 -46.5t-161.5 -43.5t-187 -33q-14 -2 -253 -22q-31 -2 -62.5 3t-72.5 15t-60 14q-20 3 -34.5 19.5t-28.5 42t-24 36.5q-3 4 -5.5 9t-3 10.5t-0.5 9.5t1.5 11t2.5 11t4 12t4 11t5 11.5t5 10.5q-57 -32 -128 -65.5t-114 -51.5t-159 -66
q-47 -19 -97.5 -29.5t-117 -18.5t-95.5 -13q-57 -11 -123.5 3t-108.5 39q-51 32 -87.5 84t-36.5 112q0 123 69 288q36 71 137.5 201.5t164.5 181.5q19 16 60.5 52t71.5 60t52 38q15 10 41 19t48 23q22 8 41.5 -15t20.5 -53t-17 -52q-19 -11 -38.5 -14.5t-42 -3.5t-36.5 -3
q-41 -8 -153 -95q-60 -42 -99 -82q-77 -72 -150 -184q-15 -21 -39.5 -81.5t-33.5 -92.5q-29 -129 -7.5 -191t106.5 -110q59 -32 144.5 -39.5t162.5 3t155 33.5q249 76 468 204q42 40 70 57q49 27 111 67q274 210 360 455q24 66 7 121q-12 23 -12 29q-25 50 -108 106
q-109 75 -272.5 106t-328.5 22q-129 -6 -335 -59q-19 -6 -37 -21.5t-19 -22.5q-1 -9 -23 -17q-2 0 -27 -3.5t-30 0.5l-8 3q-14 5 -12 15q3 14 13 24q10 5 42.5 24.5t50.5 24.5q128 34 170 43q71 13 131.5 19t90 7.5t110.5 2t122 1.5q156 2 241 -30q11 -4 78.5 -30.5
t102.5 -40.5q52 -21 94 -93q56 57 143 103.5t152 69t167 51.5q49 14 151.5 27t140.5 7q37 -5 59.5 -21t47.5 -49q11 -13 17 -54q5 -52 1.5 -72.5t-19.5 -30.5q-35 -23 -39 -26zM1600 229q-30 -37 -77 -81q84 40 150 64q132 52 234 103.5t126 82.5q1 2 7.5 14.5t6 22
t-12.5 16.5t-93 36q-11 4 -22.5 7t-27.5 6.5t-30 7.5q-39 11 -88 38q-5 -29 -20 -57q-14 -25 -43.5 -83t-55 -100.5t-54.5 -76.5z" />
    <glyph glyph-name="oe" unicode="&#x153;" horiz-adv-x="1163" 
d="M340 320q45 14 56 -37q3 -13 -9 -31t-26 -24q-13 -5 -31 -4t-25 0q-4 -1 -20 -1t-32.5 -2t-28.5 -6q-56 -22 -74 -35q-37 -25 -51 -37t-30 -35q-15 -22 -17 -42q-2 -12 9 -25q6 -6 30 -11t36 -3q191 13 362 106q43 22 49 25q2 3 8 7l-38 3q-21 1 -39 5t-34 12t-18 20.5
t9 31.5q43 59 159 78q63 8 95 -44q7 -10 9 -22q52 22 150 55q25 10 61.5 20t82 18.5t82.5 4.5t50 -24q1 -3 2 -11.5t3 -12.5q-3 -13 -13 -21q-117 -74 -258 -94q-97 -19 -203 -21q-34 -30 -45 -42q-61 -67 11 -86q85 -24 163 -15q105 13 214 42q93 23 127 35q29 23 50 34
q9 2 22.5 7t23.5 6q15 0 20.5 -10t-0.5 -20q-6 -7 -22.5 -15.5t-30 -14t-34 -12.5t-21.5 -7q-22 -8 -47.5 -15.5t-60.5 -16t-57 -14.5q-12 -4 -30.5 -10.5t-28 -9.5t-35 -8.5t-64.5 -12.5q-84 -11 -136 -13q-107 -3 -152.5 32.5t-20.5 95.5q-97 -57 -227 -100
q-72 -24 -109 -30t-113 -7q-35 0 -61 17t-27 42q-4 46 29 89q54 64 125 109q113 71 176 96q11 3 27.5 4.5t27.5 6.5zM864 272q-82 -31 -117 -47l112 20q34 6 90.5 21t74.5 27q9 6 6.5 11.5t-11.5 5.5q-27 0 -41 -4q-46 -6 -114 -34zM570 222q15 -3 45 -5q13 16 15 32
q0 15 -2.5 19t-11.5 2.5t-11 -1.5q-17 2 -40 -5.5t-29 -18.5q-7 -11 2.5 -15.5t31.5 -7.5z" />
    </font>
</defs>
</svg>
